<svg width="48" height="48" viewBox="0 0 48 48" fill="none" xmlns="http://www.w3.org/2000/svg">
<path d="M17.4323 37.1087C17.4323 37.1087 15.5891 38.2305 18.7149 38.5513C22.4898 39.0322 24.4855 38.9518 28.6527 38.1509C28.6527 38.1509 29.7745 38.873 31.2975 39.4335C21.9194 43.4406 10.0581 39.193 17.4323 37.1087ZM16.23 31.8993C16.23 31.8993 14.2261 33.4224 17.3518 33.7425C21.4386 34.1429 24.6456 34.2233 30.1757 33.1024C30.1757 33.1024 30.8979 33.9041 32.0993 34.3046C20.7993 37.6708 8.1354 34.6246 16.23 31.9002V31.8993ZM38.3508 41.0362C38.3508 41.0362 39.7131 42.158 36.8277 43.0401C31.4576 44.6428 14.3065 45.1245 9.49764 43.0401C7.81536 42.318 11.0207 41.2758 12.0621 41.1166C13.1043 40.8762 13.6648 40.8762 13.6648 40.8762C11.8217 39.5935 1.40218 43.521 8.37503 44.651C27.5301 47.7776 43.3197 43.2888 38.35 41.0444L38.3508 41.0362ZM18.3136 26.4487C18.3136 26.4487 9.57724 28.5331 15.187 29.2536C17.5915 29.5737 22.3199 29.4941 26.7283 29.1732C30.335 28.8532 33.9498 28.2114 33.9498 28.2114C33.9498 28.2114 32.6672 28.7728 31.7858 29.3332C22.882 31.6597 5.81057 30.6175 10.6999 28.2131C14.8686 26.2091 18.3136 26.4487 18.3136 26.4487V26.4487ZM33.9416 35.1851C42.9192 30.5363 38.7505 26.0483 35.8651 26.6096C35.143 26.7696 34.8229 26.9296 34.8229 26.9296C34.8229 26.9296 35.0634 26.4487 35.6247 26.2895C41.3149 24.2856 45.8037 32.3006 33.7816 35.4264C33.7816 35.4264 33.862 35.346 33.9416 35.1859V35.1851ZM19.195 47.8474C27.8509 48.4087 41.0753 47.5273 41.3962 43.439C41.3962 43.439 40.7561 45.0416 34.2633 46.2439C26.89 47.6061 17.7523 47.4461 12.383 46.5639C12.383 46.5639 13.5048 47.5257 19.1958 47.8465L19.195 47.8474Z" fill="#4E7896"/>
<path d="M28.4838 0C28.4838 0 33.4526 5.0493 23.7553 12.6622C15.9807 18.8333 21.991 22.3604 23.7553 26.3667C19.1869 22.28 15.9019 18.6725 18.1447 15.3063C21.4387 10.3399 30.4943 7.93544 28.4838 0ZM25.9193 23.0021C28.2433 25.647 25.2792 28.0514 25.2792 28.0514C25.2792 28.0514 31.2099 25.0069 28.4854 21.2386C26.0006 17.6319 24.077 15.8684 34.4965 9.85653C34.4965 9.85653 18.0659 13.9432 25.921 23.0005L25.9193 23.0021Z" fill="#F58219"/>
</svg>
