<svg width="48" height="48" viewBox="0 0 48 48" fill="none" xmlns="http://www.w3.org/2000/svg">
<g clip-path="url(#clip0)">
<path d="M39.3899 33.6425C39.1086 33.6425 38.833 33.591 38.5687 33.4879C37.4605 33.0585 36.8755 31.8331 37.1793 30.6994L37.168 30.6937L37.2412 30.499L42.8718 15.6115C42.9562 15.3939 42.9168 14.8671 42.8774 14.5751C42.8661 14.5063 42.8662 14.4434 42.883 14.3804L42.8887 14.3689C42.8943 14.3575 42.8943 14.346 42.8999 14.3346C42.9899 14.0941 43.2655 13.9738 43.7155 13.9738C44.2555 13.9738 45.0037 14.1456 45.7687 14.4434C46.4099 14.6953 46.9949 15.0102 47.4055 15.3252C47.8893 15.6973 48.0805 16.0295 47.9737 16.3158C47.968 16.3272 47.9624 16.3387 47.9568 16.3501L47.9512 16.3616C47.923 16.4188 47.8837 16.4646 47.833 16.5047C47.5855 16.728 47.2199 17.1059 47.158 17.2777L41.4599 32.3714L41.4487 32.3657C41.0493 33.1444 40.2674 33.6425 39.3899 33.6425ZM37.6293 30.5963L37.6124 30.6364C37.2524 31.6213 37.7418 32.7321 38.7093 33.11C38.9287 33.1959 39.1537 33.236 39.3843 33.236C40.1662 33.236 40.858 32.7607 41.1449 32.0164L41.1674 31.9648L46.7699 17.1403C46.888 16.8196 47.4449 16.31 47.5574 16.207L47.5687 16.1955C47.5799 16.1898 47.5855 16.1841 47.5855 16.1783L47.5912 16.1726C47.5968 16.1325 47.5461 15.955 47.1524 15.6458C46.7755 15.3538 46.2299 15.0618 45.6168 14.8213C44.908 14.5407 44.188 14.3746 43.7043 14.3746C43.3837 14.3746 43.2768 14.4434 43.2599 14.4777V14.4834C43.2599 14.4892 43.2599 14.4949 43.2599 14.5063V14.5121C43.2712 14.598 43.378 15.3595 43.2318 15.7546L37.6293 30.5963Z" fill="black"/>
<path d="M44.8348 21.1656C44.8348 21.1656 44.0586 22.0761 43.3498 22.4025C42.6411 22.7288 42.1179 22.6429 41.4823 23.0209C40.8467 23.3988 40.5261 23.9256 40.5261 23.9256L37.9386 30.7796C37.6573 31.5526 38.0736 32.4573 38.8442 32.7607C39.6148 33.0642 40.4867 32.6634 40.7848 31.8961L44.8348 21.1656ZM42.2304 25.1223C42.3542 25.065 42.5004 25.1223 42.5511 25.2483C42.6073 25.3742 42.5511 25.5231 42.4273 25.5746C42.3036 25.6319 42.1573 25.5746 42.1067 25.4487C42.0448 25.3227 42.1067 25.1738 42.2304 25.1223ZM41.1898 23.9943C41.2742 23.9599 41.3698 23.9943 41.4036 24.0802C41.4373 24.1661 41.4036 24.2634 41.3192 24.2978C41.2348 24.3321 41.1392 24.2978 41.1054 24.2119C41.0717 24.126 41.1111 24.0286 41.1898 23.9943ZM40.0479 27.8708C39.9242 27.928 39.7779 27.8708 39.7273 27.7448C39.6711 27.6188 39.7273 27.4699 39.8511 27.4184C39.9748 27.3612 40.1211 27.4184 40.1717 27.5444C40.2336 27.6704 40.1773 27.8135 40.0479 27.8708ZM40.2786 26.9718C40.1773 26.737 40.2786 26.4622 40.5092 26.3534C40.7398 26.2503 41.0098 26.3534 41.1167 26.5881C41.2179 26.8229 41.1167 27.0978 40.8861 27.2065C40.6498 27.3096 40.3798 27.2065 40.2786 26.9718ZM40.8636 29.3481C40.9479 29.3137 41.0436 29.3481 41.0773 29.434C41.1111 29.5198 41.0773 29.6172 40.9929 29.6515C40.9086 29.6859 40.8129 29.6515 40.7792 29.5657C40.7454 29.4855 40.7792 29.3881 40.8636 29.3481Z" fill="black"/>
<path d="M46.8206 16.0528C46.902 15.8374 46.3146 15.4069 45.5085 15.0913C44.7025 14.7756 43.9831 14.6944 43.9017 14.9099C43.8203 15.1254 44.4077 15.5559 45.2137 15.8715C46.0197 16.1871 46.7392 16.2683 46.8206 16.0528Z" fill="black"/>
<path d="M11.0906 23.0667C11.3381 23.2671 11.7881 23.1526 12.0918 22.8147C12.4068 22.4597 12.4574 22.0074 12.2099 21.8012C11.9624 21.6008 11.5124 21.7153 11.2087 22.0704C10.8881 22.4311 10.8318 22.8663 11.0906 23.0667ZM10.3537 23.7252C10.2862 23.7252 10.1737 23.8454 10.2693 23.8912C10.4043 23.9427 10.4662 24.0573 10.4662 24.229C10.3481 24.9219 9.50431 25.7178 9.16681 25.9869C9.08243 26.0728 9.20056 26.256 9.28493 26.1873C9.46493 26.0385 9.84743 25.735 10.1624 25.3284C9.65056 26.4965 8.64931 27.9967 8.26681 28.5235C6.77056 30.6364 4.49806 32.5775 2.93431 32.5775C1.68556 32.5775 0.628057 31.7186 0.397432 30.4475C0.380557 30.31 0.200557 30.2814 0.234307 30.4646C0.515557 32.2053 1.83181 32.8753 3.42368 32.8753C5.16743 32.8753 7.21493 31.5869 8.33993 30.2757C10.1624 28.1456 11.3493 25.7006 11.0287 24.3149C10.9049 23.7939 10.5506 23.708 10.3537 23.7252ZM21.5587 28.3575C22.0368 28.2372 22.4362 27.9681 22.4362 27.5444C22.4362 27.5043 22.3518 27.5043 22.3518 27.5444C22.3518 27.7963 22.0706 28.0025 21.7556 28.054C21.0131 28.1742 19.5337 27.281 18.8362 26.3648C19.5787 26.6511 21.1087 26.2331 21.8287 25.7121C22.4924 25.2254 22.7568 24.6814 22.8131 24.2405C22.8974 23.519 22.1156 23.0896 21.0356 23.519C20.3381 23.8053 19.5056 24.4295 18.6449 25.5976C19.5562 24.0573 21.3506 21.5607 23.1112 19.9575C25.2543 18.0164 26.4974 18.3886 24.5737 20.4442C23.7806 21.2859 22.2843 22.3853 21.2493 22.8605C20.9343 22.998 21.0862 23.1812 21.3168 23.0781C22.4137 22.5914 23.8706 21.5722 24.7537 20.7305C27.3581 18.1824 25.1868 16.2585 22.2956 18.9554C20.3381 20.7992 19.0556 22.7231 17.9474 25.2196C17.5649 25.6892 17.2837 26.0785 16.9293 26.3877C16.8899 26.4221 16.8562 26.4622 16.8281 26.4965C15.8718 27.3325 14.3643 28.4605 13.4249 28.4777C12.7612 28.4949 12.4799 27.991 12.5981 27.3268C12.7781 26.2961 13.8299 25.0822 14.7243 24.6585C15.8887 24.1203 16.5693 25.1624 15.0393 26.0098C14.4599 26.3133 13.7568 26.4794 13.4756 26.4794C13.1437 26.4794 13.1774 26.6168 13.4587 26.6282C13.9199 26.6454 14.6737 26.445 15.1687 26.2045C16.7324 25.4487 16.8281 24.0286 15.1349 23.9771C13.2899 23.9084 11.0849 25.5174 11.1018 27.5272C11.1187 28.4376 11.8331 28.9301 12.8118 28.9301C14.4431 28.9129 15.8999 27.6475 17.0868 26.5423C17.2556 26.3992 17.4243 26.2389 17.5874 26.0728C17.1712 27.155 16.9574 28.1513 17.0587 28.89C17.1262 29.4282 17.4243 29.6802 17.6549 29.8863C17.7056 29.9207 17.8012 29.8863 17.7393 29.7832C17.3906 29.3595 17.4918 28.1055 17.9699 26.8973C18.3693 27.699 19.9274 28.7297 21.5587 28.3575ZM19.6012 24.836C21.5081 23.0953 22.2562 24.6528 21.0468 25.5918C20.4168 26.0785 19.1681 26.4507 18.7743 26.216L18.6899 26.1644C18.6393 26.0785 18.5887 25.9984 18.5549 25.9125C18.8699 25.5231 19.2356 25.1738 19.6012 24.836ZM30.1931 22.8663C30.9524 22.9522 30.6374 22.0074 29.8612 22.2421C29.5124 22.3452 29.1806 23.0151 28.9331 23.6106C28.1737 24.7787 26.8912 26.3591 25.9912 27.1894C25.1981 27.8822 24.4612 28.0654 25.3612 26.7657C25.7268 26.2446 26.1881 25.6834 26.4581 25.128C27.0881 23.7252 25.7437 23.101 24.6637 23.9427C24.0337 24.4295 23.1843 25.4487 22.5206 26.0041C22.3406 26.153 22.3856 26.3763 22.5712 26.2217C23.0999 25.7865 24.0337 24.7845 24.8268 24.1947C25.4906 23.6736 25.7549 24.0115 25.3724 24.4466C24.8437 25.0708 23.9099 26.153 23.6793 26.8458C23.3474 27.8765 23.7468 28.3346 24.4049 28.3346C25.3162 28.3346 26.6774 26.8802 27.5943 25.735C27.8924 25.3456 28.2243 24.8933 28.5056 24.4524C27.7124 26.0213 26.8799 27.6131 25.8506 29.0446C24.3881 31.0716 22.5599 32.5947 20.8331 32.5947C19.5843 32.5947 18.5099 31.7358 18.2793 30.4646C18.2624 30.3272 18.0993 30.2986 18.1162 30.4818C18.3974 32.2225 19.7137 32.8924 21.3056 32.8924C23.0493 32.8924 24.7256 31.8618 25.9012 30.5963C28.2749 28.0425 28.5618 25.1738 29.2874 23.5706C29.6306 22.8663 29.9456 22.8319 30.1931 22.8663ZM39.8456 20.3984C40.1943 19.7914 40.1774 19.3162 39.3674 19.3162C38.7543 19.3333 37.6406 19.7685 37.1287 20.1751C37.0106 20.2953 37.0612 20.3583 37.2131 20.2953C37.3143 20.2609 37.4268 20.1922 37.5449 20.1464C38.1243 19.8258 37.8937 20.5014 37.7587 20.7534C37.0612 21.9902 35.8349 23.7252 35.1881 24.5898C34.8787 25.0135 34.5299 25.4372 34.1868 25.798C33.5624 26.3992 32.3306 27.4699 31.4024 27.825C28.3762 28.9759 32.2293 23.7366 32.5499 23.3186C33.2643 22.4082 34.8562 20.8221 35.3343 20.0262C35.6831 19.4192 35.6662 18.944 34.8562 18.944C34.2431 18.9612 33.1293 19.3963 32.6174 19.8029C32.4993 19.9231 32.5499 19.9861 32.7018 19.9231C32.8031 19.8888 32.9156 19.82 33.0337 19.7742C33.6131 19.4536 33.3824 20.1293 33.2474 20.3812C32.5499 21.618 31.3237 23.353 30.6768 24.2176C30.1481 24.9391 29.4956 25.672 29.0006 26.0728C28.8037 26.2389 28.9162 26.3935 29.1187 26.256C29.2987 26.1358 29.5631 25.8667 29.8612 25.546C29.3156 26.6626 28.8599 28.2315 30.3056 28.4147C31.5374 28.5865 32.9999 27.3039 33.9449 26.3591C34.0462 26.256 34.1643 26.1415 34.2824 26.0156C34.3106 25.9869 34.3387 25.9583 34.3668 25.9297C33.8212 27.0462 33.3712 28.6094 34.8168 28.7926C36.3974 29.0102 38.3549 26.8515 39.1143 26.0614C39.2606 25.9125 39.2156 25.6548 38.9681 25.9125C38.5237 26.382 37.0106 27.7849 35.9081 28.2086C32.8818 29.3595 36.7349 24.1203 37.0556 23.7023C37.7699 22.7861 39.3674 21.2 39.8456 20.3984Z" fill="black"/>
</g>
<defs>
<clipPath id="clip0">
<rect width="48" height="48" fill="white"/>
</clipPath>
</defs>
</svg>
