<svg width="48" height="48" viewBox="0 0 48 48" fill="none" xmlns="http://www.w3.org/2000/svg">
<rect width="48" height="48" fill="white"/>
<path d="M9.81512 0.984159C9.7438 0.343749 10.3728 -0.147036 10.9799 0.0753798L19.2211 3.09325L10.95 11.0304L9.81512 0.984159Z" fill="#502D17"/>
<path d="M38.9528 0.984159C39.0249 0.343749 38.3956 -0.147036 37.7895 0.0753798L29.5469 3.09325L37.8198 11.0304L38.9528 0.984159Z" fill="#502D17"/>
<path d="M24.4811 44.5612C35.4652 44.5612 44.3695 36.957 44.3695 27.5768C44.3695 18.1965 35.4652 10.5923 24.4811 10.5923C13.4971 10.5923 4.59277 18.1965 4.59277 27.5768C4.59277 36.957 13.4971 44.5612 24.4811 44.5612Z" fill="#794422"/>
<path d="M40.9383 22.9382C40.9383 35.6053 33.5703 45.8746 24.4815 45.8746C15.3929 45.8746 8.02539 35.6053 8.02539 22.9382C8.02539 10.2694 15.3929 0 24.4811 0C33.5703 0 40.9383 10.2694 40.9383 22.9382Z" fill="#502D17"/>
<path d="M17.8364 23.8308C22.0748 23.8308 25.5107 19.9368 25.5107 15.1334C25.5107 10.33 22.0748 6.43604 17.8364 6.43604C13.598 6.43604 10.1621 10.33 10.1621 15.1334C10.1621 19.9368 13.598 23.8308 17.8364 23.8308Z" fill="white"/>
<path d="M35.9417 32.4161C35.9417 38.2768 30.8099 43.0288 24.4793 43.0288C18.149 43.0288 13.0176 38.2768 13.0176 32.4161C13.0176 26.5535 18.149 21.8015 24.4793 21.8015C30.8099 21.8019 35.9417 26.5535 35.9417 32.4161Z" fill="white"/>
<path d="M38.6532 15.1338C38.6532 19.9372 35.2176 23.8311 30.9782 23.8311C26.7411 23.8311 23.3047 19.9376 23.3047 15.1338C23.3047 10.3296 26.7411 6.4353 30.9782 6.4353C35.2176 6.43494 38.6532 10.3296 38.6532 15.1338Z" fill="white"/>
<path d="M23.8504 18.0972C24.2739 17.931 24.7484 17.9361 25.1678 18.1108C26.5059 18.6644 27.4637 19.3445 28.3056 20.3335C28.5846 20.6617 28.6012 21.1349 28.3717 21.4985C27.4948 22.8888 26.432 23.934 25.0769 24.9704C24.7454 25.2237 24.2809 25.2237 23.9494 24.9704C22.5943 23.9344 21.5315 22.8888 20.6542 21.4985C20.4266 21.1382 20.4465 20.6702 20.7226 20.3452C21.5969 19.3177 22.4502 18.6453 23.8504 18.0972Z" fill="#FF7F2B"/>
<path d="M23.7193 27.0349C23.7193 27.8779 23.0331 28.5613 22.1861 28.5613C21.338 28.5613 20.6514 27.8779 20.6514 27.0349H23.7193Z" fill="#D6D6D6"/>
<path d="M28.3792 27.0349C28.3792 27.8779 27.6926 28.5613 26.8449 28.5613C25.9972 28.5613 25.3105 27.8779 25.3105 27.0349H28.3792Z" fill="#D6D6D6"/>
<path d="M21.389 30.0771C21.389 30.9209 20.702 31.6035 19.8543 31.6035C19.0069 31.6035 18.3203 30.9209 18.3203 30.0771H21.389Z" fill="#D6D6D6"/>
<path d="M26.0488 30.0771C26.0488 30.9209 25.3625 31.6035 24.5152 31.6035C23.6678 31.6035 22.9805 30.9209 22.9805 30.0771H26.0488Z" fill="#D6D6D6"/>
<path d="M30.7099 30.0771C30.7099 30.9209 30.0226 31.6035 29.1756 31.6035C28.3286 31.6035 27.6416 30.9209 27.6416 30.0771H30.7099Z" fill="#D6D6D6"/>
<path d="M19.0588 33.0527C19.0588 33.8968 18.3725 34.5791 17.5248 34.5791C16.6775 34.5791 15.9912 33.8968 15.9912 33.0527H19.0588Z" fill="#D6D6D6"/>
<path d="M23.7193 33.0527C23.7193 33.8968 23.0331 34.5791 22.1861 34.5791C21.338 34.5791 20.6514 33.8968 20.6514 33.0527H23.7193Z" fill="#D6D6D6"/>
<path d="M28.3792 33.0527C28.3792 33.8968 27.6926 34.5791 26.8449 34.5791C25.9972 34.5791 25.3105 33.8968 25.3105 33.0527H28.3792Z" fill="#D6D6D6"/>
<path d="M33.0396 33.0527C33.0396 33.8968 32.3534 34.5791 31.506 34.5791C30.6587 34.5791 29.9717 33.8968 29.9717 33.0527H33.0396Z" fill="#D6D6D6"/>
<path d="M21.389 36.0955C21.389 36.9392 20.702 37.6219 19.8543 37.6219C19.0069 37.6219 18.3203 36.9392 18.3203 36.0955H21.389Z" fill="#D6D6D6"/>
<path d="M26.0488 36.0955C26.0488 36.9392 25.3625 37.6219 24.5152 37.6219C23.6678 37.6219 22.9805 36.9392 22.9805 36.0955H26.0488Z" fill="#D6D6D6"/>
<path d="M30.7099 36.0955C30.7099 36.9392 30.0226 37.6219 29.1756 37.6219C28.3286 37.6219 27.6416 36.9392 27.6416 36.0955H30.7099Z" fill="#D6D6D6"/>
<path d="M23.7193 39.071C23.7193 39.9148 23.0331 40.5974 22.1861 40.5974C21.338 40.5974 20.6514 39.9148 20.6514 39.071H23.7193Z" fill="#D6D6D6"/>
<path d="M28.3792 39.071C28.3792 39.9148 27.6926 40.5974 26.8449 40.5974C25.9972 40.5974 25.3105 39.9148 25.3105 39.071H28.3792Z" fill="#D6D6D6"/>
<path d="M18.8396 18.6021C21.3058 18.6021 23.3051 16.6132 23.3051 14.1597C23.3051 11.7062 21.3058 9.71729 18.8396 9.71729C16.3733 9.71729 14.374 11.7062 14.374 14.1597C14.374 16.6132 16.3733 18.6021 18.8396 18.6021Z" fill="#C2DDEB"/>
<path d="M18.84 16.9394C20.3832 16.9394 21.6341 15.6949 21.6341 14.1598C21.6341 12.6246 20.3832 11.3801 18.84 11.3801C17.2969 11.3801 16.0459 12.6246 16.0459 14.1598C16.0459 15.6949 17.2969 16.9394 18.84 16.9394Z" fill="black"/>
<path d="M19.5437 14.1593C20.1148 14.1593 20.5777 13.6988 20.5777 13.1307C20.5777 12.5626 20.1148 12.1021 19.5437 12.1021C18.9727 12.1021 18.5098 12.5626 18.5098 13.1307C18.5098 13.6988 18.9727 14.1593 19.5437 14.1593Z" fill="white"/>
<path d="M29.7641 18.6031C32.2308 18.6031 34.2304 16.6139 34.2304 14.16C34.2304 11.7061 32.2308 9.7168 29.7641 9.7168C27.2975 9.7168 25.2979 11.7061 25.2979 14.16C25.2979 16.6139 27.2975 18.6031 29.7641 18.6031Z" fill="#C2DDEB"/>
<path d="M29.7638 16.9394C31.307 16.9394 32.5579 15.6949 32.5579 14.1598C32.5579 12.6246 31.307 11.3801 29.7638 11.3801C28.2207 11.3801 26.9697 12.6246 26.9697 14.1598C26.9697 15.6949 28.2207 16.9394 29.7638 16.9394Z" fill="black"/>
<path d="M30.4679 14.1596C31.0392 14.1596 31.5023 13.6989 31.5023 13.1306C31.5023 12.5623 31.0392 12.1016 30.4679 12.1016C29.8967 12.1016 29.4336 12.5623 29.4336 13.1306C29.4336 13.6989 29.8967 14.1596 30.4679 14.1596Z" fill="white"/>
<path d="M33.7492 45.8792C33.7492 47.0505 33.0989 47.9997 32.2992 47.9997C31.4976 47.9997 30.8476 47.0505 30.8476 45.8792C30.8476 47.0505 30.1979 47.9997 29.3964 47.9997C28.5956 47.9997 27.9452 47.0505 27.9452 45.8792C27.9452 47.0505 27.2963 47.9997 26.4944 47.9997C25.694 47.9997 25.0439 47.0505 25.0439 45.8792C25.0439 44.2234 26.9866 42.8823 29.3835 42.8823C31.7796 42.8823 33.7226 44.2234 33.7226 45.8792H33.7492Z" fill="#FF7F2B"/>
<path d="M23.852 45.8792C23.852 47.0505 23.202 47.9997 22.4012 47.9997C21.6 47.9997 20.95 47.0505 20.95 45.8792C20.95 47.0505 20.3011 47.9997 19.4992 47.9997C18.698 47.9997 18.0495 47.0505 18.0495 45.8792C18.0495 47.0505 17.3991 47.9997 16.5979 47.9997C15.7971 47.9997 15.1475 47.0505 15.1475 45.8792C15.1475 44.2234 17.0901 42.8823 19.4866 42.8823C21.8835 42.8823 23.8273 44.2234 23.8273 45.8792H23.852Z" fill="#FF7F2B"/>
</svg>
