<svg width="48" height="48" viewBox="0 0 48 48" fill="none" xmlns="http://www.w3.org/2000/svg">
<g clip-path="url(#clip0)">
<path fill-rule="evenodd" clip-rule="evenodd" d="M6.46334 8.74135C6.93479 7.42455 7.40198 6.26129 7.83516 5.30873C8.26673 4.35473 9.46372 5.7578 9.53938 7.52089C10.2412 7.33067 10.9129 7.22232 11.5279 7.22232C15.0298 7.22232 16.4923 9.23944 16.4923 11.9174C16.4923 16.5053 10.5466 22.753 5.45743 23.7511C4.90755 29.1775 5.44334 33.0919 5.72047 34.2441C6.21213 36.2882 3.34672 35.7979 2.68059 32.0895C2.37157 29.5528 2.47772 26.6519 2.84573 23.6814C0.384257 22.8025 0.405834 19.4523 1.14199 20.1928C1.90338 20.9587 2.66014 21.1934 3.20367 21.2325C3.7867 17.7494 4.66886 14.2813 5.60697 11.2955C3.68769 12.5648 2.12623 14.0926 1.14199 15.1874C0.547858 15.8482 -0.457598 14.0265 0.233653 13.0783C1.47046 11.8341 3.91996 10.02 6.46334 8.74135ZM9.08297 9.54372C7.41939 13.5131 6.43057 17.2968 5.8703 20.6658C9.88189 19.0567 14.9727 14.3831 14.9727 10.8428C14.9727 9.61298 13.8244 8.9521 12.4477 8.9521C11.288 8.9521 10.1584 9.17455 9.08297 9.54372ZM18.7603 14.6816C16.9139 14.6816 14.7711 17.7117 14.2586 20.4316C13.6001 20.4493 13.2134 20.5344 13.3729 20.8302C13.4608 20.9933 13.7491 21.1588 14.1523 21.2934C14.147 21.3911 14.1444 21.4879 14.1444 21.5835C14.1444 22.2461 14.293 23.1004 14.6769 23.883C15.2419 25.0351 16.3168 26.0315 18.1776 26.0315C19.9579 26.0315 21.4341 24.5147 22.3749 23.2094C22.7711 24.1228 24.4693 24.7693 24.4693 24.0945C24.4693 18.8054 27.1622 15.1748 27.7142 15.1748C27.8743 15.1748 27.7556 15.5274 27.5894 16.0212C27.3067 16.8612 26.8864 18.11 27.4665 18.7272C28.1396 19.5421 29.6209 18.3464 30.6661 17.4525C30.486 18.2286 30.3924 18.9501 30.3924 19.5204C30.3924 22.0605 32.1234 22.7731 33.3288 22.7731C35.3712 22.7731 37.8106 19.5416 38.8183 17.5227C38.6885 18.1278 38.6125 18.6799 38.6125 19.1469C38.6125 20.3825 40.1778 21.3709 41.2632 21.3709C41.7742 21.3709 42.5914 20.0353 43.3676 18.4858C42.3592 23.0068 41.3523 27.2671 39.8008 27.2671C39.1438 27.2671 39.081 23.7386 40.1435 22.6697C41.2061 21.6008 38.8467 21.2042 37.6699 22.3881C36.4988 23.5662 36.2931 28.9969 40.6406 28.9969C43.1706 28.9969 44.3811 23.7474 45.5603 18.6338L45.5603 18.6337C46.2769 15.5263 46.9819 12.469 47.9644 10.6704C48.2957 10.067 46.2163 8.7797 45.8221 9.65896C45.7661 9.77574 45.7108 9.89746 45.6562 10.0238L45.6564 10.021L45.6389 10.0642C45.5889 10.1812 45.5394 10.3021 45.4905 10.4267C44.7307 12.2735 41.5825 19.7963 40.7205 19.7963C39.7379 19.7963 42.9485 12.6185 43.5769 11.2278C43.8969 10.521 41.6403 9.52678 41.3261 10.3026L41.2063 10.6004C40.8175 11.5662 40.3622 12.6974 39.9425 13.8459C39.9759 13.7431 39.995 13.6875 39.995 13.6875C39.995 13.6875 36.049 21.4055 33.5002 21.2157C31.3293 21.2157 33.9972 12.9289 36.4994 12.9289C37.1278 12.9289 37.2 14.1663 36.5851 14.8828C36.3503 15.1564 37.1621 15.9574 37.7163 15.1931C38.8931 13.561 37.7163 11.4405 35.334 11.4405C33.6814 11.4405 32.3813 13.0303 31.5303 14.897L31.4362 15.0128L31.4362 15.0129C30.8311 15.7583 29.8994 16.9059 29.6853 16.8318C29.5085 16.7142 29.7005 16.2728 29.9308 15.7435L29.9308 15.7435C30.1801 15.1704 30.4744 14.4941 30.3936 14.0144C30.2835 13.2549 29.6076 12.7159 28.8564 12.7894C27.7442 12.9478 26.271 15.0662 26.271 15.0662C26.3025 14.9731 26.3365 14.8822 26.37 14.7928L26.37 14.7927L26.37 14.7927L26.3701 14.7925L26.3701 14.7924L26.3701 14.7923L26.3702 14.7923L26.3702 14.7922C26.4736 14.5158 26.5714 14.2546 26.5714 13.9934C26.5714 13.4745 24.7954 12.1482 24.473 13.1065C24.2424 13.7918 23.7226 16.0652 23.2497 18.2273C22.4601 20.4057 20.3347 24.6811 17.6292 24.6811C16.3673 24.6811 16.0999 23.2563 16.4018 21.5809C16.8304 21.5593 17.2526 21.4902 17.6292 21.3584C19.2123 20.8045 22.1195 19.2733 22.1195 17.101C22.1195 14.9288 19.6744 14.6816 18.7603 14.6816ZM19.9372 16.2907C20.7359 16.2907 19.4958 19.9986 16.6924 20.4089C17.3392 18.3373 18.6647 16.2907 19.9372 16.2907ZM40.4707 37.1582C41.1435 36.6079 41.9599 34.8343 41.6407 33.5245C42.2147 33.3904 42.8417 33.3055 43.4647 33.2717C42.8136 34.6928 42.3548 36.2444 42.4622 37.5434C42.6538 38.6849 43.9497 38.9653 43.7872 38.3302C43.6619 37.8409 43.4729 35.7829 44.6944 33.2732C46.0259 33.3532 47.1436 33.6983 47.399 34.3307C47.4122 34.5049 47.9086 33.8832 48 33.3558C47.9122 32.7737 46.7357 32.2606 45.3924 32.0426C45.6286 31.6798 45.8962 31.3117 46.1992 30.9413C46.6662 30.291 45.9259 29.4258 45.6373 29.7641C45.1887 30.2874 44.6544 31.0504 44.1526 31.9321C43.4537 31.9224 42.7845 32.0087 42.2698 32.2216C42.0019 32.3378 41.6619 32.5945 41.3505 32.8721C41.2275 32.6982 41.0696 32.5438 40.8716 32.416C39.8936 31.7846 39.4236 33.7643 39.7629 33.7956C41.3688 33.9443 40.2318 37.1989 39.2845 36.9801C38.8394 36.8772 38.7206 35.8005 38.7198 34.6879C39.1095 33.6105 39.3975 32.6452 39.4403 31.9951C39.4964 31.1433 37.9014 31.0846 37.8502 31.8614C37.7847 32.8556 37.2433 34.4331 36.6516 36.0617C35.8051 37.0263 35.0678 37.4312 35.1346 36.6739C35.1712 36.5214 35.2139 36.372 35.2653 36.2244C35.829 34.3351 36.0893 33.8164 36.3748 33.2477L36.3748 33.2476L36.3748 33.2476L36.3748 33.2476L36.3749 33.2475C36.5039 32.9904 36.6381 32.723 36.8078 32.3142C36.9259 32.0296 35.8974 31.0959 35.6367 31.6368C35.522 31.8749 35.2911 32.4034 35.0277 33.0478L34.9918 33.0853C34.5977 33.4974 33.991 34.1318 33.8678 34.0775C33.7688 33.9994 33.9037 33.7474 34.0655 33.4453C34.2408 33.118 34.4475 32.732 34.4228 32.4441C34.3942 31.9893 34.0202 31.6377 33.572 31.645C32.9061 31.6851 31.932 32.868 31.932 32.868C31.9552 32.8143 31.9797 32.7621 32.0039 32.7108L32.0039 32.7107L32.0039 32.7107L32.0039 32.7106L32.004 32.7106C32.0785 32.552 32.149 32.402 32.1616 32.2474C32.1866 31.9403 31.1993 31.0697 30.9623 31.6214C30.8553 31.8703 30.6498 32.4877 30.4162 33.2252C29.8657 34.2393 27.9955 37.4936 26.7173 37.3984C25.4281 37.3984 27.0124 32.4773 28.4983 32.4773C28.8715 32.4773 28.9144 33.2122 28.5492 33.6377C28.4097 33.8002 28.8919 34.2758 29.2209 33.8219C29.9198 32.8527 29.2209 31.5935 27.8063 31.5935C26.6934 31.5935 25.8497 32.8075 25.3588 34.0988C24.9551 34.7339 24.4884 35.3099 24.0425 35.7662C24.179 35.367 24.2248 34.9448 24.1703 34.5031C24.1186 34.0841 23.9375 33.8392 23.7008 33.6753C23.4496 33.5012 23.1195 33.4075 22.7562 33.3373C22.6394 33.3147 22.5272 33.296 22.4148 33.2771C22.351 33.2664 22.2872 33.2557 22.2223 33.2443C22.0506 33.2141 21.877 33.1797 21.7235 33.1302C21.5724 33.0816 21.414 33.0104 21.2925 32.8906C21.1606 32.7606 21.0895 32.5904 21.0933 32.3893C21.0994 32.072 21.2546 31.6261 21.4709 31.1812C21.6927 30.7247 21.9994 30.2279 22.3471 29.799C22.6908 29.375 23.0937 28.9935 23.5142 28.7983C23.7276 28.6993 23.9578 28.6426 24.1926 28.6644C24.4318 28.6867 24.6544 28.7886 24.8491 28.9709C25.0672 29.1751 25.1219 29.4535 25.1093 29.7074C25.0967 29.9604 25.0169 30.2272 24.9191 30.4685C24.753 30.8786 24.5133 31.2676 24.3602 31.4841C24.5292 31.6023 24.8601 31.7035 25.0496 31.525C26.7964 30.3768 26.6775 25.9906 22.9322 27.4503C21.9894 27.8177 21.2002 28.6345 20.8221 29.0806C20.2996 29.6968 19.8953 30.5642 19.6698 31.3505C19.4398 32.1523 19.4641 32.8364 19.7687 33.2491C19.9161 33.449 20.1511 33.5883 20.4554 33.6887C20.7601 33.7893 21.1046 33.8416 21.4458 33.8877L21.5453 33.9011C21.8394 33.9403 22.1424 33.9807 22.3681 34.0567C22.4953 34.0996 22.6345 34.1648 22.7366 34.2777C22.8515 34.4046 22.8965 34.5663 22.8691 34.7407C22.7704 35.3694 21.832 37.4701 18.6416 37.4845C18.3725 37.4857 18.19 37.6001 18.0716 37.764C17.9473 37.9362 17.8868 38.1754 17.9056 38.4162C17.9245 38.6571 18.02 38.8696 18.1694 39.0023C18.3101 39.1274 18.5271 39.2077 18.8557 39.1391C20.2148 38.8553 21.4055 38.3915 22.3148 37.7912C23.2557 37.2087 24.3677 36.1316 25.0072 35.2846C24.918 35.6993 24.8717 36.0828 24.8717 36.3917C24.8717 37.9001 25.8997 38.3233 26.6155 38.3233C27.7299 38.3233 29.0434 36.7031 29.7135 35.5101C29.4332 36.4415 29.2192 37.1732 29.2158 37.1971C29.0483 37.8674 30.3921 38.5951 30.4304 38.1248C30.6854 34.9943 32.4543 32.9752 32.781 33.0018C32.8757 33.0095 32.7885 33.2125 32.6664 33.4967C32.4585 33.9803 32.1496 34.6992 32.4632 35.0925C32.8334 35.6231 33.8148 34.9306 34.4788 34.4484C34.0307 35.6473 33.647 36.8438 33.7099 37.2388C33.8066 37.8465 34.3252 38.2303 34.6499 38.2549C34.6601 38.2562 34.6707 38.2568 34.6817 38.2568C35.1463 38.2568 35.6421 37.969 36.1103 37.5455C35.477 39.2948 34.937 40.9135 35.0357 41.7194C35.1134 42.354 36.1779 42.4101 36.1341 41.746C36.0985 41.2057 36.7548 39.603 37.4922 37.8021L37.4923 37.802L37.4923 37.8019C37.6093 37.5162 37.7283 37.2256 37.8469 36.9334C38.7396 38.4079 39.9162 37.6118 40.4707 37.1582ZM36.687 31.1213C36.9953 31.1213 37.282 30.9977 37.5505 30.6217C37.7356 30.3627 37.8622 29.9194 37.6031 29.7343C37.2904 29.511 36.7943 29.5379 36.5325 29.8351C36.0346 30.4004 36.273 31.1213 36.687 31.1213Z" fill="#9E66BF"/>
</g>
<defs>
<clipPath id="clip0">
<rect width="48" height="48" fill="white"/>
</clipPath>
</defs>
</svg>
