<svg width="48" height="48" viewBox="0 0 48 48" fill="none" xmlns="http://www.w3.org/2000/svg">
<rect width="48" height="48" fill="white"/>
<mask id="mask0" mask-type="alpha" maskUnits="userSpaceOnUse" x="0" y="0" width="48" height="48">
<circle cx="24" cy="24" r="24" fill="#DD363C"/>
</mask>
<g mask="url(#mask0)">
<circle cx="24" cy="24" r="24" fill="#DD363C"/>
<path d="M48 22L37 11H20L9.5 19V27.5H7L5 30L23 48H48V22Z" fill="#B13134"/>
<path d="M39.4166 25.5978V24.527H43.1941C43.0623 19.7374 41.154 15.1679 37.8401 11.7072L34.9847 14.5626L34.2411 13.819L37.0668 10.9635C33.6686 7.75716 29.2142 5.90559 24.5444 5.75826V9.50606H23.4736V5.72852C18.7005 5.83085 14.1341 7.69556 10.6537 10.9635L13.5092 13.819L12.7358 14.5626L9.88037 11.7072C6.57498 15.1708 4.67704 19.7408 4.55611 24.527H8.30391V25.5978H4.52637V30H43.1941V25.5978H39.4166ZM11.6055 24.9434C11.5237 23.2813 11.7804 21.62 12.36 20.0601C12.9397 18.5002 13.8302 17.0743 14.9776 15.8691C16.125 14.6638 17.5053 13.7042 19.0348 13.0485C20.5643 12.3928 22.211 12.0547 23.8751 12.0547C25.5392 12.0547 27.186 12.3928 28.7155 13.0485C30.2449 13.7042 31.6252 14.6638 32.7726 15.8691C33.92 17.0743 34.8106 18.5002 35.3902 20.0601C35.9699 21.62 36.2266 23.2813 36.1447 24.9434H11.6055Z" fill="white"/>
</g>
</svg>
