<svg width="48" height="48" viewBox="0 0 48 48" fill="none" xmlns="http://www.w3.org/2000/svg">
<mask id="mask0" mask-type="alpha" maskUnits="userSpaceOnUse" x="5" y="0" width="39" height="48">
<path d="M6.48867 44.2304L5.00173 4.61014C4.95262 3.30164 5.95593 2.1927 7.26281 2.11102L40.9626 0.00478164C42.2929 -0.0783584 43.4386 0.932617 43.5218 2.26286C43.5249 2.31298 43.5265 2.36318 43.5265 2.4134V45.5867C43.5265 46.9195 42.446 48 41.1132 48C41.077 48 41.0409 47.9992 41.0049 47.9976L8.79201 46.5508C7.53744 46.4944 6.53577 45.4854 6.48867 44.2304Z" fill="white"/>
</mask>
<g mask="url(#mask0)">
<path d="M6.48867 44.2304L5.00173 4.61014C4.95262 3.30164 5.95593 2.1927 7.26281 2.11102L40.9626 0.00478164C42.2929 -0.0783584 43.4386 0.932617 43.5218 2.26286C43.5249 2.31298 43.5265 2.36318 43.5265 2.4134V45.5867C43.5265 46.9195 42.446 48 41.1132 48C41.077 48 41.0409 47.9992 41.0049 47.9976L8.79201 46.5508C7.53744 46.4944 6.53577 45.4854 6.48867 44.2304Z" fill="#FF4785"/>
<path d="M33.4486 5.89996L33.6787 0.363628L38.3067 0L38.5061 5.70943C38.5131 5.90813 38.3576 6.07484 38.1589 6.08178C38.0738 6.08475 37.9904 6.05747 37.9236 6.00479L36.1389 4.59886L34.0258 6.20174C33.8674 6.3219 33.6416 6.29089 33.5214 6.13249C33.4708 6.06581 33.4451 5.98359 33.4486 5.89996Z" fill="white"/>
<path d="M27.5294 18.0918C27.5294 19.0307 33.8538 18.5807 34.7028 17.9212C34.7028 11.5274 31.2721 8.16753 24.9897 8.16753C18.7074 8.16753 15.1875 11.5797 15.1875 16.6978C15.1875 25.612 27.2175 25.7826 27.2175 30.6449C27.2175 32.0098 26.5492 32.8202 25.0788 32.8202C23.1629 32.8202 22.4055 31.8417 22.4946 28.5149C22.4946 27.7932 15.1875 27.5682 14.9647 28.5149C14.3974 36.577 19.4203 38.9024 25.1679 38.9024C30.7374 38.9024 35.1038 35.9337 35.1038 30.5596C35.1038 21.0057 22.8956 21.2616 22.8956 16.5272C22.8956 14.6079 24.3214 14.352 25.1679 14.352C26.0591 14.352 27.6631 14.5091 27.5294 18.0918Z" fill="white"/>
</g>
</svg>
