<svg width="72" height="72" viewBox="0 0 72 72" fill="none" xmlns="http://www.w3.org/2000/svg">
<rect width="72" height="72" fill="white"/>
<path d="M36 8C20.56 8 8 20.56 8 36C8 51.44 20.56 64 36 64C51.44 64 64 51.44 64 36C64 20.56 51.44 8 36 8ZM36 18C41.5 18 46 22.5 46 28C46 33.5 41.5 38 36 38C30.5 38 26 33.5 26 28C26 22.5 30.5 18 36 18ZM28 42H44C49.46 42 54.92 48.4225 54.9923 53.8675C50.5973 58.8475 43.1821 62 36 62C28.8179 62 21.4026 58.8475 17.0077 53.8675C17.0802 48.4225 22.5402 42 28 42Z" fill="#9E66BF"/>
</svg>
