<svg width="51" height="42" viewBox="0 0 51 42" fill="none" xmlns="http://www.w3.org/2000/svg">
<path d="M22.3297 41.7935C11.0859 41.7935 1.97107 41.1726 1.97107 40.4067C1.97107 39.6406 11.0859 39.0197 22.3297 39.0197C33.5736 39.0197 42.6885 39.6406 42.6885 40.4067C42.6885 41.1726 33.5736 41.7935 22.3297 41.7935Z" fill="#390156"/>
<path d="M50.3345 9.6991C50.1121 8.97154 49.4518 8.48262 48.6912 8.48262C48.4647 8.48262 48.243 8.52713 48.0323 8.61488C47.4927 8.83953 46.6511 9.10243 45.5992 9.15131C43.473 7.60467 38.3173 3.86846 35.2584 1.77228C35.2584 1.77228 35.6869 3.01814 36.2787 5.34572C36.2787 5.34572 31.4419 2.61473 28.2218 0.516418C28.2218 0.516418 29.425 2.97301 29.5246 3.76846C29.5246 3.76846 25.6949 3.10752 20.095 1.89466C20.095 1.89466 24.2604 4.22325 25.2862 5.62524C25.2862 5.62524 20.2756 5.28584 14.374 4.94843C14.374 4.94843 17.3653 6.46319 18.8246 7.68655C18.8246 7.68655 13.475 8.47375 9.39972 8.67301C9.39972 8.67301 12.4222 11.0381 13.6421 12.1834C13.6421 12.1834 8.55365 14.1947 2.47686 17.7269C2.47686 17.7269 5.67902 17.8857 7.98772 18.6225C7.98772 18.6225 5.2031 21.0834 0.227661 26.7259C0.227661 26.7259 3.42269 26.6081 6.00055 26.2592C6.00055 26.2592 3.98187 29.3872 1.47177 35.0063C1.47177 35.0063 3.19355 33.9157 4.86095 33.5208C4.86095 33.5208 5.03984 39.8283 8.50789 40.8387L8.51077 40.8343C8.68066 40.8879 8.8428 40.9067 8.98356 40.9067C9.15295 40.9067 9.32997 40.8807 9.50986 40.8293C10.6105 40.5162 11.4434 39.4361 12.4079 38.1856C12.7635 37.7246 13.1302 37.2497 13.5247 36.7909C13.6343 37.1335 13.7766 37.5424 13.9472 37.9552C14.5798 39.4856 15.2575 40.2295 16.0189 40.2295C16.0769 40.2295 16.1357 40.2249 16.1933 40.2159C17.1653 40.0633 18.0664 38.1891 18.8196 36.376C19.2036 35.4519 19.5414 34.529 19.7711 33.8752C19.7983 33.877 19.825 33.8779 19.8521 33.88C22.1916 34.0626 23.6341 36.3767 24.7932 38.2361C25.6668 39.6376 26.3568 40.7446 27.3201 40.8506C27.3877 40.8581 27.4552 40.8619 27.5208 40.8619C28.9931 40.8619 29.5105 39.1523 30.1657 36.9881C30.2092 36.8441 30.2538 36.6967 30.2996 36.5467C30.4326 36.8079 30.5773 37.0809 30.7316 37.3553C31.8082 39.27 32.7613 40.2075 33.6454 40.2218L33.6704 40.222C34.4037 40.222 34.8872 39.7319 35.1079 38.7654C35.2728 38.0435 35.3079 37.0515 35.3486 35.9028C35.4425 33.2532 35.5718 29.6354 37.3831 26.5261C38.7223 25.6871 40.1997 24.9229 41.6497 24.1731C45.0252 22.4275 48.2138 20.7787 49.8132 18.2771C50.6131 17.026 51.0096 15.4909 50.9916 13.7141C50.9756 12.1204 50.6255 10.6511 50.3345 9.6991Z" fill="#2B023F"/>
<path d="M19.2129 33.8546C16.7873 33.8546 15.1905 34.9827 13.9133 36.3557C14.2507 37.4751 15.0985 39.8816 16.1157 39.7219C17.1071 39.5661 18.5756 35.753 19.2482 33.8552C19.2366 33.8551 19.2245 33.8546 19.2129 33.8546Z" fill="#9E66BF"/>
<path d="M34.5487 28.6847C32.2892 30.8948 31.2298 33.6108 30.515 35.855C31.2575 37.3909 32.5568 39.7041 33.6534 39.7219C35.8607 39.7574 33.7099 32.8823 36.5127 27.0971C35.7917 27.5942 35.1265 28.1196 34.5487 28.6847Z" fill="#9E66BF"/>
<path d="M48.908 9.79996C48.6832 10.009 48.5693 10.252 48.6536 10.3425C48.7378 10.4331 48.9884 10.337 49.213 10.128C49.4378 9.91897 49.5515 9.67608 49.4674 9.58544C49.3831 9.49493 49.1326 9.59094 48.908 9.79996ZM42.9752 11.5142C41.812 11.207 40.6944 11.6191 40.4787 12.4349C40.2632 13.2509 41.0314 14.1613 42.1945 14.4686C43.3577 14.776 44.4753 14.3637 44.691 13.5479C44.9065 12.7321 44.1383 11.8215 42.9752 11.5142ZM50.121 16.4294C49.9497 16.9755 49.7122 17.5068 49.3919 18.0077C46.6209 22.3418 38.3748 24.2427 34.1991 28.3272C29.076 33.3384 29.9826 40.6408 27.3748 40.3537C25.5395 40.1515 24.1628 33.7148 19.891 33.3813C13.4425 32.878 12.0268 39.5931 9.37299 40.3485C6.71913 41.104 7.10391 34.2945 8.47466 31.2796C9.68502 28.6171 11.8563 24.8847 15.1751 25.7411C17.3712 26.3078 14.8208 29.9915 14.8208 29.9915C14.8208 29.9915 19.4653 30.2925 22.3298 26.0245C24.2322 23.1899 30.5349 13.4933 36.8523 21.8809C36.8523 21.8809 34.3773 14.8413 35.9828 11.417C37.3003 8.60711 40.3323 8.66311 43.0917 9.3778C45.354 9.96373 47.1467 9.52519 48.2244 9.07652C48.4349 8.98889 48.6547 8.96539 48.8636 8.99552C48.4657 9.01452 47.8539 9.22591 47.5 10.2476C46.9716 11.773 49.8454 10.6005 50.4602 12.9915C50.4602 12.9915 50.6494 16.6207 47.6451 16.1749L47.7624 15.3878C47.7624 15.3878 46.7952 16.01 47.4865 17.2396L47.5972 16.4964C48.2024 16.7137 49.058 16.8195 50.121 16.4294ZM50.4604 12.9915H50.4602V12.9914L50.4604 12.9915Z" fill="#D6B5E5"/>
<path d="M34.5487 28.6847C32.2699 30.9137 31.2118 33.6571 30.4968 35.9123C30.8969 36.7289 31.7302 38.0362 31.7302 38.0362C31.6866 33.5106 35.4745 28.2576 36.1556 27.35C35.5719 27.7719 35.0296 28.2142 34.5487 28.6847Z" fill="#5C007B"/>
<path d="M13.8561 36.4173C14.0785 37.0696 14.5261 38.0362 14.5261 38.0362C14.5261 38.0362 15.8816 34.4889 19.1754 33.8552C16.735 33.8672 15.1362 35.0238 13.8561 36.4173Z" fill="#5C007B"/>
<path d="M9.37299 40.3485C12.0268 39.5931 13.4425 32.878 19.891 33.3813C24.1628 33.7148 25.5395 40.1515 27.3748 40.3537C27.3748 40.3537 26.3856 38.3331 25.5887 35.7828C24.7917 33.2325 22.076 30.6823 19.6085 30.6823C17.1409 30.6823 14.3449 32.0107 12.7843 35.3396C10.4335 40.3537 9.37299 40.3485 9.37299 40.3485Z" fill="#C393DB"/>
<path d="M18.8246 7.68654C17.0045 7.92969 12.0143 8.41986 9.1437 8.56024C9.1437 8.56024 9.79688 8.98391 10.3604 9.43382C14.1874 9.15942 19.1551 7.91206 18.8246 7.68654ZM13.642 12.1834C11.9387 12.9085 7.15115 14.8019 2.21959 17.8037C2.21959 17.8037 2.87102 17.7466 3.4812 17.8037C8.94731 14.7473 13.8415 12.3577 13.642 12.1834ZM25.2862 5.62524C23.4332 5.50373 18.2328 5.09831 14.1199 4.86304C14.1199 4.86304 15.1716 5.35246 16.1436 5.91126C21.0836 6.20366 25.683 5.95301 25.2862 5.62524ZM7.98772 18.6225C6.04755 20.114 3.24593 23.0553 0.0122681 26.8616C0.0122681 26.8616 0.383676 26.7201 0.65395 26.7075C5.14972 21.6745 8.13361 18.6631 7.98772 18.6225ZM45.5112 9.08592C45.5112 9.08592 39.0241 4.34812 35.0995 1.65864C35.0995 1.65864 35.4193 2.24044 35.679 3.13477C39.3376 5.67449 45.5112 9.08592 45.5112 9.08592ZM6.00055 26.2592C4.74781 27.7773 3.06979 31.1765 1.47177 35.0063C1.47177 35.0063 1.4939 34.9925 1.53353 34.9682C3.85548 29.9034 6.06418 26.2508 6.00055 26.2592ZM36.2787 5.34571C34.8495 4.52776 30.5855 1.96391 28.0859 0.335144C28.0859 0.335144 28.5707 1.2291 28.9083 2.01079C32.037 3.98059 36.3781 5.71024 36.2787 5.34571ZM22.3974 3.29391C21.1913 2.50784 19.8421 1.7879 19.8421 1.7879C24.1128 2.71273 28.2265 3.5338 29.5246 3.76845C29.6716 4.15398 26.5262 4.14911 22.3974 3.29391Z" fill="#9E66BF"/>
<path d="M28.7253 5.55145L32.9767 8.26157L35.7346 8.0363L28.7253 5.55145Z" fill="#5C007B"/>
<path d="M35.7346 8.0363L28.7253 5.55145L31.9807 7.12747C33.1469 7.69214 34.4202 8.00179 35.7155 8.0358L35.7346 8.0363Z" fill="#9E66BF"/>
<path d="M21.2873 9.49805L28.0208 11.2116L30.957 10.242L21.2873 9.49805Z" fill="#5C007B"/>
<path d="M30.957 10.242L21.2873 9.49805L27.2311 10.4828C28.0581 10.605 28.8982 10.613 29.7274 10.5064L30.957 10.242Z" fill="#9E66BF"/>
<path d="M34.7301 11.773L33.2932 12.8559L29.1692 12.7031L34.7301 11.773Z" fill="#5C007B"/>
<path d="M34.7301 11.773L29.1692 12.7031L31.4321 12.6338C32.2116 12.61 32.9814 12.4532 33.7082 12.1704L34.7301 11.773Z" fill="#9E66BF"/>
<path d="M23.7647 12.8559L21.4617 14.3906L15.0789 13.7859L23.7647 12.8559Z" fill="#5C007B"/>
<path d="M23.7647 12.8559L15.0789 13.7859L19.9275 13.7082C21.0633 13.6899 22.1865 13.4698 23.245 13.058L23.7647 12.8559Z" fill="#9E66BF"/>
<path d="M33.2932 15.3911L30.957 16.6911L24.6073 16.3213L33.2932 15.3911Z" fill="#5C007B"/>
<path d="M33.2932 15.3911L24.6073 16.3213L29.5375 16.2422C30.6193 16.2248 31.6893 16.015 32.6976 15.6229L33.2932 15.3911Z" fill="#9E66BF"/>
<path d="M24.5222 18.1342L22.8938 20.7958L14.7443 22.7785L24.5222 18.1342Z" fill="#5C007B"/>
<path d="M14.7443 22.7785L24.5222 18.1342L23.2647 19.1288C22.5194 19.7182 21.6866 20.1875 20.7962 20.5198L14.7443 22.7785Z" fill="#9E66BF"/>
<path d="M8.03125 22.535L14.3404 19.7729L15.7757 17.0107L8.03125 22.535Z" fill="#5C007B"/>
<path d="M8.03125 22.535L15.7757 17.0107L15.7542 17.0431C14.9535 18.2541 13.8753 19.2564 12.609 19.9668L8.03125 22.535Z" fill="#9E66BF"/>
<path d="M10.8896 23.085L10.6406 25.8483L7.01813 30.3667L10.8896 23.085Z" fill="#5C007B"/>
<path d="M7.01813 30.3667L10.8896 23.085C10.6793 24.3515 10.204 25.5594 9.49472 26.6296L7.01813 30.3667Z" fill="#9E66BF"/>
<path d="M42.691 12.4344C42.6857 12.7363 42.3998 12.9762 42.0525 12.97C41.7052 12.964 41.4279 12.7141 41.4333 12.4122C41.4387 12.1102 41.7246 11.8703 42.0719 11.8764C42.4191 11.8826 42.6964 12.1324 42.691 12.4344Z" fill="white"/>
<path fill-rule="evenodd" clip-rule="evenodd" d="M41.4993 3.51248C34.5343 -0.194394 31.6554 -1.21792 24.5427 3.51248C28.3373 4.58126 30.7082 7.04632 31.6554 10.9077C42.8613 8.44878 46.1426 5.98372 41.4993 3.51248Z" fill="url(#hat-gradient)" stroke="#2B023F" stroke-width="0.56255"/>
<path d="M25.5022 6.31304C26.814 6.31304 27.8774 5.24962 27.8774 3.93783C27.8774 2.62604 26.814 1.56262 25.5022 1.56262C24.1904 1.56262 23.127 2.62604 23.127 3.93783C23.127 5.24962 24.1904 6.31304 25.5022 6.31304Z" fill="white" stroke="#2B023F" stroke-width="0.56255"/>
<path fill-rule="evenodd" clip-rule="evenodd" d="M35.6689 14.7107C36.7201 13.2117 39.7409 9.65114 43.8967 9.49823C48.0525 9.34532 45.8761 3.51743 43.4225 3.51743C40.9688 3.51743 31.246 8.86485 30.6903 11.7506C30.1346 14.6363 34.6177 16.2098 35.6689 14.7107Z" fill="white" stroke="#2B023F" stroke-width="0.56255"/>
<defs>
<linearGradient id="hat-gradient" x1="33.0758" y1="9.87818" x2="34.7793" y2="-0.248454" gradientUnits="userSpaceOnUse">
<stop stop-color="#E74E3E"/>
<stop offset="1" stop-color="#F36C5E"/>
</linearGradient>
</defs>
</svg>
