<svg width="51" height="43" viewBox="0 0 51 43" fill="none" xmlns="http://www.w3.org/2000/svg">
<path d="M22.3175 42.4584C11.0736 42.4584 1.9588 41.8374 1.9588 41.0715C1.9588 40.3054 11.0736 39.6845 22.3175 39.6845C33.5613 39.6845 42.6763 40.3054 42.6763 41.0715C42.6763 41.8374 33.5613 42.4584 22.3175 42.4584Z" fill="#BFB3C5"/>
<path d="M50.3222 10.364C50.0998 9.6364 49.4395 9.14748 48.6789 9.14748C48.4524 9.14748 48.2308 9.19198 48.02 9.27974C47.4804 9.50438 46.6389 9.76728 45.5869 9.81616C43.4607 8.26953 38.305 4.53332 35.2461 2.43714C35.2461 2.43714 35.6746 3.683 36.2665 6.01058C36.2665 6.01058 31.4297 3.27958 28.2095 1.18127C28.2095 1.18127 29.4127 3.63787 29.5124 4.43331C29.5124 4.43331 25.6826 3.77238 20.0828 2.55952C20.0828 2.55952 24.2481 4.8881 25.274 6.2901C25.274 6.2901 20.2633 5.95069 14.3618 5.61329C14.3618 5.61329 17.353 7.12805 18.8123 8.35141C18.8123 8.35141 13.4627 9.1386 9.38745 9.33787C9.38745 9.33787 12.41 11.703 13.6298 12.8483C13.6298 12.8483 8.54138 14.8596 2.46459 18.3918C2.46459 18.3918 5.66675 18.5506 7.97545 19.2874C7.97545 19.2874 5.19083 21.7482 0.215393 27.3907C0.215393 27.3907 3.41043 27.273 5.98828 26.924C5.98828 26.924 3.9696 30.0521 1.4595 35.6712C1.4595 35.6712 3.18128 34.5806 4.84868 34.1857C4.84868 34.1857 5.02757 40.4931 8.49562 41.5036L8.4985 41.4992C8.66839 41.5527 8.83053 41.5716 8.97129 41.5716C9.14068 41.5716 9.3177 41.5456 9.49759 41.4942C10.5982 41.181 11.4311 40.101 12.3956 38.8505C12.7513 38.3894 13.1179 37.9145 13.5124 37.4557C13.6221 37.7984 13.7643 38.2073 13.935 38.6201C14.5675 40.1505 15.2452 40.8944 16.0067 40.8944C16.0647 40.8944 16.1234 40.8898 16.1811 40.8808C17.153 40.7281 18.0541 38.854 18.8073 37.0408C19.1913 36.1167 19.5291 35.1939 19.7589 34.5401C19.786 34.5418 19.8127 34.5427 19.8399 34.5448C22.1793 34.7275 23.6218 37.0416 24.7809 38.901C25.6545 40.3025 26.3446 41.4094 27.3078 41.5155C27.3754 41.523 27.4429 41.5267 27.5086 41.5267C28.9808 41.5267 29.4982 39.8172 30.1534 37.653C30.1969 37.509 30.2415 37.3616 30.2873 37.2116C30.4203 37.4727 30.5651 37.7457 30.7193 38.0201C31.7959 39.9348 32.749 40.8724 33.6331 40.8867L33.6581 40.8869C34.3914 40.8869 34.875 40.3967 35.0956 39.4303C35.2605 38.7083 35.2956 37.7164 35.3364 36.5676C35.4303 33.918 35.5595 30.3002 37.3708 27.1909C38.71 26.352 40.1874 25.5878 41.6374 24.838C45.013 23.0923 48.2015 21.4436 49.8009 18.942C50.6008 17.6909 50.9974 16.1557 50.9794 14.3789C50.9634 12.7853 50.6132 11.3159 50.3222 10.364Z" fill="#2B023F"/>
<path d="M19.2006 34.5195C16.775 34.5195 15.1782 35.6476 13.901 37.0206C14.2384 38.1399 15.0862 40.5465 16.1034 40.3867C17.0948 40.231 18.5633 36.4179 19.236 34.5201C19.2243 34.52 19.2122 34.5195 19.2006 34.5195Z" fill="#9E66BF"/>
<path d="M34.5364 29.3495C32.277 31.5597 31.2175 34.2757 30.5027 36.5199C31.2453 38.0558 32.5445 40.369 33.6411 40.3867C35.8484 40.4222 33.6976 33.5471 36.5005 27.762C35.7794 28.259 35.1142 28.7845 34.5364 29.3495Z" fill="#9E66BF"/>
<path d="M48.8957 10.4648C48.6709 10.6738 48.5571 10.9169 48.6413 11.0074C48.7256 11.098 48.9761 11.0019 49.2007 10.7928C49.4255 10.5838 49.5393 10.3409 49.4551 10.2503C49.3709 10.1598 49.1204 10.2558 48.8957 10.4648ZM42.9629 12.1791C41.7997 11.8718 40.6821 12.284 40.4665 13.0998C40.2509 13.9157 41.0191 14.8262 42.1822 15.1335C43.3455 15.4409 44.4631 15.0286 44.6787 14.2128C44.8942 13.397 44.126 12.4864 42.9629 12.1791ZM50.1087 17.0943C49.9374 17.6403 49.6999 18.1716 49.3796 18.6725C46.6086 23.0067 38.3625 24.9076 34.1868 28.9921C29.0637 34.0033 29.9703 41.3057 27.3626 41.0185C25.5273 40.8164 24.1505 34.3797 19.8788 34.0461C13.4302 33.5429 12.0146 40.2579 9.36072 41.0134C6.70686 41.7688 7.09165 34.9594 8.46239 31.9445C9.67275 29.282 11.8441 25.5495 15.1629 26.406C17.3589 26.9726 14.8086 30.6563 14.8086 30.6563C14.8086 30.6563 19.453 30.9574 22.3175 26.6894C24.2199 23.8547 30.5226 14.1581 36.84 22.5458C36.84 22.5458 34.3651 15.5061 35.9706 12.0818C37.2881 9.27196 40.3201 9.32797 43.0794 10.0427C45.3418 10.6286 47.1344 10.19 48.2122 9.74138C48.4227 9.65375 48.6424 9.63024 48.8513 9.66037C48.4534 9.67937 47.8416 9.89077 47.4877 10.9125C46.9593 12.4379 49.8332 11.2654 50.448 13.6563C50.448 13.6563 50.6371 17.2855 47.6329 16.8398L47.7501 16.0527C47.7501 16.0527 46.7829 16.6749 47.4742 17.9045L47.585 17.1613C48.1901 17.3786 49.0457 17.4843 50.1087 17.0943ZM50.4481 13.6563H50.448V13.6562L50.4481 13.6563Z" fill="#D6B5E5"/>
<path d="M34.5364 29.3495C32.2576 31.5786 31.1995 34.3219 30.4846 36.5771C30.8846 37.3937 31.7179 38.7011 31.7179 38.7011C31.6743 34.1754 35.4622 28.9225 36.1433 28.0149C35.5596 28.4368 35.0173 28.8791 34.5364 29.3495Z" fill="#5C007B"/>
<path d="M13.8438 37.0822C14.0662 37.7345 14.5139 38.7011 14.5139 38.7011C14.5139 38.7011 15.8694 35.1538 19.1632 34.5201C16.7227 34.5321 15.1239 35.6887 13.8438 37.0822Z" fill="#5C007B"/>
<path d="M9.36072 41.0134C12.0146 40.258 13.4302 33.5429 19.8788 34.0462C24.1505 34.3797 25.5273 40.8164 27.3626 41.0185C27.3626 41.0185 26.3733 38.998 25.5764 36.4476C24.7795 33.8974 22.0637 31.3472 19.5962 31.3472C17.1287 31.3472 14.3327 32.6755 12.772 36.0045C10.4212 41.0185 9.36072 41.0134 9.36072 41.0134Z" fill="#C393DB"/>
<path d="M18.8123 8.3514C16.9922 8.59454 12.0021 9.08471 9.13143 9.2251C9.13143 9.2251 9.78461 9.64876 10.3482 10.0987C14.1751 9.82428 19.1428 8.57692 18.8123 8.3514ZM13.6297 12.8483C11.9264 13.5734 7.13888 15.4668 2.20732 18.4685C2.20732 18.4685 2.85875 18.4114 3.46893 18.4685C8.93504 15.4121 13.8292 13.0226 13.6297 12.8483ZM25.274 6.29009C23.4209 6.16858 18.2205 5.76317 14.1076 5.5279C14.1076 5.5279 15.1593 6.01732 16.1313 6.57612C21.0714 6.86852 25.6708 6.61787 25.274 6.29009ZM7.97545 19.2874C6.03528 20.7789 3.23366 23.7201 0 27.5265C0 27.5265 0.371408 27.385 0.641682 27.3723C5.13745 22.3394 8.12134 19.328 7.97545 19.2874ZM45.4989 9.75077C45.4989 9.75077 39.0118 5.01298 35.0872 2.32349C35.0872 2.32349 35.407 2.90529 35.6668 3.79962C39.3254 6.33935 45.4989 9.75077 45.4989 9.75077ZM5.98828 26.924C4.73554 28.4422 3.05752 31.8413 1.4595 35.6712C1.4595 35.6712 1.48163 35.6573 1.52126 35.6331C3.84321 30.5682 6.05191 26.9157 5.98828 26.924ZM36.2665 6.01057C34.8372 5.19262 30.5732 2.62877 28.0736 1C28.0736 1 28.5584 1.89395 28.8961 2.67565C32.0247 4.64545 36.3658 6.3751 36.2665 6.01057ZM22.3851 3.95876C21.179 3.17269 19.8299 2.45275 19.8299 2.45275C24.1005 3.37758 28.2142 4.19866 29.5124 4.4333C29.6594 4.81884 26.514 4.81396 22.3851 3.95876Z" fill="#9E66BF"/>
<path d="M28.713 6.21631L32.9644 8.92642L35.7224 8.70115L28.713 6.21631Z" fill="#5C007B"/>
<path d="M35.7224 8.70115L28.713 6.21631L31.9684 7.79232C33.1347 8.357 34.4079 8.66665 35.7033 8.70065L35.7224 8.70115Z" fill="#9E66BF"/>
<path d="M21.275 10.1629L28.0085 11.8764L30.9448 10.9068L21.275 10.1629Z" fill="#5C007B"/>
<path d="M30.9448 10.9068L21.275 10.1629L27.2188 11.1476C28.0459 11.2699 28.8859 11.2779 29.7151 11.1712L30.9448 10.9068Z" fill="#9E66BF"/>
<path d="M34.7178 12.4379L33.2809 13.5207L29.1569 13.3679L34.7178 12.4379Z" fill="#5C007B"/>
<path d="M34.7178 12.4379L29.1569 13.3679L31.4199 13.2987C32.1993 13.2748 32.9691 13.1181 33.6959 12.8353L34.7178 12.4379Z" fill="#9E66BF"/>
<path d="M23.7525 13.5207L21.4494 15.0555L15.0666 14.4508L23.7525 13.5207Z" fill="#5C007B"/>
<path d="M23.7525 13.5207L15.0666 14.4508L19.9153 14.373C21.051 14.3548 22.1742 14.1347 23.2327 13.7229L23.7525 13.5207Z" fill="#9E66BF"/>
<path d="M33.2809 16.0559L30.9447 17.3559L24.595 16.9861L33.2809 16.0559Z" fill="#5C007B"/>
<path d="M33.2809 16.0559L24.595 16.9861L29.5252 16.907C30.6071 16.8896 31.677 16.6799 32.6854 16.2877L33.2809 16.0559Z" fill="#9E66BF"/>
<path d="M24.5099 18.7991L22.8815 21.4607L14.7321 23.4434L24.5099 18.7991Z" fill="#5C007B"/>
<path d="M14.7321 23.4434L24.5099 18.7991L23.2524 19.7937C22.5071 20.3831 21.6743 20.8524 20.784 21.1847L14.7321 23.4434Z" fill="#9E66BF"/>
<path d="M8.01898 23.1998L14.3282 20.4377L15.7634 17.6756L8.01898 23.1998Z" fill="#5C007B"/>
<path d="M8.01898 23.1998L15.7634 17.6756L15.7419 17.708C14.9412 18.919 13.863 19.9213 12.5968 20.6316L8.01898 23.1998Z" fill="#9E66BF"/>
<path d="M10.8773 23.7499L10.6283 26.5131L7.00586 31.0315L10.8773 23.7499Z" fill="#5C007B"/>
<path d="M7.00586 31.0315L10.8773 23.7499C10.6671 25.0164 10.1918 26.2242 9.48245 27.2944L7.00586 31.0315Z" fill="#9E66BF"/>
<path d="M42.6787 13.0993C42.6733 13.4012 42.3874 13.6411 42.0402 13.6348C41.6929 13.6288 41.4156 13.379 41.421 13.0771C41.4264 12.775 41.7123 12.5351 42.0595 12.5413C42.4068 12.5475 42.6841 12.7973 42.6787 13.0993Z" fill="white"/>
<path fill-rule="evenodd" clip-rule="evenodd" d="M41.487 4.17733C34.5221 0.470462 31.6431 -0.553066 24.5305 4.17733C28.3251 5.24611 30.696 7.71117 31.6431 11.5725C42.849 9.11364 46.1303 6.64858 41.487 4.17733Z" fill="url(#hat-gradient)" stroke="#2B023F" stroke-width="0.56255"/>
<path d="M25.49 6.9779C26.8017 6.9779 27.8652 5.91448 27.8652 4.60269C27.8652 3.2909 26.8017 2.22748 25.49 2.22748C24.1782 2.22748 23.1147 3.2909 23.1147 4.60269C23.1147 5.91448 24.1782 6.9779 25.49 6.9779Z" fill="white" stroke="#2B023F" stroke-width="0.56255"/>
<path fill-rule="evenodd" clip-rule="evenodd" d="M35.6566 15.3756C36.7078 13.8765 39.7286 10.316 43.8844 10.1631C48.0402 10.0102 45.8639 4.18228 43.4102 4.18228C40.9565 4.18228 31.2337 9.5297 30.678 12.4154C30.1223 15.3011 34.6054 16.8746 35.6566 15.3756Z" fill="white" stroke="#2B023F" stroke-width="0.56255"/>
<defs>
<linearGradient id="hat-gradient" x1="33.0636" y1="10.543" x2="34.767" y2="0.416402" gradientUnits="userSpaceOnUse">
<stop stop-color="#E74E3E"/>
<stop offset="1" stop-color="#F36C5E"/>
</linearGradient>
</defs>
</svg>
