<svg width="142" height="42" viewBox="0 0 142 42" fill="none" xmlns="http://www.w3.org/2000/svg">
<path fill-rule="evenodd" clip-rule="evenodd" d="M134.681 33.3596C134.603 33.6128 134.476 33.7906 134.302 33.8905L134.252 33.9162C134.063 33.9954 133.861 33.984 133.624 33.9242C132.856 33.7295 129.298 33.3183 130.721 29.0452L131.565 26.5103L131.374 26.0177L130.449 23.7566L124.653 9.91349C124.526 9.62612 124.572 9.36445 124.686 9.18621C124.804 9.00039 125.012 8.90642 125.306 8.90095H128.603C128.829 8.90095 129.022 8.96373 129.169 9.08087C129.317 9.19843 129.425 9.37793 129.516 9.59915L133.771 19.8308L136.822 9.6278C136.887 9.38341 137.003 9.19801 137.159 9.07497C137.312 8.95446 137.507 8.89462 137.735 8.89462H141.256C141.555 8.89462 141.767 8.98185 141.892 9.14449C142.017 9.31346 142.034 9.55786 141.941 9.87219L137.206 25.1518L135.38 31.0804L134.681 33.3596ZM120.795 19.6053H124.396C124.952 19.6053 125.279 19.9698 125.083 20.5332C124.068 23.9795 120.861 26.3657 117.031 26.3657C112.056 26.3657 108.358 22.5545 108.358 17.6169C108.358 12.6793 112.056 8.8685 117.031 8.8685C120.861 8.8685 124.068 11.2543 125.083 14.7006C125.279 15.264 124.952 15.6289 124.396 15.6289H120.795C120.37 15.6289 120.075 15.43 119.813 15.0655C119.224 14.2371 118.21 13.7728 117.031 13.7728C114.904 13.7728 113.267 15.3306 113.267 17.6169C113.267 19.9037 114.904 21.461 117.031 21.461C118.21 21.461 119.224 20.9971 119.813 20.202C120.075 19.8042 120.337 19.6053 120.795 19.6053ZM103.163 9.76433V10.6277C103.57 9.89705 104.499 8.85965 106.924 8.89294C107.099 8.89505 107.241 8.96289 107.345 9.07244C107.498 9.23298 107.571 9.44999 107.571 9.73062V13.7808C107.571 14.0555 107.514 14.2616 107.396 14.3989C107.282 14.5359 107.113 14.605 106.893 14.605C106.413 14.5877 105.955 14.6391 105.508 14.7592C105.067 14.8789 104.666 15.0853 104.316 15.3656C103.966 15.6517 103.684 16.0359 103.48 16.5041C103.272 16.9794 103.167 17.5566 103.163 18.2435L103.141 22.5629C103.116 27.074 99.7187 26.3906 98.9255 26.3442C98.655 26.3287 98.4448 26.2701 98.2983 26.1213C98.1514 25.9726 98.0778 25.7607 98.0778 25.4863V9.76433C98.0778 9.49002 98.1514 9.27807 98.2983 9.12933C98.4452 8.98058 98.6546 8.90642 98.9255 8.90642H102.316C102.587 8.90642 102.796 8.98058 102.943 9.12933C103.09 9.27807 103.163 9.48959 103.163 9.76433ZM88.4748 8.87651C89.6713 8.88198 90.7696 9.10194 91.7706 9.53721C92.7706 9.97206 93.6355 10.583 94.3754 11.3651C95.1091 12.1526 95.6801 13.0716 96.0826 14.1288C96.485 15.186 96.6919 16.3423 96.6973 17.5975C96.6973 17.8124 96.6919 18.0214 96.6752 18.2199C96.6644 18.4234 96.6482 18.6219 96.6319 18.8199C96.5995 19.0841 96.5013 19.2767 96.3494 19.398C96.197 19.5194 95.9956 19.5796 95.7509 19.5796H84.8532C85.0597 20.2294 85.3481 20.7578 85.7285 21.1652C86.1093 21.5672 86.5554 21.8592 87.0552 22.0463C87.5613 22.2334 88.0994 22.3215 88.6709 22.3215C89.1328 22.316 89.5785 22.2444 90.003 22.096C90.4217 21.9473 90.7859 21.7488 91.0851 21.4956C91.2428 21.3637 91.4006 21.2588 91.5529 21.1817C91.7106 21.105 91.89 21.0662 92.0964 21.0662L95.229 21.0333C95.5282 21.0388 95.7455 21.1269 95.8762 21.2975C96.001 21.4682 96.0064 21.6886 95.8816 21.9582C95.4521 22.9164 94.8807 23.72 94.1686 24.3642C93.4561 25.014 92.6295 25.4981 91.6886 25.8289C90.748 26.1534 89.7205 26.319 88.6055 26.319C87.2459 26.3131 86.0223 26.0876 84.9348 25.6469C83.8419 25.2066 82.9118 24.5956 82.1398 23.8026C81.3619 23.0154 80.7693 22.0901 80.356 21.0388C79.9427 19.9816 79.7359 18.8363 79.7305 17.5975C79.7359 16.3587 79.9482 15.2134 80.3722 14.1567C80.7963 13.1049 81.3944 12.18 82.1722 11.3925C82.9446 10.5999 83.869 9.98849 84.9348 9.54816C86.0006 9.10784 87.1805 8.88198 88.4748 8.87651ZM65.5821 10.6766C66.25 10.1098 66.9917 9.66952 67.7757 9.36782C68.5923 9.05432 69.4559 8.89083 70.3311 8.89083C72.4973 8.89083 74.6152 9.87135 76.0352 11.4561C77.4532 13.0388 78.3305 15.2248 78.3305 17.6375C78.3305 20.0503 77.4532 22.2359 76.0352 23.8186C74.6152 25.4029 72.4973 26.3839 70.3311 26.3839C68.7446 26.3839 67.0799 25.8786 65.92 24.7527L65.9233 30.118C65.9262 34.6291 62.5015 33.9453 61.7083 33.8993C61.4386 33.8837 61.2276 33.8243 61.0811 33.676C60.9346 33.5277 60.8609 33.3149 60.8609 33.041L60.8501 9.78792C60.8501 9.50813 60.9254 9.28776 61.0765 9.13522C61.2272 8.98227 61.4436 8.906 61.7212 8.906H64.6998C64.9773 8.906 65.1938 8.98227 65.3444 9.13522C65.4955 9.28776 65.5675 9.50603 65.5708 9.78792L65.5821 10.6766ZM74.0492 17.5912C74.0492 15.4633 72.3566 13.7382 70.2686 13.7382C68.1803 13.7382 66.4877 15.4633 66.4877 17.5912C66.4877 19.7195 68.1803 21.4446 70.2686 21.4446C72.3566 21.4446 74.0492 19.7195 74.0492 17.5912ZM86.1421 13.9253C85.5274 14.3547 85.0925 14.988 84.837 15.8139H91.8247C91.6507 15.1915 91.3897 14.6905 91.0414 14.3163C90.6993 13.9472 90.2969 13.6776 89.8453 13.5124C89.3938 13.3472 88.9264 13.2646 88.4424 13.2701C87.523 13.2756 86.751 13.4905 86.1421 13.9253Z" fill="#9E66BF"/>
<path fill-rule="evenodd" clip-rule="evenodd" d="M51.9935 9.19418C51.7694 8.46571 51.104 7.97618 50.3376 7.97618C50.1094 7.97618 49.886 8.02074 49.6737 8.10861C49.13 8.33353 48.282 8.59676 47.222 8.6457C45.0796 7.09713 39.8844 3.35624 36.8022 1.25743C36.8022 1.25743 37.234 2.50485 37.8303 4.83535C37.8303 4.83535 32.9566 2.10094 29.7118 0C29.7118 0 30.9242 2.45967 31.0246 3.25611C31.0246 3.25611 27.1657 2.59435 21.523 1.37997C21.523 1.37997 25.7202 3.71147 26.7539 5.11522C26.7539 5.11522 21.705 4.77539 15.7584 4.43757C15.7584 4.43757 18.7725 5.95422 20.2429 7.17911C20.2429 7.17911 14.8524 7.96729 10.7461 8.16681C10.7461 8.16681 13.7917 10.5349 15.0209 11.6816C15.0209 11.6816 9.8936 13.6955 3.77044 17.2321C3.77044 17.2321 6.99705 17.391 9.3234 18.1288C9.3234 18.1288 6.51753 20.5927 1.50415 26.2423C1.50415 26.2423 4.72358 26.1243 7.32112 25.775C7.32112 25.775 5.28705 28.907 2.75783 34.5331C2.75783 34.5331 4.49275 33.4411 6.17288 33.0457C6.17288 33.0457 6.35319 39.3611 9.84774 40.3728L9.85064 40.3684C10.0218 40.422 10.1852 40.4409 10.327 40.4409C10.4977 40.4409 10.6761 40.4149 10.8574 40.3634C11.9662 40.0499 12.8055 38.9687 13.7771 37.7168L13.7775 37.7164C14.0954 37.3068 14.4221 36.8863 14.7694 36.4759C15.1569 35.9337 15.6627 35.3678 16.2731 34.8705C17.5083 33.864 19.2176 33.1022 21.3002 33.4071C23.6448 33.6024 25.093 35.9108 26.2574 37.7669L26.2574 37.7669C27.1377 39.1702 27.833 40.2786 28.8036 40.3847C28.8717 40.3922 28.9397 40.396 29.0059 40.396C30.4893 40.396 31.0106 38.6846 31.6707 36.5179L31.6709 36.5174C31.7147 36.3732 31.7597 36.2256 31.8058 36.0754C31.8119 36.0873 31.818 36.0992 31.8242 36.1112C32.3127 34.3585 33.26 32.4693 34.4188 30.7646C35.9931 28.4489 38.0218 26.3795 39.9697 25.4183L39.9744 25.4279C41.0322 24.8222 42.1452 24.2502 43.2425 23.6863L43.2436 23.6858C46.6445 21.9382 49.8568 20.2874 51.4683 17.7829C52.2743 16.5303 52.6739 14.9932 52.6557 13.2142C52.6396 11.6186 52.2867 10.1473 51.9935 9.19418ZM38.0009 28.0612C37.0296 28.9709 36.0805 30.0988 35.2457 31.3267C33.8685 33.3527 32.8546 35.5743 32.5556 37.4189C33.513 38.9767 34.3734 39.7422 35.1772 39.7551L35.2024 39.7554C35.9413 39.7554 36.4285 39.2646 36.6508 38.2969C36.8169 37.5744 36.8523 36.5819 36.8934 35.4325L36.8934 35.4325L36.8934 35.4325L36.8934 35.4324L36.8934 35.4324L36.8934 35.4324L36.8934 35.4324L36.8934 35.4307C36.9681 33.336 37.065 30.6368 38.0009 28.0612ZM15.3286 37.4857L15.3171 37.458C15.661 36.8957 16.1942 36.2245 16.9047 35.6456C17.914 34.8231 19.2421 34.2176 20.8477 34.3603C20.6678 34.8406 20.4607 35.3723 20.2381 35.9044C19.4792 37.7199 18.5712 39.5964 17.5919 39.7492C17.5338 39.7582 17.4746 39.7629 17.4161 39.7629C16.6489 39.7629 15.966 39.018 15.3286 37.4857ZM34.5031 7.75488L30.2192 5.04137L37.2821 7.52933L34.5031 7.75488ZM22.7244 8.99292L29.5093 10.7086L32.468 9.73779L22.7244 8.99292ZM34.8221 12.3549L36.2699 11.2707L30.6666 12.202L34.8221 12.3549ZM25.2208 12.3549L22.9002 13.8916L16.4686 13.2862L25.2208 12.3549ZM32.4681 16.1949L34.8221 14.8933L26.0699 15.8247L32.4681 16.1949ZM25.9841 17.6399L24.3433 20.3048L16.1316 22.29L25.9841 17.6399ZM15.7246 19.2806L9.36726 22.0461L17.1708 16.515L15.7246 19.2806ZM12.2475 22.5969L11.9966 25.3636L8.34651 29.8876L12.2475 22.5969Z" fill="#9E66BF"/>
</svg>
