<svg width="52" height="41" viewBox="0 0 52 41" fill="none" xmlns="http://www.w3.org/2000/svg">
<path fill-rule="evenodd" clip-rule="evenodd" d="M45.5102 11.8004C45.3465 11.2334 44.8381 10.8455 44.2447 10.8351C44.068 10.832 43.8945 10.8635 43.7289 10.9286C43.305 11.0954 42.6449 11.2878 41.8236 11.3113C40.1859 10.0835 36.2145 7.11713 33.8567 5.45061C33.8567 5.45061 34.1741 6.42217 34.6043 8.23446C34.6043 8.23446 30.8681 6.05165 28.3844 4.38128C28.3844 4.38128 29.2898 6.3019 29.3568 6.91985C29.3568 6.91985 26.3782 6.35537 22.0262 5.33895C22.0262 5.33895 25.2441 7.20068 26.0253 8.30142C26.0253 8.30142 22.1211 7.97008 17.5219 7.62816C17.5219 7.62816 19.8349 8.84307 20.9567 9.81123C20.9567 9.81123 16.7729 10.3486 13.5911 10.4475C13.5911 10.4475 15.917 12.322 16.8531 13.2264C16.8531 13.2264 12.8564 14.7162 8.06817 17.3714C8.06817 17.3714 10.564 17.5381 12.355 18.1407C12.355 18.1407 10.1495 20.0103 6.19186 24.3163C6.19186 24.3163 8.68588 24.2685 10.7016 24.0332C10.7016 24.0332 9.08449 26.4304 7.05037 30.7518C7.05037 30.7518 8.40827 29.9299 9.71434 29.6465C9.71434 29.6465 9.76857 34.5382 12.4603 35.3687L12.4626 35.3653C12.5944 35.4091 12.7207 35.4259 12.8305 35.4279C12.9626 35.4302 13.101 35.4124 13.2421 35.375C14.1048 35.1473 14.7691 34.3216 15.5383 33.3655L15.5385 33.3652C15.7902 33.0525 16.0488 32.7313 16.3232 32.4183C16.6306 32.0038 17.0298 31.5725 17.5091 31.1957C18.4789 30.4332 19.8126 29.8666 21.4207 30.1307C23.2332 30.3136 24.3232 32.1204 25.1996 33.573L25.1996 33.5731C25.8621 34.6713 26.3855 35.5388 27.1354 35.6341C27.1881 35.6408 27.2407 35.6447 27.2919 35.6456C28.4403 35.6656 28.8671 34.3477 29.4074 32.6793L29.4075 32.6789C29.4434 32.5678 29.4802 32.4542 29.5179 32.3385C29.5225 32.3478 29.5271 32.3571 29.5317 32.3665C29.9336 31.0162 30.6925 29.5664 31.6127 28.2623C32.8627 26.4908 34.4613 24.9161 35.9823 24.1983L35.9859 24.2058C36.813 23.7512 37.6823 23.3234 38.5395 22.9017L38.5403 22.9013C41.1968 21.5943 43.7061 20.3597 44.9875 18.4426C45.6285 17.4837 45.9586 16.2991 45.9686 14.9216C45.9776 13.6861 45.7243 12.5423 45.5102 11.8004ZM34.4224 26.2178C33.6581 26.9089 32.9081 27.7693 32.2453 28.7087C31.1516 30.2585 30.3367 31.9647 30.0803 33.3888C30.8004 34.6077 31.4561 35.212 32.0783 35.2328L32.0978 35.2334C32.6698 35.2434 33.0536 34.87 33.2388 34.1238C33.3772 33.5668 33.418 32.7988 33.4653 31.9096L33.4653 31.9095L33.4653 31.9095L33.4653 31.9095L33.4653 31.9095L33.4653 31.9095L33.4653 31.9095L33.4654 31.9081C33.5515 30.2875 33.663 28.1992 34.4224 26.2178ZM16.7425 33.2076L16.734 33.186C17.0078 32.7553 17.4297 32.2429 17.9876 31.8043C18.7801 31.1812 19.8164 30.7304 21.0575 30.8626C20.9118 31.232 20.7442 31.6408 20.5647 32.0498C19.9527 33.445 19.2244 34.8855 18.4641 34.9906C18.419 34.9968 18.3731 34.9996 18.3279 34.9988C17.7339 34.9884 17.2153 34.4025 16.7425 33.2076ZM31.9889 10.4497L28.7091 8.29108L34.1435 10.3127L31.9889 10.4497ZM22.8534 11.249L28.0829 12.6689L30.3866 11.9574L22.8534 11.249ZM32.1737 14.0153L33.3093 13.1955L28.9587 13.8407L32.1737 14.0153ZM24.7406 13.8855L22.9232 15.0438L17.9522 14.4882L24.7406 13.8855ZM30.2994 16.9564L32.1394 15.9805L25.351 16.5832L30.2994 16.9564ZM25.2601 17.9874L23.9538 20.0283L17.5696 21.4542L25.2601 17.9874ZM17.2952 19.1189L12.3361 21.174L18.4522 16.9974L17.2952 19.1189ZM14.5584 21.6393L14.3268 23.7779L11.4398 27.231L14.5584 21.6393Z" fill="#9E66BF"/>
</svg>
