<svg width="26" height="26" viewBox="0 0 26 26" fill="none" xmlns="http://www.w3.org/2000/svg">
<path d="M18.859 7.17395H11.8444C11.0858 7.17395 10.4756 7.78417 10.4756 8.54269V11.9646C10.4756 12.7231 11.0858 13.3334 11.8444 13.3334H18.859C19.6175 13.3334 20.2278 12.7231 20.2278 11.9646V8.54269C20.2278 7.78417 19.6175 7.17395 18.859 7.17395V7.17395ZM18.6309 11.7364H12.0723V8.77089H18.6309V11.7364Z" fill="#60D957"/>
<path d="M21.4254 3.18176H9.20379C8.13733 3.18176 7.28186 4.05434 7.28186 5.1208V10.5388H4.31633C3.24987 10.5388 2.37729 11.3943 2.37729 12.4608V19.7835C2.37729 21.5742 3.83158 23.0285 5.62226 23.0285H19.5149C21.6422 23.0285 23.3702 21.3004 23.3702 19.1732V5.1208C23.3645 4.05434 22.4919 3.18176 21.4254 3.18176H21.4254ZM7.28157 19.7833C7.28157 20.6901 6.53446 21.4315 5.62766 21.4315C4.72086 21.4315 3.97376 20.6958 3.97376 19.7833V12.4606C3.97376 12.2724 4.12774 12.1355 4.31595 12.1355H7.28148L7.28157 19.7833ZM21.7673 19.1731C21.7673 20.4164 20.7521 21.4315 19.5089 21.4315H8.41061C8.69576 20.9753 8.87827 20.3879 8.87827 19.7833V5.12066C8.87827 4.93246 9.01515 4.77847 9.20335 4.77847H21.4249C21.6131 4.77847 21.7671 4.93245 21.7671 5.12066L21.7673 19.1731Z" fill="#60D957"/>
<path d="M22.3969 4.15326H10.1753C9.10885 4.15326 8.25339 5.02584 8.25339 6.0923V11.5103H5.28786C4.22139 11.5103 3.34882 12.3658 3.34882 13.4323V20.755C3.34882 22.5457 4.80311 23.9999 6.59379 23.9999H20.4865C22.6137 23.9999 24.3417 22.2719 24.3417 20.1447V6.0923C24.336 5.02584 23.4634 4.15326 22.3969 4.15326H22.3969ZM8.25309 20.7548C8.25309 21.6616 7.50599 22.403 6.59919 22.403C5.69239 22.403 4.94528 21.6673 4.94528 20.7548V13.4321C4.94528 13.2439 5.09927 13.107 5.28748 13.107H8.25301L8.25309 20.7548ZM22.7388 20.1446C22.7388 21.3879 21.7237 22.403 20.4804 22.403H9.38213C9.66729 21.9468 9.8498 21.3594 9.8498 20.7548V6.09215C9.8498 5.90395 9.98667 5.74996 10.1749 5.74996H22.3964C22.5846 5.74996 22.7386 5.90394 22.7386 6.09215L22.7388 20.1446Z" fill="#60D957" fill-opacity="0.2"/>
<path d="M10.7038 15.5004C10.7038 15.0594 11.0612 14.702 11.5022 14.702H16.407C16.8479 14.702 17.2054 15.0594 17.2054 15.5004V15.5004C17.2054 15.9414 16.8479 16.2988 16.407 16.2988H11.5022C11.0612 16.2988 10.7038 15.9414 10.7038 15.5004V15.5004Z" fill="#60D957"/>
<path d="M10.7038 18.7512C10.7038 18.3102 11.0612 17.9528 11.5022 17.9528H19.1444C19.5854 17.9528 19.9429 18.3102 19.9429 18.7512V18.7512C19.9429 19.1922 19.5854 19.5496 19.1444 19.5496H11.5022C11.0612 19.5496 10.7038 19.1922 10.7038 18.7512V18.7512Z" fill="#60D957"/>
</svg>
