<svg width="26" height="26" viewBox="0 0 26 26" fill="none" xmlns="http://www.w3.org/2000/svg">
<g clip-path="url(#clip0)">
<path d="M26.0635 17.4317C26.0635 16.4547 25.775 15.499 25.2337 14.6846C24.6924 13.871 23.9225 13.2342 23.0217 12.8564C24.148 12.0206 24.6111 10.5571 24.1704 9.22658C23.7306 7.8951 22.4865 6.99628 21.085 6.99628C19.6834 6.99628 18.4392 7.8951 17.9995 9.22658C17.5588 10.5571 18.0219 12.0205 19.1482 12.8564C17.9549 13.3683 17.0113 14.3311 16.5217 15.5337L15.9235 15.2219C17.0498 14.387 17.5129 12.9235 17.0732 11.592C16.6324 10.2615 15.3893 9.36272 13.9867 9.36272C12.5852 9.36272 11.341 10.2615 10.9013 11.592C10.4615 12.9235 10.9247 14.387 12.05 15.2219L11.4518 15.5337C10.9572 14.3403 10.0147 13.3887 8.82629 12.8819C9.9516 12.0471 10.4147 10.5836 9.97497 9.25206C9.53419 7.92159 8.29106 7.02277 6.88851 7.02277C5.48696 7.02277 4.24275 7.92159 3.80309 9.25206C3.36333 10.5835 3.82645 12.0471 4.95177 12.8819C4.06005 13.2628 3.29833 13.8965 2.76309 14.706C2.22684 15.5144 1.93941 16.462 1.93637 17.4318V18.0818C1.93637 18.369 2.16918 18.6018 2.45637 18.6018V18.6018C2.74356 18.6018 2.97637 18.369 2.97637 18.0818V17.4318C2.98043 16.1826 3.57863 15.0096 4.58816 14.2733C5.59668 13.537 6.89668 13.3248 8.08698 13.7026C9.2783 14.0794 10.2188 15.0005 10.62 16.1837C9.62161 17.1212 9.05691 18.4293 9.05995 19.7983V20.4483C9.05995 20.7354 9.29277 20.9683 9.57995 20.9683V20.9683C9.86714 20.9683 10.1 20.7354 10.1 20.4483V19.7983C10.0106 18.7055 10.3833 17.6248 11.1257 16.8184C11.8692 16.012 12.9163 15.5529 14.013 15.5529C15.1098 15.5529 16.156 16.012 16.8996 16.8184C17.643 17.6248 18.0147 18.7054 17.9263 19.7983V20.4483C17.9263 20.7354 18.1592 20.9683 18.4463 20.9683V20.9683C18.7335 20.9683 18.9663 20.7354 18.9663 20.4483V19.7983C18.9694 18.4292 18.4037 17.121 17.4063 16.1837C17.8238 15.0249 18.7622 14.1302 19.9393 13.7655C21.1164 13.4019 22.3951 13.6112 23.3945 14.3323C24.3938 15.0523 24.9971 16.2 25.0235 17.432V18.082C25.0235 18.3692 25.2563 18.602 25.5435 18.602V18.602C25.8307 18.602 26.0635 18.3692 26.0635 18.082L26.0635 17.4317ZM4.69175 10.2817C4.69175 9.38796 5.23002 8.58256 6.05573 8.2403C6.88245 7.89803 7.83307 8.08694 8.46479 8.71969C9.09651 9.35141 9.2854 10.302 8.94418 11.1277C8.60191 11.9534 7.7955 12.4917 6.90175 12.4917C5.68097 12.4917 4.69175 11.5025 4.69175 10.2817ZM11.79 12.6481C11.7798 11.7513 12.311 10.9378 13.1357 10.5874C13.9614 10.237 14.9161 10.4198 15.5529 11.0495C16.1907 11.6802 16.3847 12.6329 16.0445 13.4616C15.7032 14.2904 14.8958 14.8317 14 14.8317C12.7894 14.8317 11.8042 13.8587 11.79 12.6481ZM18.8883 10.2817C18.8883 9.38796 19.4265 8.58256 20.2522 8.2403C21.078 7.89803 22.0286 8.08694 22.6603 8.71969C23.293 9.35141 23.4819 10.302 23.1397 11.1277C22.7974 11.9534 21.992 12.4917 21.0983 12.4917C19.8775 12.4917 18.8883 11.5025 18.8883 10.2817Z" fill="#9E66BF" fill-opacity="0.2"/>
<path d="M25.3378 14.6153L25.3378 14.6154C25.8928 15.4503 26.1885 16.4301 26.1885 17.4317L26.1885 18.082C26.1885 18.4382 25.8997 18.727 25.5435 18.727C25.1873 18.727 24.8985 18.4382 24.8985 18.082V17.4333C24.8726 16.2411 24.2886 15.1305 23.3214 14.4337L23.3213 14.4336C22.3538 13.7355 21.1159 13.5329 19.9762 13.885C18.8623 14.23 17.9693 15.0653 17.5522 16.1502C18.5372 17.1068 19.0944 18.4226 19.0913 19.7985M25.3378 14.6153L18.9663 19.7983M25.3378 14.6153C24.8216 13.8395 24.1026 13.2205 23.2614 12.8261C24.3102 11.9419 24.7246 10.5021 24.2891 9.18738C23.8324 7.80467 22.5404 6.87128 21.085 6.87128C19.6296 6.87128 18.3375 7.80461 17.8809 9.18727C17.4451 10.5026 17.86 11.9431 18.9099 12.8273C17.817 13.3502 16.947 14.2496 16.4594 15.3602L16.1528 15.2004C17.2093 14.3178 17.6278 12.8728 17.1919 11.5528L17.1918 11.5527M25.3378 14.6153L17.1918 11.5527M19.0913 19.7985L18.9663 19.7983M19.0913 19.7985V19.7983H18.9663M19.0913 19.7985V20.4483C19.0913 20.8045 18.8026 21.0933 18.4463 21.0933C18.0901 21.0933 17.8013 20.8045 17.8013 20.4483V19.7983V19.7882L17.8018 19.7882C17.8873 18.7301 17.5274 17.6838 16.8077 16.9031M18.9663 19.7983V20.4483C18.9663 20.7354 18.7335 20.9683 18.4463 20.9683C18.1592 20.9683 17.9263 20.7354 17.9263 20.4483V19.7983C18.0147 18.7054 17.643 17.6248 16.8996 16.8184M16.8077 16.9031L16.8996 16.8184M16.8077 16.9031C16.8077 16.9031 16.8076 16.9031 16.8076 16.9031L16.8996 16.8184M16.8077 16.9031C16.0877 16.1223 15.0748 15.6779 14.013 15.6779C12.9512 15.6779 11.9375 16.1223 11.2177 16.9031M16.8996 16.8184C16.156 16.012 15.1098 15.5529 14.013 15.5529C12.9163 15.5529 11.8692 16.012 11.1257 16.8184M11.1257 16.8184L11.2177 16.9031M11.1257 16.8184L11.2176 16.9031C11.2177 16.9031 11.2177 16.9031 11.2177 16.9031M11.1257 16.8184C10.3833 17.6248 10.0106 18.7055 10.1 19.7983L8.93495 19.7985M11.2177 16.9031C10.4988 17.6839 10.138 18.7301 10.2245 19.7881L10.2254 19.7983H10.225V20.4483C10.225 20.8045 9.93618 21.0933 9.57995 21.0933C9.22373 21.0933 8.93495 20.8045 8.93495 20.4483L8.93495 19.7985M8.93495 19.7985L9.05995 19.7983H8.93495V19.7983C8.93195 18.422 9.48863 17.1057 10.4753 16.149C10.0732 15.0396 9.17741 14.1785 8.04929 13.8217L8.04917 13.8217C6.89683 13.4559 5.63824 13.6614 4.66187 14.3743L4.66182 14.3743C3.68453 15.087 3.10537 16.2226 3.10137 17.432V18.0818C3.10137 18.438 2.81259 18.7268 2.45637 18.7268C2.10015 18.7268 1.81137 18.438 1.81137 18.0818V17.4318V17.4314C1.81449 16.4372 2.10913 15.4658 2.65883 14.637L8.93495 19.7985ZM17.1918 11.5527C16.7341 10.1711 15.4432 9.23772 13.9867 9.23772C12.5313 9.23772 11.2392 10.1711 10.7826 11.5528L10.7826 11.5528C10.3467 12.8727 10.7652 14.3177 11.8208 15.2004M17.1918 11.5527L11.8208 15.2004M11.8208 15.2004L11.5134 15.3606C11.0217 14.259 10.153 13.3701 9.06498 12.8524C10.1136 11.9691 10.5283 10.5289 10.0937 9.21286L10.0936 9.21275C9.63592 7.83117 8.34499 6.89777 6.88851 6.89777C5.43307 6.89777 4.14099 7.83114 3.68441 9.21284L3.6844 9.21286C3.24975 10.5289 3.66446 11.9691 4.71317 12.8525C3.88067 13.249 3.16938 13.865 2.65893 14.6369L11.8208 15.2004ZM8.37633 8.808L8.3764 8.80808C8.97235 9.40402 9.15061 10.3009 8.82865 11.08C8.50573 11.8589 7.74494 12.3667 6.90175 12.3667C5.75 12.3667 4.81675 11.4335 4.81675 10.2817C4.81675 9.43856 5.32453 8.67872 6.10355 8.35579C6.88362 8.03284 7.78042 8.21113 8.37633 8.808ZM22.5718 8.808L22.572 8.80815C23.1689 9.40408 23.3471 10.3009 23.0242 11.0799C22.7013 11.8589 21.9414 12.3667 21.0983 12.3667C19.9465 12.3667 19.0133 11.4335 19.0133 10.2817C19.0133 9.43854 19.5211 8.67869 20.3001 8.35577C21.0791 8.03287 21.9759 8.2111 22.5718 8.808ZM11.915 12.6467C11.9054 11.8005 12.4066 11.0331 13.1845 10.7025C13.9636 10.3719 14.8643 10.5444 15.465 11.1384C16.0668 11.7335 16.2498 12.6323 15.9288 13.4141C15.6068 14.1961 14.845 14.7067 14 14.7067C12.8578 14.7067 11.9284 13.7888 11.915 12.6467Z" stroke="#9E66BF" stroke-opacity="0.2" stroke-width="0.25"/>
<path d="M25.0635 16.4317C25.0635 15.4547 24.775 14.499 24.2337 13.6846C23.6924 12.871 22.9225 12.2342 22.0217 11.8564C23.148 11.0206 23.6111 9.55705 23.1704 8.22658C22.7306 6.8951 21.4865 5.99628 20.085 5.99628C18.6834 5.99628 17.4392 6.8951 16.9995 8.22658C16.5588 9.55705 17.0219 11.0205 18.1482 11.8564C16.9549 12.3683 16.0113 13.3311 15.5217 14.5337L14.9235 14.2219C16.0498 13.387 16.5129 11.9235 16.0732 10.592C15.6324 9.26154 14.3893 8.36272 12.9867 8.36272C11.5852 8.36272 10.341 9.26154 9.9013 10.592C9.46154 11.9235 9.92466 13.387 11.05 14.2219L10.4518 14.5337C9.95717 13.3403 9.01467 12.3887 7.82629 11.8819C8.9516 11.0471 9.41474 9.58357 8.97497 8.25206C8.53419 6.92159 7.29106 6.02277 5.88851 6.02277C4.48696 6.02277 3.24275 6.92159 2.80309 8.25206C2.36333 9.58355 2.82645 11.0471 3.95177 11.8819C3.06005 12.2628 2.29833 12.8965 1.76309 13.706C1.22684 14.5144 0.939413 15.462 0.936371 16.4318V17.0818C0.936371 17.369 1.16918 17.6018 1.45637 17.6018V17.6018C1.74356 17.6018 1.97637 17.369 1.97637 17.0818V16.4318C1.98043 15.1826 2.57863 14.0096 3.58816 13.2733C4.59668 12.537 5.89668 12.3248 7.08698 12.7026C8.2783 13.0794 9.21877 14.0005 9.61995 15.1837C8.62161 16.1212 8.05691 17.4293 8.05995 18.7983V19.4483C8.05995 19.7354 8.29277 19.9683 8.57995 19.9683V19.9683C8.86714 19.9683 9.09995 19.7354 9.09995 19.4483V18.7983C9.01058 17.7055 9.3833 16.6248 10.1257 15.8184C10.8692 15.012 11.9163 14.5529 13.013 14.5529C14.1098 14.5529 15.156 15.012 15.8996 15.8184C16.643 16.6248 17.0147 17.7054 16.9263 18.7983V19.4483C16.9263 19.7354 17.1592 19.9683 17.4463 19.9683V19.9683C17.7335 19.9683 17.9663 19.7354 17.9663 19.4483V18.7983C17.9694 17.4292 17.4037 16.121 16.4063 15.1837C16.8238 14.0249 17.7622 13.1302 18.9393 12.7655C20.1164 12.4019 21.3951 12.6112 22.3945 13.3323C23.3938 14.0523 23.9971 15.2 24.0235 16.432V17.082C24.0235 17.3692 24.2563 17.602 24.5435 17.602V17.602C24.8307 17.602 25.0635 17.3692 25.0635 17.082L25.0635 16.4317ZM3.69175 9.28171C3.69175 8.38796 4.23002 7.58256 5.05573 7.2403C5.88245 6.89803 6.83307 7.08694 7.46479 7.71969C8.09651 8.35141 8.2854 9.30202 7.94418 10.1277C7.60191 10.9534 6.7955 11.4917 5.90175 11.4917C4.68097 11.4917 3.69175 10.5025 3.69175 9.28171ZM10.79 11.6481C10.7798 10.7513 11.311 9.93783 12.1357 9.58742C12.9614 9.23702 13.9161 9.41984 14.5529 10.0495C15.1907 10.6802 15.3847 11.6329 15.0445 12.4616C14.7032 13.2904 13.8958 13.8317 13 13.8317C11.7894 13.8317 10.8042 12.8587 10.79 11.6481ZM17.8883 9.28171C17.8883 8.38796 18.4265 7.58256 19.2522 7.2403C20.078 6.89803 21.0286 7.08694 21.6603 7.71969C22.293 8.35141 22.4819 9.30202 22.1397 10.1277C21.7974 10.9534 20.992 11.4917 20.0983 11.4917C18.8775 11.4917 17.8883 10.5025 17.8883 9.28171Z" fill="#9E66BF" stroke="#9E66BF" stroke-width="0.6"/>
</g>
<defs>
<clipPath id="clip0">
<rect width="26" height="26" fill="white"/>
</clipPath>
</defs>
</svg>
