<svg width="26" height="26" viewBox="0 0 26 26" fill="none" xmlns="http://www.w3.org/2000/svg">
<path d="M9.92188 16.4711H6.85655C6.63423 16.4711 6.45386 16.6514 6.45386 16.8738C6.45386 17.0961 6.63423 17.2765 6.85655 17.2765H9.92296C10.1453 17.2765 10.3257 17.0961 10.3257 16.8738C10.3246 16.6514 10.1442 16.4711 9.92191 16.4711H9.92188Z" fill="#FC6D26"/>
<path d="M24.0034 18.6927L20.7504 15.4397C21.3576 14.5997 21.7204 13.571 21.7204 12.4552C21.7204 10.8601 20.9874 9.43712 19.8401 8.50152V5.20746C19.8401 4.61706 19.3567 4.13361 18.7663 4.13361H4.69391C4.10351 4.13361 3.62006 4.61706 3.62006 5.20746V22.9261C3.62006 23.5165 4.10351 24 4.69391 24H18.7674C19.3578 24 19.8412 23.5165 19.8412 22.9261V16.4285L23.0555 19.6428C23.1866 19.7739 23.3586 19.8389 23.5306 19.8389C23.7026 19.8389 23.8735 19.7739 24.0056 19.6428C24.2657 19.3796 24.2656 18.9559 24.0034 18.6927ZM20.378 12.4563C20.378 14.5285 18.6918 16.2148 16.6195 16.2148C15.8257 16.2148 15.0895 15.9652 14.4813 15.5436H16.3511C16.5734 15.5436 16.7538 15.3632 16.7538 15.1409C16.7538 14.9186 16.5734 14.7382 16.3511 14.7382H13.639C13.2301 14.2055 12.9584 13.5616 12.8829 12.859H16.351C16.5733 12.859 16.7537 12.6786 16.7537 12.4563C16.7537 12.234 16.5733 12.0536 16.351 12.0536H12.8829C12.9584 11.351 13.2301 10.7071 13.639 10.1743H16.35C16.5723 10.1743 16.7527 9.99395 16.7527 9.77163C16.7527 9.54931 16.5723 9.36893 16.35 9.36893H14.4802C15.0884 8.94736 15.8246 8.69777 16.6185 8.69777C18.6917 8.69777 20.378 10.3841 20.378 12.4563ZM4.96227 5.4762H18.4977V7.71726C17.9157 7.48655 17.2833 7.35545 16.6195 7.35545C14.9636 7.35545 13.4975 8.1472 12.5652 9.36893H7.76018C7.53786 9.36893 7.35749 9.54931 7.35749 9.77163C7.35749 9.99395 7.53786 10.1743 7.76018 10.1743H12.0618C11.7745 10.748 11.5909 11.3814 11.5385 12.0536H7.76013C7.53781 12.0536 7.35743 12.234 7.35743 12.4563C7.35743 12.6786 7.53781 12.859 7.76013 12.859H11.5385C11.5909 13.5312 11.7745 14.1646 12.0618 14.7382H7.76018C7.53786 14.7382 7.35749 14.9186 7.35749 15.1409C7.35749 15.3632 7.53786 15.5436 7.76018 15.5436H12.5652C13.4975 16.7653 14.9635 17.5571 16.6195 17.5571C17.2844 17.5571 17.9167 17.426 18.4988 17.1953V19.2476L18.4977 19.817V21.1111L18.4967 21.6816L18.4988 22.6579H18.181L17.6106 22.6579H16.3154H15.747H4.96227L4.96227 5.4762Z" fill="#FC6D26" fill-opacity="0.2"/>
<path d="M23.0997 17.7409L19.8467 14.4879C20.4539 13.6479 20.8168 12.6192 20.8168 11.5034C20.8168 9.90833 20.0837 8.48531 18.9365 7.54971V4.25565C18.9365 3.66524 18.453 3.18179 17.8626 3.18179H3.79026C3.19985 3.18179 2.7164 3.66524 2.7164 4.25565V21.9743C2.7164 22.5647 3.19985 23.0482 3.79026 23.0482H17.8637C18.4541 23.0482 18.9376 22.5647 18.9376 21.9743V15.4767L22.1519 18.691C22.283 18.8221 22.455 18.8871 22.6269 18.8871C22.7989 18.8871 22.9698 18.8221 23.102 18.691C23.3621 18.4278 23.3619 18.0041 23.0997 17.7409ZM19.4744 11.5045C19.4744 13.5767 17.7881 15.263 15.7159 15.263C14.922 15.263 14.1858 15.0134 13.5776 14.5918H15.4474C15.6697 14.5918 15.8501 14.4114 15.8501 14.1891C15.8501 13.9668 15.6697 13.7864 15.4474 13.7864H12.7354C12.3264 13.2537 12.0548 12.6098 11.9793 11.9072H15.4473C15.6696 11.9072 15.85 11.7268 15.85 11.5045C15.85 11.2821 15.6696 11.1018 15.4473 11.1018H11.9793C12.0548 10.3991 12.3264 9.75525 12.7354 9.22251H15.4463C15.6687 9.22251 15.849 9.04214 15.849 8.81982C15.849 8.5975 15.6687 8.41712 15.4463 8.41712H13.5765C14.1848 7.99555 14.921 7.74596 15.7148 7.74596C17.7881 7.74596 19.4744 9.43224 19.4744 11.5045ZM4.05862 4.52438H17.5941V6.76545C17.012 6.53473 16.3797 6.40364 15.7159 6.40364C14.06 6.40364 12.5939 7.19539 11.6615 8.41712H6.85653C6.63421 8.41712 6.45383 8.5975 6.45383 8.81982C6.45383 9.04214 6.63421 9.22251 6.85653 9.22251H11.1581C10.8708 9.79614 10.6873 10.4296 10.6348 11.1018H6.85647C6.63415 11.1018 6.45378 11.2821 6.45378 11.5045C6.45378 11.7268 6.63415 11.9072 6.85647 11.9072H10.6348C10.6873 12.5794 10.8708 13.2128 11.1581 13.7864H6.85653C6.63421 13.7864 6.45383 13.9668 6.45383 14.1891C6.45383 14.4114 6.63421 14.5918 6.85653 14.5918H11.6615C12.5938 15.8135 14.0599 16.6053 15.7159 16.6053C16.3807 16.6053 17.0131 16.4742 17.5951 16.2435V18.2958L17.5941 18.8652V20.1593L17.593 20.7298L17.5951 21.7061H17.2774L16.7069 21.7061H15.4118H14.8434H4.05862L4.05862 4.52438Z" fill="#FC6D26"/>
<path d="M18.0481 10.3141C17.8352 10.3791 17.7156 10.6046 17.7806 10.8164C17.8499 11.0408 17.8845 11.2705 17.8845 11.4991C17.8845 11.7309 17.8488 11.9637 17.7785 12.1902C17.7125 12.402 17.832 12.6286 18.0439 12.6936C18.0837 12.7062 18.1236 12.7114 18.1624 12.7114C18.3344 12.7114 18.4938 12.6002 18.5472 12.4272C18.6416 12.1231 18.6888 11.8106 18.6888 11.4981C18.6888 11.1898 18.6416 10.8804 18.5504 10.5794C18.4854 10.3686 18.261 10.248 18.0481 10.3141L18.0481 10.3141Z" fill="#FC6D26"/>
</svg>
