<svg width="28" height="28" viewBox="0 0 28 28" fill="none" xmlns="http://www.w3.org/2000/svg">
<path d="M23.3106 16.548C24.9991 15.2138 25.9524 13.4157 25.9524 11.5091C25.9524 7.61394 22.0308 4.45523 17.2365 4.45523C14.132 4.45523 11.4347 5.76284 9.88241 7.75149C9.52811 7.72382 9.14722 7.69722 8.79292 7.69722C3.99862 7.69722 0.0769958 10.8573 0.0769958 14.7511C0.0769958 16.6577 1.0303 18.4824 2.71879 19.79C2.58261 20.2528 2.36449 20.6891 2.11979 21.07C1.73891 21.6424 1.76549 22.3776 2.20172 22.9223C2.44643 23.2489 2.82839 23.4947 3.23695 23.549C3.31887 23.549 3.4008 23.5767 3.48166 23.5767C3.64551 23.5767 3.80829 23.549 3.97215 23.4947C5.03397 23.1681 6.15113 22.5414 7.29482 21.67C7.8119 21.752 8.30238 21.7786 8.79287 21.7786C11.8974 21.7786 14.6211 20.471 16.1469 18.4823C16.5012 18.51 16.8555 18.5366 17.2364 18.5366C17.7269 18.5366 18.244 18.5089 18.7345 18.4281C19.8782 19.3271 20.9954 19.9261 22.0572 20.2804C22.221 20.3347 22.3838 20.3623 22.5476 20.3623C22.6296 20.3623 22.7115 20.3623 22.7924 20.3347C23.2009 20.2804 23.5818 20.0346 23.8276 19.708C24.2361 19.1632 24.2638 18.4281 23.9095 17.8556C23.6648 17.4471 23.4467 17.0108 23.3105 16.548H23.3106ZM8.79287 20.2793C8.27579 20.2793 7.73105 20.225 7.21289 20.1431C6.99478 20.1154 6.77666 20.1707 6.61389 20.3069C5.52439 21.206 4.46258 21.805 3.5358 22.0774L3.39962 22.0231C3.37195 21.9688 3.37195 21.9146 3.39962 21.8869C3.83585 21.206 4.16248 20.4708 4.32525 19.6537C4.37951 19.3536 4.27099 19.0547 4.0252 18.8642C2.44628 17.8003 1.57491 16.3022 1.57491 14.7233C1.57491 11.673 4.8156 9.16748 8.79279 9.16748C12.77 9.16748 16.0107 11.6465 16.0107 14.7233C16.0107 17.8003 12.77 20.2792 8.79279 20.2792L8.79287 20.2793ZM22.0307 15.6212C21.786 15.785 21.6498 16.1116 21.7307 16.4106C21.9211 17.2277 22.2212 17.9629 22.6563 18.6438C22.684 18.6981 22.684 18.7524 22.6563 18.78L22.5201 18.8343C21.5668 18.5342 20.5316 17.9352 19.442 17.0639C19.3059 16.9553 19.142 16.9 18.9792 16.9H18.843C18.2983 16.9819 17.7812 17.0362 17.2631 17.0362H17.0449C17.345 16.301 17.5354 15.5381 17.5354 14.721C17.5354 11.6165 15.0564 9.0012 11.5974 8.0479C12.9316 6.76796 14.9479 5.92317 17.2631 5.92317C21.2402 5.92317 24.4809 8.4022 24.4809 11.479C24.4543 13.0611 23.583 14.5868 22.0306 15.621L22.0307 15.6212Z" fill="#1FAAEE"/>
<path d="M24.3582 17.5956C26.0467 16.2614 27 14.4633 27 12.5567C27 8.66151 23.0784 5.50281 18.2841 5.50281C15.1796 5.50281 12.4823 6.81041 10.93 8.79906C10.5757 8.7714 10.1948 8.7448 9.84053 8.7448C5.04622 8.7448 1.1246 11.9049 1.1246 15.7987C1.1246 17.7053 2.07791 19.5299 3.7664 20.8376C3.63021 21.3004 3.4121 21.7367 3.1674 22.1175C2.78651 22.69 2.8131 23.4251 3.24932 23.9699C3.49403 24.2965 3.876 24.5423 4.28456 24.5966C4.36648 24.5966 4.44841 24.6242 4.52927 24.6242C4.69312 24.6242 4.8559 24.5966 5.01976 24.5423C6.08157 24.2157 7.19874 23.589 8.34243 22.7176C8.8595 22.7995 9.34999 22.8261 9.84048 22.8261C12.945 22.8261 15.6687 21.5185 17.1945 19.5299C17.5488 19.5576 17.9031 19.5842 18.284 19.5842C18.7745 19.5842 19.2916 19.5565 19.7821 19.4756C20.9258 20.3747 22.043 20.9737 23.1048 21.328C23.2686 21.3822 23.4314 21.4099 23.5952 21.4099C23.6772 21.4099 23.7591 21.4099 23.84 21.3822C24.2485 21.328 24.6294 21.0822 24.8752 20.7556C25.2837 20.2108 25.3114 19.4756 24.9571 18.9032C24.7124 18.4947 24.4943 18.0584 24.3581 17.5956H24.3582ZM9.84047 21.3268C9.3234 21.3268 8.77866 21.2726 8.26049 21.1907C8.04238 21.163 7.82426 21.2183 7.66149 21.3545C6.572 22.2536 5.51018 22.8526 4.58341 23.1249L4.44722 23.0707C4.41956 23.0164 4.41956 22.9621 4.44722 22.9345C4.88346 22.2536 5.21008 21.5184 5.37285 20.7012C5.42712 20.4012 5.31859 20.1022 5.07281 19.9118C3.49389 18.8479 2.62252 17.3498 2.62252 15.7709C2.62252 12.7206 5.86321 10.2151 9.84039 10.2151C13.8176 10.2151 17.0583 12.6941 17.0583 15.7709C17.0583 18.8479 13.8176 21.3268 9.84039 21.3268L9.84047 21.3268ZM23.0783 16.6687C22.8336 16.8326 22.6974 17.1592 22.7783 17.4582C22.9687 18.2753 23.2688 19.0105 23.7039 19.6914C23.7316 19.7457 23.7316 19.7999 23.7039 19.8276L23.5677 19.8819C22.6144 19.5818 21.5792 18.9828 20.4896 18.1114C20.3535 18.0029 20.1896 17.9476 20.0268 17.9476H19.8906C19.3459 18.0295 18.8288 18.0838 18.3107 18.0838H18.0926C18.3926 17.3486 18.583 16.5857 18.583 15.7686C18.583 12.6641 16.104 10.0488 12.645 9.09547C13.9792 7.81554 15.9955 6.97075 18.3107 6.97075C22.2879 6.97075 25.5285 9.44978 25.5285 12.5266C25.5019 14.1087 24.6306 15.6344 23.0783 16.6686L23.0783 16.6687Z" fill="#1FAAEE" fill-opacity="0.2"/>
<path d="M8.82067 10.8824C7.15876 10.8824 6.39699 12.0804 6.23313 13.1156C6.20547 13.2518 6.26079 13.388 6.34165 13.4965C6.42358 13.6051 6.55976 13.6604 6.69596 13.6604H7.29496C7.51307 13.6604 7.73119 13.4965 7.75777 13.2518C7.8663 12.6794 8.22059 12.407 8.81959 12.407C9.39201 12.407 9.63671 12.7071 9.74522 12.8975C9.88141 13.1699 9.85375 13.4699 9.69096 13.687C9.52711 13.9317 9.36433 14.0413 9.17389 14.1775C8.6834 14.5318 8.24826 14.9126 8.16633 15.9479C8.16633 16.0841 8.19399 16.2202 8.30251 16.3022C8.38444 16.4107 8.52062 16.466 8.65682 16.466H9.20156C9.44627 16.466 9.66438 16.2756 9.66438 16.0298C9.69204 15.6489 9.7729 15.5936 10.0187 15.4308C10.2634 15.2669 10.5911 15.0499 10.8901 14.586C11.4071 13.9051 11.4625 12.9794 11.0805 12.2166C10.6719 11.3728 9.82822 10.8824 8.82065 10.8824L8.82067 10.8824Z" fill="#1FAAEE"/>
<path d="M9.80039 17.8557C9.80039 19.0537 8.00336 19.0537 8.00336 17.8557C8.00336 16.6566 9.80039 16.6566 9.80039 17.8557Z" fill="#1FAAEE"/>
</svg>
