<svg width="10" height="10" viewBox="0 0 10 10" fill="none" xmlns="http://www.w3.org/2000/svg">
<path d="M8.77703 4.26115H5.59596V1.22295C5.59596 1.04423 5.52429 0.877616 5.40514 0.746365C5.27389 0.615115 5.10728 0.555542 4.92856 0.555542C4.74984 0.555542 4.58323 0.627215 4.45198 0.746365C4.32073 0.877616 4.26115 1.04423 4.26115 1.22295V4.26115H1.22295C1.04423 4.26115 0.877616 4.33283 0.746365 4.45198C0.615115 4.58323 0.555542 4.74984 0.555542 4.92856C0.555542 5.27389 0.877139 5.59596 1.22295 5.59596H4.26115V8.77703C4.26115 8.95574 4.33283 9.12236 4.45198 9.25361C4.58323 9.38486 4.74984 9.44443 4.92856 9.44443C5.10728 9.44443 5.27389 9.37276 5.40514 9.25361C5.53639 9.12236 5.59596 8.95574 5.59596 8.77703V5.59596H8.77703C8.95574 5.59596 9.12236 5.52429 9.25361 5.40514C9.38486 5.27389 9.44443 5.10728 9.44443 4.92856C9.44443 4.74984 9.37276 4.58323 9.25361 4.45198C9.12282 4.33237 8.95574 4.26115 8.77703 4.26115Z" fill="white"/>
</svg>
