<svg width="30" height="29" viewBox="0 0 30 29" fill="none" xmlns="http://www.w3.org/2000/svg">
<g filter="url(#filter0_d)">
<path d="M7.43887 23.5579L8.63341 23.2087L7.18377 14.2211L2.99389 13.8858L4.0807 24.5395L6.51104 23.8291L5.66089 19.57C5.60884 19.3092 5.77804 19.0556 6.03881 19.0036C6.29958 18.9515 6.55317 19.1207 6.60522 19.3815L7.43887 23.5579ZM7.69428 13.351C8.12474 12.0771 9.55698 10.7046 11.395 9.67856C12.6823 8.95998 12.8209 5.46692 12.2273 2.51248C11.9731 1.24686 13.3543 0.799307 14.7988 1.2507C16.2739 1.71167 17.4096 2.91061 17.5813 4.54753C17.7887 6.52557 17.9643 8.5027 18.108 10.4789C21.5714 10.1759 21.6556 10.1685 23.6155 9.99707C25.369 9.84366 26.9773 11.7269 27.1446 13.6388C27.2156 14.4504 26.9426 15.3503 26.4744 16.1056C26.9413 16.7566 27.1644 17.8976 26.977 18.907C26.8109 19.8023 26.3579 20.5332 25.6322 21.0135C26.0325 22.6008 24.9753 24.982 23.0775 25.148L19.5537 25.4563C18.4661 25.5515 17.5627 24.5923 17.4715 23.5496C17.4129 22.8793 17.7223 22.078 18.2231 21.5748C17.804 21.2297 17.536 20.6768 17.4892 19.9506C17.4267 18.978 17.7416 18.0824 18.3011 17.5815C17.9077 17.1975 17.6731 16.6451 17.6151 15.9822C17.507 14.7462 18.2854 13.7691 19.5193 13.6612C20.1868 13.6028 21.3357 13.5565 22.973 13.5215C23.2388 13.5158 23.4589 13.7267 23.4646 13.9926C23.4703 14.2584 23.2594 14.4786 22.9935 14.4842C21.3762 14.5188 20.2438 14.5645 19.6032 14.6205C18.9103 14.6811 18.5117 15.1815 18.5744 15.8983C18.6479 16.7387 19.0692 17.2022 19.875 17.2077C21.0139 17.2155 22.923 17.0484 24.1725 16.8313C25.1869 16.655 26.2958 14.986 26.1853 13.7227C26.0595 12.2845 24.84 10.8566 23.6995 10.9564L17.2166 11.5235L17.1823 11.0349C17.0332 8.907 16.8469 6.77803 16.6235 4.64796C16.4951 3.42325 15.6426 2.52329 14.5115 2.16983C13.6429 1.89839 13.1202 2.06778 13.1714 2.32282C13.8556 5.72831 13.7063 9.4912 11.8644 10.5194C9.86194 11.6372 8.42752 13.2153 8.5287 14.2054C8.56373 14.5482 8.62641 14.971 8.73283 15.6019C8.77024 15.8237 8.99437 17.1149 9.06457 17.532C9.28224 18.8255 9.45105 19.9584 9.59721 21.1718C9.89562 23.649 11.3096 24.4767 15.3382 24.1242C15.6031 24.1011 15.8366 24.297 15.8598 24.5619C15.883 24.8268 15.687 25.0604 15.4221 25.0835C12.3829 25.3494 10.5269 24.9782 9.52571 23.7197C9.43078 23.8912 9.27073 24.0257 9.07009 24.0843L4.12419 25.53C3.7179 25.6488 3.29226 25.4157 3.1735 25.0094C3.16039 24.9646 3.15141 24.9186 3.14667 24.8721L2.01197 13.7488C1.96901 13.3277 2.27556 12.9515 2.69667 12.9086C2.74283 12.9039 2.78933 12.9034 2.83559 12.9071L7.41435 13.2735C7.51413 13.2815 7.6087 13.3085 7.69428 13.351ZM24.7356 21.4331C24.4699 21.5159 24.1819 21.5753 23.8721 21.6091C21.9357 21.8207 21.059 21.8974 20.3404 21.9347C20.2145 21.9411 20.2145 21.9411 20.0996 21.947C19.9433 21.9554 19.8194 21.9638 19.6656 21.9772C19.5928 21.9836 19.5212 21.9868 19.4508 21.987C19.3926 22.02 19.3265 22.0414 19.2554 22.0476C18.8623 22.082 18.3819 22.9069 18.4308 23.4656C18.4795 24.0217 18.9684 24.5409 19.4697 24.497L22.9936 24.1887C24.1418 24.0883 24.8853 22.5009 24.7356 21.4331ZM19.3694 18.1234C19.3532 18.1262 19.3366 18.1282 19.3198 18.1294C18.8236 18.1633 18.3878 18.9191 18.4502 19.8888C18.5041 20.7254 18.9159 21.0762 19.5817 21.0179C19.7472 21.0035 19.8818 20.9943 20.0483 20.9854C20.1667 20.9793 20.1667 20.9793 20.2905 20.973C20.9882 20.9368 21.8478 20.8616 23.7675 20.6519C25.1096 20.5052 25.8318 19.8008 26.0302 18.7313C26.1491 18.0907 26.0426 17.3721 25.8381 16.9181C25.3928 17.3679 24.8722 17.6871 24.3374 17.7801C23.0327 18.0068 21.0663 18.1788 19.8684 18.1706C19.6926 18.1694 19.5262 18.1534 19.3694 18.1234ZM10.7628 3.1428C11.0038 3.25531 11.1079 3.54184 10.9954 3.78278C10.8828 4.02372 10.5963 4.12783 10.3554 4.01532L7.81814 2.83051C7.57721 2.71799 7.47309 2.43147 7.5856 2.19053C7.69812 1.94959 7.98464 1.84548 8.22558 1.95799L10.7628 3.1428ZM18.8648 2.7069C18.6296 2.83103 18.3384 2.74101 18.2142 2.50584C18.0901 2.27068 18.1801 1.97941 18.4153 1.85529L20.268 0.877379C20.5032 0.753252 20.7944 0.843268 20.9186 1.07843C21.0427 1.3136 20.9527 1.60487 20.7175 1.72899L18.8648 2.7069ZM19.3786 6.22449C19.1143 6.19526 18.9237 5.95731 18.9529 5.693C18.9821 5.4287 19.2201 5.23813 19.4844 5.26736L21.9246 5.53719C22.1889 5.56641 22.3795 5.80436 22.3502 6.06867C22.321 6.33297 22.0831 6.52354 21.8188 6.49432L19.3786 6.22449ZM10.3911 5.66983C10.6286 5.55023 10.9181 5.6458 11.0377 5.8833C11.1573 6.1208 11.0618 6.41029 10.8243 6.52989L8.65806 7.62077C8.42056 7.74037 8.13107 7.6448 8.01147 7.4073C7.89187 7.1698 7.98744 6.88031 8.22494 6.76071L10.3911 5.66983Z" fill="#60D957"/>
</g>
<path d="M7.43887 23.5579L8.63341 23.2087L7.18377 14.2211L2.99389 13.8858L4.0807 24.5395L6.51104 23.8291L5.66089 19.57C5.60884 19.3092 5.77804 19.0556 6.03881 19.0036C6.29958 18.9515 6.55317 19.1207 6.60522 19.3815L7.43887 23.5579ZM7.69428 13.351C8.12474 12.0771 9.55698 10.7046 11.395 9.67856C12.6823 8.95998 12.8209 5.46692 12.2273 2.51248C11.9731 1.24686 13.3543 0.799307 14.7988 1.2507C16.2739 1.71167 17.4096 2.91061 17.5813 4.54753C17.7887 6.52557 17.9643 8.5027 18.108 10.4789C21.5714 10.1759 21.6556 10.1685 23.6155 9.99707C25.369 9.84366 26.9773 11.7269 27.1446 13.6388C27.2156 14.4504 26.9426 15.3503 26.4744 16.1056C26.9413 16.7566 27.1644 17.8976 26.977 18.907C26.8109 19.8023 26.3579 20.5332 25.6322 21.0135C26.0325 22.6008 24.9753 24.982 23.0775 25.148L19.5537 25.4563C18.4661 25.5515 17.5627 24.5923 17.4715 23.5496C17.4129 22.8793 17.7223 22.078 18.2231 21.5748C17.804 21.2297 17.536 20.6768 17.4892 19.9506C17.4267 18.978 17.7416 18.0824 18.3011 17.5815C17.9077 17.1975 17.6731 16.6451 17.6151 15.9822C17.507 14.7462 18.2854 13.7691 19.5193 13.6612C20.1868 13.6028 21.3357 13.5565 22.973 13.5215C23.2388 13.5158 23.4589 13.7267 23.4646 13.9926C23.4703 14.2584 23.2594 14.4786 22.9935 14.4842C21.3762 14.5188 20.2438 14.5645 19.6032 14.6205C18.9103 14.6811 18.5117 15.1815 18.5744 15.8983C18.6479 16.7387 19.0692 17.2022 19.875 17.2077C21.0139 17.2155 22.923 17.0484 24.1725 16.8313C25.1869 16.655 26.2958 14.986 26.1853 13.7227C26.0595 12.2845 24.84 10.8566 23.6995 10.9564L17.2166 11.5235L17.1823 11.0349C17.0332 8.907 16.8469 6.77803 16.6235 4.64796C16.4951 3.42325 15.6426 2.52329 14.5115 2.16983C13.6429 1.89839 13.1202 2.06778 13.1714 2.32282C13.8556 5.72831 13.7063 9.4912 11.8644 10.5194C9.86194 11.6372 8.42752 13.2153 8.5287 14.2054C8.56373 14.5482 8.62641 14.971 8.73283 15.6019C8.77024 15.8237 8.99437 17.1149 9.06457 17.532C9.28224 18.8255 9.45105 19.9584 9.59721 21.1718C9.89562 23.649 11.3096 24.4767 15.3382 24.1242C15.6031 24.1011 15.8366 24.297 15.8598 24.5619C15.883 24.8268 15.687 25.0604 15.4221 25.0835C12.3829 25.3494 10.5269 24.9782 9.52571 23.7197C9.43078 23.8912 9.27073 24.0257 9.07009 24.0843L4.12419 25.53C3.7179 25.6488 3.29226 25.4157 3.1735 25.0094C3.16039 24.9646 3.15141 24.9186 3.14667 24.8721L2.01197 13.7488C1.96901 13.3277 2.27556 12.9515 2.69667 12.9086C2.74283 12.9039 2.78933 12.9034 2.83559 12.9071L7.41435 13.2735C7.51413 13.2815 7.6087 13.3085 7.69428 13.351ZM24.7356 21.4331C24.4699 21.5159 24.1819 21.5753 23.8721 21.6091C21.9357 21.8207 21.059 21.8974 20.3404 21.9347C20.2145 21.9411 20.2145 21.9411 20.0996 21.947C19.9433 21.9554 19.8194 21.9638 19.6656 21.9772C19.5928 21.9836 19.5212 21.9868 19.4508 21.987C19.3926 22.02 19.3265 22.0414 19.2554 22.0476C18.8623 22.082 18.3819 22.9069 18.4308 23.4656C18.4795 24.0217 18.9684 24.5409 19.4697 24.497L22.9936 24.1887C24.1418 24.0883 24.8853 22.5009 24.7356 21.4331ZM19.3694 18.1234C19.3532 18.1262 19.3366 18.1282 19.3198 18.1294C18.8236 18.1633 18.3878 18.9191 18.4502 19.8888C18.5041 20.7254 18.9159 21.0762 19.5817 21.0179C19.7472 21.0035 19.8818 20.9943 20.0483 20.9854C20.1667 20.9793 20.1667 20.9793 20.2905 20.973C20.9882 20.9368 21.8478 20.8616 23.7675 20.6519C25.1096 20.5052 25.8318 19.8008 26.0302 18.7313C26.1491 18.0907 26.0426 17.3721 25.8381 16.9181C25.3928 17.3679 24.8722 17.6871 24.3374 17.7801C23.0327 18.0068 21.0663 18.1788 19.8684 18.1706C19.6926 18.1694 19.5262 18.1534 19.3694 18.1234ZM10.7628 3.1428C11.0038 3.25531 11.1079 3.54184 10.9954 3.78278C10.8828 4.02372 10.5963 4.12783 10.3554 4.01532L7.81814 2.83051C7.57721 2.71799 7.47309 2.43147 7.5856 2.19053C7.69812 1.94959 7.98464 1.84548 8.22558 1.95799L10.7628 3.1428ZM18.8648 2.7069C18.6296 2.83103 18.3384 2.74101 18.2142 2.50584C18.0901 2.27068 18.1801 1.97941 18.4153 1.85529L20.268 0.877379C20.5032 0.753252 20.7944 0.843268 20.9186 1.07843C21.0427 1.3136 20.9527 1.60487 20.7175 1.72899L18.8648 2.7069ZM19.3786 6.22449C19.1143 6.19526 18.9237 5.95731 18.9529 5.693C18.9821 5.4287 19.2201 5.23813 19.4844 5.26736L21.9246 5.53719C22.1889 5.56641 22.3795 5.80436 22.3502 6.06867C22.321 6.33297 22.0831 6.52354 21.8188 6.49432L19.3786 6.22449ZM10.3911 5.66983C10.6286 5.55023 10.9181 5.6458 11.0377 5.8833C11.1573 6.1208 11.0618 6.41029 10.8243 6.52989L8.65806 7.62077C8.42056 7.74037 8.13107 7.6448 8.01147 7.4073C7.89187 7.1698 7.98744 6.88031 8.22494 6.76071L10.3911 5.66983Z" fill="#60D957"/>
<path d="M5.81162 19.0579C6.3618 19.0097 6.76879 18.5247 6.72066 17.9745C6.67252 17.4243 6.18749 17.0173 5.63731 17.0655C5.08712 17.1136 4.68013 17.5986 4.72827 18.1488C4.7764 18.699 5.26144 19.106 5.81162 19.0579Z" fill="#60D957"/>
<defs>
<filter id="filter0_d" x="0" y="0" width="29.113" height="28.8905" filterUnits="userSpaceOnUse" color-interpolation-filters="sRGB">
<feFlood flood-opacity="0" result="BackgroundImageFix"/>
<feColorMatrix in="SourceAlpha" type="matrix" values="0 0 0 0 0 0 0 0 0 0 0 0 0 0 0 0 0 0 127 0"/>
<feOffset dy="1"/>
<feGaussianBlur stdDeviation="0.5"/>
<feColorMatrix type="matrix" values="0 0 0 0 0 0 0 0 0 0 0 0 0 0 0 0 0 0 0.1 0"/>
<feBlend mode="normal" in2="BackgroundImageFix" result="effect1_dropShadow"/>
<feBlend mode="normal" in="SourceGraphic" in2="effect1_dropShadow" result="shape"/>
</filter>
</defs>
</svg>
