<svg width="23" height="26" viewBox="0 0 23 26" fill="none" xmlns="http://www.w3.org/2000/svg">
<path d="M11.7841 7.31685L2.99017 8.07776C1.89103 8.17287 1.07795 9.13121 1.17412 10.2183L2.3076 23.0317C2.40376 24.1188 3.37274 24.9229 4.47188 24.8278L13.2658 24.0669C14.3649 23.9718 15.178 23.0135 15.0818 21.9264L13.9484 9.11295C13.8522 8.02588 12.8832 7.22174 11.7841 7.31685Z" fill="#43CB54" fill-opacity="0.25" stroke="#43CB54" stroke-width="1.25"/>
<path d="M10.0959 1.17223L20.1311 2.04055C21.2304 2.13567 22.0436 3.09416 21.9474 4.18139L20.7052 18.2247C20.609 19.3119 19.6399 20.1162 18.5406 20.0211L8.50538 19.1527C7.40607 19.0576 6.59288 18.0991 6.68905 17.0119L7.93133 2.96861C8.0275 1.88138 8.99663 1.07711 10.0959 1.17223Z" fill="#43CB54" fill-opacity="0.25" stroke="#43CB54" stroke-width="1.25" stroke-linecap="round" stroke-dasharray="0.12 0.12 2.23 2.82"/>
</svg>
