<svg width="76" height="76" viewBox="0 0 76 76" fill="none" xmlns="http://www.w3.org/2000/svg">
<path d="M2.46567 4.0002C2.11042 3.99561 1.75846 4.06905 1.43452 4.21537C1.11058 4.36169 0.822511 4.57734 0.59053 4.84718C0.358553 5.11702 0.188288 5.43451 0.0916938 5.77735C-0.00489975 6.1202 -0.0254815 6.4801 0.0313937 6.83177L10.3649 69.7366C10.4937 70.5063 10.8888 71.2059 11.4809 71.7127C12.073 72.2191 12.8241 72.5005 13.6025 72.5068H63.1767C63.76 72.5145 64.3268 72.3115 64.7736 71.9353C65.2204 71.559 65.5175 71.0341 65.6109 70.4565L75.9688 6.85618C76.0254 6.5045 76.0049 6.14461 75.9083 5.80177C75.8117 5.45892 75.6416 5.14143 75.4095 4.87159C75.1777 4.60175 74.8896 4.3861 74.5656 4.23978C74.2416 4.09346 73.8898 4.02002 73.5345 4.02461L2.46567 4.0002ZM45.9785 49.4638H30.1556L25.8713 27.0311H49.8124L45.9785 49.4638Z" fill="#2684FF"/>
<path d="M72.7885 27.5493H50.0069L46.1835 49.7206H30.4051L11.7744 71.7107C12.3649 72.2181 13.1178 72.5003 13.8984 72.5069H63.3458C63.9274 72.5144 64.4927 72.3139 64.9382 71.942C65.3838 71.5697 65.68 71.0513 65.7731 70.4804L72.7885 27.5493Z" fill="url(#paint10_linear)"/>
<defs>
<linearGradient id="paint10_linear" x1="78.056" y1="33.7495" x2="40.5824" y2="63.1894" gradientUnits="userSpaceOnUse">
<stop offset="0.18" stop-color="#0052CC"/>
<stop offset="1" stop-color="#2684FF"/>
</linearGradient>
</defs>
</svg>
