<svg width="18" height="16" viewBox="0 0 18 16" fill="none" xmlns="http://www.w3.org/2000/svg">
<path d="M0.577351 4.74084e-05C0.494166 -0.00102548 0.411754 0.0161239 0.335902 0.0502908C0.26005 0.0844577 0.192596 0.134814 0.138276 0.197824C0.0839569 0.260835 0.0440886 0.334972 0.0214707 0.415031C-0.00114731 0.495089 -0.00596665 0.579128 0.00735102 0.661248L2.427 15.3502C2.45715 15.5299 2.54967 15.6933 2.68831 15.8116C2.82695 15.9299 3.00285 15.9956 3.1851 15.9971H14.7932C14.9298 15.9989 15.0625 15.9515 15.1671 15.8636C15.2717 15.7757 15.3413 15.6532 15.3632 15.5183L17.7885 0.666948C17.8018 0.584828 17.797 0.500789 17.7744 0.420731C17.7518 0.340672 17.7119 0.266535 17.6576 0.203525C17.6033 0.140514 17.5358 0.0901578 17.46 0.0559909C17.3841 0.021824 17.3017 0.00467466 17.2185 0.00574754L0.577351 4.74084e-05ZM10.7661 10.6163H7.0611L6.0579 5.378H11.6639L10.7661 10.6163Z" fill="#2684FF"/>
<path d="M17.0135 5.37805H11.664L10.7663 10.6164H7.06128L2.68652 15.8119C2.82518 15.9318 3.00197 15.9985 3.18527 16H14.7962C14.9328 16.0018 15.0655 15.9544 15.1701 15.8665C15.2748 15.7786 15.3443 15.6561 15.3662 15.5212L17.0135 5.37805Z" fill="url(#paint0_linear)"/>
<defs>
<linearGradient id="paint0_linear" x1="18.2504" y1="6.84295" x2="9.40968" y2="13.7457" gradientUnits="userSpaceOnUse">
<stop offset="0.18" stop-color="#0052CC"/>
<stop offset="1" stop-color="#2684FF"/>
</linearGradient>
</defs>
</svg>
