<svg width="24" height="22" viewBox="0 0 24 22" fill="none" xmlns="http://www.w3.org/2000/svg">
<path d="M0.778632 6.39363e-05C0.666446 -0.00138299 0.555303 0.0217451 0.453007 0.0678236C0.35071 0.113902 0.25974 0.181814 0.186483 0.266792C0.113227 0.35177 0.0594592 0.451753 0.0289559 0.559722C-0.00154729 0.667691 -0.00804679 0.781029 0.00991379 0.891777L3.27312 20.7017C3.31378 20.9441 3.43856 21.1644 3.62553 21.324C3.81251 21.4835 4.04972 21.5721 4.29552 21.5741H19.9505C20.1347 21.5765 20.3137 21.5126 20.4548 21.3941C20.5959 21.2756 20.6897 21.1103 20.7192 20.9284L23.9901 0.899465C24.008 0.788716 24.0015 0.675379 23.971 0.56741C23.9405 0.45944 23.8868 0.359457 23.8135 0.274479C23.7403 0.189501 23.6493 0.121589 23.547 0.0755109C23.4447 0.0294324 23.3336 0.00630437 23.2214 0.0077513L0.778632 6.39363e-05ZM14.5195 14.3174H9.52281L8.16986 7.25292H15.7302L14.5195 14.3174Z" fill="#2684FF"/>
<path d="M22.9448 7.25293H15.7304L14.5196 14.3175H9.52296L3.62305 21.3243C3.81005 21.486 4.04847 21.5759 4.29568 21.578H19.9545C20.1387 21.5804 20.3177 21.5165 20.4588 21.398C20.5999 21.2794 20.6937 21.1142 20.7232 20.9323L22.9448 7.25293Z" fill="url(#paint0_linear)"/>
<defs>
<linearGradient id="paint0_linear" x1="24.6129" y1="9.22854" x2="12.6901" y2="18.5377" gradientUnits="userSpaceOnUse">
<stop offset="0.18" stop-color="#0052CC"/>
<stop offset="1" stop-color="#2684FF"/>
</linearGradient>
</defs>
</svg>
