<svg width="26" height="25" viewBox="0 0 26 25" fill="none" xmlns="http://www.w3.org/2000/svg">
<path d="M14 0H12C5.37258 0 0 5.37258 0 12V13C0 19.6274 5.37258 25 12 25H14C20.6274 25 26 19.6274 26 13V12C26 5.37258 20.6274 0 14 0Z" fill="#38383A"/>
<path fill-rule="evenodd" clip-rule="evenodd" d="M13.4207 5C14.4003 5 15.1797 5.83564 15.1797 6.85496C15.1797 7.87323 14.3758 8.70992 13.4207 8.70992C12.4411 8.70992 11.6362 7.87428 11.6362 6.82946C11.6618 5.80915 12.4401 5.00003 13.4207 5.00003V5ZM10.581 16.8847C10.6566 16.2317 10.7567 15.5522 10.8823 14.8992C11.058 13.7503 11.2593 12.6004 11.4605 11.4516C11.4605 11.373 11.486 11.2944 11.486 11.2424C11.486 10.772 11.3349 10.5894 10.8833 10.5373C10.6821 10.5108 10.4809 10.4853 10.3052 10.4333C10.0794 10.3547 9.97833 10.1721 10.0039 9.9629C10.0294 9.75373 10.155 9.62313 10.4063 9.59763C10.532 9.57111 10.6831 9.57111 10.8088 9.57111H12.4421H14.1755C14.578 9.57111 14.8292 9.78027 14.8538 10.1976C14.8538 10.5628 14.8037 10.9292 14.7536 11.2689C14.5279 12.5749 14.3011 13.9076 14.0499 15.2136C13.9743 15.6574 13.8987 16.0758 13.8486 16.5196C13.8231 16.7288 13.8486 16.9635 13.8987 17.1461C13.9743 17.4338 14.1755 17.5644 14.4268 17.5379C14.6526 17.5114 14.8793 17.4338 15.0805 17.3553C15.2562 17.2767 15.4074 17.1726 15.5831 17.0941C15.8344 16.99 16.0601 17.1726 15.9855 17.4593C15.9355 17.6165 15.8599 17.7726 15.7343 17.9032C15.0805 18.5827 14.3267 18.9745 13.3971 19C12.9702 19 12.5432 19 12.1152 18.9214C11.3604 18.7653 10.4554 17.8511 10.581 16.8849L10.581 16.8847Z" fill="white" stroke="#38383A" stroke-width="0.875"/>
</svg>
