<svg width="20" height="20" viewBox="0 0 20 20" fill="none" xmlns="http://www.w3.org/2000/svg">
<path d="M13.2137 7.72439L10.9058 10L13.2137 12.2756C13.3438 12.3969 13.417 12.5673 13.417 12.7449C13.417 12.9225 13.3438 13.0928 13.2137 13.2142C13.0923 13.3347 12.9284 13.4014 12.7572 13.4006C12.5885 13.3998 12.427 13.3331 12.3072 13.2142L9.99932 10.9063L7.72371 13.2142C7.60398 13.3331 7.44246 13.3998 7.27371 13.4006C7.10255 13.4014 6.93862 13.3347 6.81727 13.2142C6.56817 12.9634 6.56817 12.5584 6.81727 12.3077L9.09288 9.99984L6.81727 7.72422C6.5987 7.46949 6.61316 7.08861 6.85102 6.85154C7.08807 6.6137 7.46897 6.59921 7.7237 6.81779L9.99931 9.09341L12.2749 6.81779C12.5248 6.55824 12.9379 6.55181 13.1974 6.80172C13.457 7.05164 13.4634 7.46468 13.2135 7.72423L13.2137 7.72439ZM16.3636 16.3644C14.6761 18.0519 12.3867 19 9.99918 19C7.61248 19 5.32329 18.0518 3.63561 16.3636C1.94812 14.6761 1 12.3867 1 10C1 7.6133 1.94822 5.32411 3.63561 3.63643C5.32311 1.94814 7.61248 1 9.99918 1C12.3865 1 14.6759 1.94822 16.3636 3.63561C18.0519 5.32311 19 7.61248 19 10C19 12.3875 18.0518 14.6767 16.3636 16.3644ZM15.4571 4.54219C14.0091 3.09899 12.0476 2.28983 10.0024 2.29209C7.95814 2.2945 5.9982 3.10853 4.55347 4.55495C3.10865 6.00137 2.29781 7.96199 2.29781 10.0064C2.29781 12.0508 3.10861 14.0114 4.55347 15.4578C5.99828 16.9042 7.95825 17.7182 10.0024 17.7207C12.0475 17.7231 14.0091 16.9139 15.4571 15.4706C16.91 14.0233 17.7264 12.0569 17.7264 10.0064C17.7264 7.95582 16.9099 5.98939 15.4571 4.54219V4.54219Z" fill="#1E1E1E" stroke="#1E1E1E" stroke-width="0.25"/>
</svg>
