<svg width="16" height="11" viewBox="0 0 16 11" fill="none" xmlns="http://www.w3.org/2000/svg">
<path d="M7.83921 0.423645C8.39121 0.423645 8.84106 0.873495 8.84106 1.4255C8.84106 1.97751 8.39121 2.42736 7.83921 2.42736L1.8412 2.42736C1.28919 2.42736 0.839343 1.97751 0.839343 1.4255C0.839343 0.873496 1.28919 0.423646 1.8412 0.423646L7.83921 0.423645Z" fill="#3F3A40" stroke="white" stroke-width="0.6"/>
<path d="M14.6716 4.86966C14.6894 4.89402 14.696 4.92964 14.7072 4.95963C14.7372 5.01399 14.7616 5.07396 14.7794 5.13394C14.7916 5.16956 14.8094 5.19955 14.8215 5.2361C14.8272 5.27171 14.8215 5.3017 14.8215 5.33825C14.8215 5.36824 14.8394 5.39823 14.8394 5.42822C14.8394 5.45821 14.8215 5.4882 14.8215 5.51819C14.8159 5.55381 14.8272 5.5838 14.8215 5.62034C14.8159 5.65596 14.7916 5.68595 14.7794 5.7225C14.7616 5.78248 14.7372 5.84246 14.7072 5.89681C14.6894 5.9268 14.6894 5.95679 14.6716 5.98678L12.6745 8.98579C12.4823 9.2735 12.1646 9.43002 11.8403 9.43002C11.6482 9.43002 11.4561 9.37567 11.2883 9.26227C10.8263 8.95675 10.7063 8.33258 11.0128 7.87711L11.9781 6.43198L1.84148 6.42916C1.28947 6.42917 0.839624 5.97931 0.839624 5.42731C0.839624 4.8753 1.28947 4.42545 1.84148 4.42545L11.9726 4.42638L11.0073 2.98125C10.7018 2.51921 10.8274 1.90161 11.2828 1.59609C11.7449 1.29058 12.3625 1.41615 12.668 1.87162L14.6717 4.86966L14.6716 4.86966Z" fill="#3F3A40" stroke="white" stroke-width="0.6"/>
<path d="M1.8412 8.42255L7.83921 8.42255C8.39121 8.42255 8.84106 8.8724 8.84106 9.4244C8.84106 9.97548 8.39121 10.4197 7.83921 10.4197L1.8412 10.4197C1.28919 10.4197 0.839343 9.96984 0.839343 9.41783C0.839343 8.86582 1.28919 8.42255 1.8412 8.42255Z" fill="#3F3A40" stroke="white" stroke-width="0.6"/>
</svg>
