<svg width="24" height="24" viewBox="0 0 24 24" fill="none" xmlns="http://www.w3.org/2000/svg">
<rect x="0.5" y="4.5" width="19" height="19" rx="3.5" fill="white" stroke="#9E66BF"/>
<rect x="2.5" y="2.5" width="19" height="19" rx="3.5" fill="white" stroke="#9E66BF"/>
<rect x="4.5" y="0.5" width="19" height="19" rx="3.5" fill="white" stroke="#9E66BF"/>
<path d="M14.45 7.81117L9.91618 8.2089C9.34385 8.2591 8.92046 8.76491 8.97052 9.33864L9.54837 15.9612C9.59843 16.535 10.103 16.9593 10.6753 16.9091L15.2091 16.5114C15.7814 16.4612 16.2048 15.9554 16.1548 15.3817L15.5769 8.7591C15.5269 8.18537 15.0223 7.76096 14.45 7.81117Z" fill="#9E66BF" fill-opacity="0.1"/>
<path d="M13.41 7.29115L8.87614 7.68888C8.30381 7.73908 7.88043 8.24489 7.93049 8.81862L8.50833 15.4412C8.55839 16.0149 9.06294 16.4393 9.63527 16.3891L14.1691 15.9914C14.7414 15.9412 15.1648 15.4354 15.1147 14.8617L14.5369 8.23908C14.4868 7.66535 13.9823 7.24095 13.41 7.29115Z" stroke="#9E66BF"/>
<path d="M19.2838 5.06406L14.1032 4.61071C13.5309 4.56062 13.0262 4.98511 12.976 5.55883L12.3396 12.8305C12.2894 13.4042 12.7127 13.91 13.2851 13.96L18.4656 14.4134C19.038 14.4635 19.5426 14.0389 19.5928 13.4652L20.2292 6.19356C20.2794 5.61984 19.8561 5.11414 19.2838 5.06406Z" fill="#9E66BF" fill-opacity="0.1"/>
<path d="M18.2169 4.54404L13.0363 4.09069C12.464 4.0406 11.9593 4.46509 11.9091 5.03881L11.2727 12.3105C11.2225 12.8842 11.6458 13.3899 12.2182 13.44L17.3987 13.8934C17.9711 13.9435 18.4757 13.5189 18.5259 12.9452L19.1623 5.67354C19.2125 5.09982 18.7892 4.59412 18.2169 4.54404Z" stroke="#9E66BF" stroke-linecap="round" stroke-dasharray="0.08 0.08 1 1.8"/>
</svg>
