<svg width="24" height="24" viewBox="0 0 24 24" fill="none" xmlns="http://www.w3.org/2000/svg">
<rect x="0.5" y="4.5" width="19" height="19" rx="3.5" fill="#242425" stroke="#38383A"/>
<rect x="2.5" y="2.5" width="19" height="19" rx="3.5" fill="#242425" stroke="#38383A"/>
<rect x="4.5" y="0.5" width="19" height="19" rx="3.5" fill="#242425" stroke="#38383A"/>
<path d="M13.41 7.29113L8.87614 7.68886C8.30381 7.73907 7.88043 8.24487 7.93049 8.81861L8.50833 15.4412C8.55839 16.0149 9.06294 16.4393 9.63527 16.3891L14.1691 15.9914C14.7414 15.9412 15.1648 15.4354 15.1147 14.8617L14.5369 8.23906C14.4868 7.66533 13.9823 7.24093 13.41 7.29113Z" fill="#9E66BF" fill-opacity="0.25" stroke="#9E66BF"/>
<path d="M18.2169 4.54404L13.0363 4.09069C12.464 4.0406 11.9593 4.46509 11.9091 5.03881L11.2727 12.3105C11.2225 12.8842 11.6458 13.3899 12.2182 13.44L17.3987 13.8934C17.9711 13.9435 18.4757 13.5189 18.5259 12.9452L19.1623 5.67354C19.2125 5.09982 18.7892 4.59412 18.2169 4.54404Z" fill="#9E66BF" fill-opacity="0.25" stroke="#9E66BF" stroke-linecap="round" stroke-dasharray="0.08 0.08 1 1.8"/>
</svg>
