<svg width="18" height="18" viewBox="0 0 18 18" fill="none" xmlns="http://www.w3.org/2000/svg">
<path class="has-stroke" d="M3.08265 8.30769L4.50004 5.53845L2.07198 5.6035C1.31 5.67035 0.74632 6.34374 0.812968 7.10763L1.58229 15.9247C1.64894 16.6885 2.32067 17.2535 3.08265 17.1867L9.11879 16.6571C9.88074 16.5903 10.4444 15.9169 10.3778 15.1531L10.3847 13.8462L7.26927 14.1923C5.5385 13.5 3.47207 12.3526 3.08265 8.30769Z" fill="#FF7B2F" fill-opacity="0.1"/>
<path class="has-stroke" d="M10.2637 13.8462L10.3778 15.1531C10.4444 15.9169 9.88074 16.5903 9.11878 16.6571L3.08265 17.1867C2.32067 17.2536 1.64894 16.6885 1.58229 15.9247L0.812968 7.10766C0.74632 6.34378 1.31 5.67038 2.07198 5.60353L4.49998 5.39053L4.84614 5.36017" stroke="#FF7B2F" stroke-width="1.25"/>
<path d="M14.5435 1.41663L7.64632 0.813052C6.88437 0.746369 6.21242 1.31152 6.14561 2.07535L5.88477 4.5L8.654 3.80769C14.5386 4.84616 14.1925 10.7308 11.9425 12.6016L10.7309 13.5L13.4542 13.864C14.2163 13.9306 14.8881 13.3654 14.9549 12.6016L15.8022 2.9204C15.869 2.15657 15.3055 1.48331 14.5435 1.41663Z" fill="#FF7B2F" fill-opacity="0.1"/>
<path class="has-stroke" d="M5.98828 3.46154L6.10959 2.07535C6.17643 1.31152 6.84834 0.746369 7.61032 0.813052L14.5075 1.41663C15.2695 1.48331 15.833 2.15657 15.7662 2.9204L14.9189 12.6016C14.8521 13.3654 14.1802 13.9306 13.4182 13.864L10.6252 13.6196" stroke="#FF7B2F" stroke-width="1.25" stroke-linecap="round" stroke-dasharray="2 3"/>
<path class="has-stroke" d="M8.30765 14.1231C11.137 14.1231 13.4307 11.8294 13.4307 9C13.4307 6.1706 11.137 3.87692 8.30765 3.87692C5.47825 3.87692 3.18457 6.1706 3.18457 9C3.18457 11.8294 5.47825 14.1231 8.30765 14.1231Z" stroke="#FF7B2F" stroke-width="1.2"/>
<path class="has-stroke" d="M6.92285 10.3846L9.69208 7.61539" stroke="#FF7B2F" stroke-width="1.4" stroke-linecap="round" stroke-linejoin="round"/>
<path class="has-stroke" d="M9.69208 10.3846L6.92285 7.61539" stroke="#FF7B2F" stroke-width="1.4" stroke-linecap="round" stroke-linejoin="round"/>
</svg>
