<svg width="25" height="26" viewBox="0 0 25 26" fill="none" xmlns="http://www.w3.org/2000/svg">
<path d="M4.5 13L5.78885 9.02415L4.99288 9.09397C3.89224 9.19053 3.07804 10.1632 3.17431 11.2666L4.28555 24.0023C4.38182 25.1056 5.3521 25.9218 6.45274 25.8252L15.1716 25.0603C16.2722 24.9638 17.0864 23.9911 16.9902 22.8878L16.6372 18.8427L12 20.5C9.5 21 5.0625 18.8427 4.5 13Z" fill="#FF7B2F" fill-opacity="0.1"/>
<path d="M14.8254 20L14.9902 21.8878C15.0864 22.9911 14.2722 23.9638 13.1716 24.0603L4.45274 24.8252C3.3521 24.9218 2.38182 24.1056 2.28555 23.0023L1.17431 10.2666C1.07804 9.16323 1.89224 8.19053 2.99288 8.09397L6.5 7.78631L7 7.74245" stroke="#FF7B2F" stroke-width="1.25"/>
<path d="M23.007 3.04623L13.0444 2.1744C11.9438 2.07808 10.9732 2.89441 10.8767 3.99772L10.726 5.71939L14.5 6C23.007 9.5 18.5 17.5 16.5 19L13.5 20.3314L21.4336 21.0257C22.5343 21.122 23.5048 20.3056 23.6013 19.2023L24.8251 5.21834C24.9216 4.11503 24.1077 3.14255 23.007 3.04623Z" fill="#FF7B2F" fill-opacity="0.1"/>
<path d="M8.64996 5L8.82518 2.99772C8.92173 1.89441 9.89226 1.07808 10.9929 1.1744L20.9555 2.04623C22.0562 2.14255 22.8701 3.11503 22.7736 4.21834L21.5498 18.2023C21.4533 19.3056 20.4828 20.122 19.3821 20.0257L15.3478 19.6727" stroke="#FF7B2F" stroke-width="1.25" stroke-linecap="round" stroke-dasharray="0.11 0.11 2.15 2.72"/>
<circle cx="12" cy="13" r="7.4" stroke="#FF7B2F" stroke-width="1.2"/>
<path d="M10 15L14 11" stroke="#FF7B2F" stroke-width="1.4" stroke-linecap="round" stroke-linejoin="round"/>
<path d="M14 15L10 11" stroke="#FF7B2F" stroke-width="1.4" stroke-linecap="round" stroke-linejoin="round"/>
</svg>
