<svg width="24" height="24" viewBox="0 0 24 24" fill="none" xmlns="http://www.w3.org/2000/svg">
<rect x="0.5" y="4.5" width="19" height="19" rx="3.5" fill="white" stroke="#FF7B2F"/>
<rect x="2.5" y="2.5" width="19" height="19" rx="3.5" fill="white" stroke="#FF7B2F"/>
<rect x="4.5" y="0.5" width="19" height="19" rx="3.5" fill="white" stroke="#FF7B2F"/>
<path d="M14.45 7.81114L9.91618 8.20887C9.34385 8.25907 8.92046 8.76488 8.97052 9.33861L9.54837 15.9612C9.59843 16.5349 10.103 16.9593 10.6753 16.9091L15.2091 16.5114C15.7814 16.4612 16.2048 15.9554 16.1548 15.3817L15.5769 8.75907C15.5269 8.18533 15.0223 7.76093 14.45 7.81114Z" fill="#FF7B2F" fill-opacity="0.1"/>
<path d="M13.41 7.29114L8.87614 7.68887C8.30381 7.73907 7.88043 8.24488 7.93049 8.81861L8.50833 15.4412C8.55839 16.0149 9.06294 16.4393 9.63527 16.3891L14.1691 15.9914C14.7414 15.9412 15.1648 15.4354 15.1147 14.8617L14.5369 8.23907C14.4868 7.66533 13.9823 7.24093 13.41 7.29114Z" stroke="#FF7B2F"/>
<path d="M19.2838 5.06404L14.1032 4.61069C13.5309 4.5606 13.0262 4.98509 12.976 5.55881L12.3396 12.8305C12.2894 13.4042 12.7127 13.9099 13.2851 13.96L18.4656 14.4134C19.038 14.4635 19.5426 14.0389 19.5928 13.4652L20.2292 6.19353C20.2794 5.61982 19.8561 5.11412 19.2838 5.06404Z" fill="#FF7B2F" fill-opacity="0.1"/>
<path d="M18.2169 4.54404L13.0363 4.09069C12.464 4.0406 11.9593 4.46509 11.9091 5.03881L11.2727 12.3105C11.2225 12.8842 11.6458 13.3899 12.2182 13.44L17.3987 13.8934C17.9711 13.9435 18.4757 13.5189 18.5259 12.9452L19.1623 5.67354C19.2125 5.09982 18.7892 4.59412 18.2169 4.54404Z" stroke="#FF7B2F" stroke-linecap="round" stroke-dasharray="0.08 0.08 1 1.8"/>
</svg>
