<svg width="12" height="12" viewBox="0 0 12 12" fill="none" xmlns="http://www.w3.org/2000/svg">
<path d="M1.52525 11.4998H7.18111C7.25422 11.4998 7.32389 11.471 7.37549 11.4194C7.42709 11.3678 7.45634 11.2977 7.45634 11.2246V6.07405C7.45505 6.0018 7.42666 5.93256 7.37635 5.8801L5.37536 3.86414C5.32332 3.80436 5.2472 3.76996 5.16765 3.76996C5.16765 3.76953 1.52522 3.76953 1.52522 3.76953C1.45255 3.76953 1.38245 3.79834 1.33085 3.84995C1.27925 3.90155 1.25 3.97165 1.25 4.04475V11.2247C1.25 11.2978 1.27924 11.3679 1.33085 11.4195C1.38245 11.4711 1.45255 11.4999 1.52522 11.4999L1.52525 11.4998ZM5.44291 4.71378L6.52016 5.79919L5.44291 5.79876V4.71378ZM1.80048 4.31986H4.89246V6.07403C4.89246 6.14714 4.9217 6.21724 4.97331 6.26884C5.02491 6.32044 5.09501 6.34925 5.16768 6.34925H6.90545L6.90588 10.9494H1.80046L1.80048 4.31986Z" fill="#3F3A40" stroke="#3F3A40" stroke-width="0.6"/>
<path d="M5.10419 1.05036H8.19617V2.80497C8.19617 2.87808 8.22499 2.94817 8.27659 2.99977C8.32819 3.05137 8.39829 3.08019 8.47139 3.08019H10.2096V7.68029H8.98915V8.23074H10.4848C10.5575 8.23074 10.6276 8.20193 10.6792 8.15032C10.7308 8.09872 10.76 8.02862 10.76 7.95552V2.80409C10.7583 2.73227 10.7299 2.66304 10.6801 2.611L8.67907 0.595039C8.6266 0.534833 8.55091 0.50043 8.47136 0.50043C8.47093 0.5 4.82893 0.5 4.82893 0.5C4.75583 0.5 4.68616 0.528813 4.63456 0.580417C4.58296 0.632022 4.55371 0.702121 4.55371 0.775221V2.28125H5.10416L5.10419 1.05036ZM8.74662 1.44427L9.82387 2.52969H8.74662V1.44427Z" fill="#3F3A40" stroke="#3F3A40" stroke-width="0.6"/>
</svg>
