<svg width="173" height="94" viewBox="0 0 173 94" fill="none" xmlns="http://www.w3.org/2000/svg">
<path d="M1 18.5H0.5V19V91C0.5 92.3807 1.61929 93.5 3 93.5H170C171.381 93.5 172.5 92.3807 172.5 91V19V18.5H172H1Z" fill="#242425" stroke="#38383A"/>
<rect x="5" y="24" width="78" height="64" fill="#C4C4C4"/>
<rect x="5" y="24" width="79" height="64" fill="#FBFAFC"/>
<rect x="89.5" y="24.5" width="78" height="63" fill="white" stroke="#FBFAFC"/>
<rect x="93" y="32" width="33" height="24" fill="#F94F45" fill-opacity="0.8"/>
<rect x="131" y="48" width="33" height="8" fill="#F94F45" fill-opacity="0.8"/>
<rect x="111" y="60" width="33" height="20" fill="#F94F45" fill-opacity="0.8"/>
<g filter="url(#filter0_dd)">
<path d="M0 2C0 0.89543 0.895431 0 2 0H171C172.105 0 173 0.895431 173 2V18H0V2Z" fill="#242425"/>
<path d="M0.5 2C0.5 1.17157 1.17157 0.5 2 0.5H171C171.828 0.5 172.5 1.17157 172.5 2V17.5H0.5V2Z" stroke="#38383A"/>
</g>
<path fill-rule="evenodd" clip-rule="evenodd" d="M16.9576 6.51799C16.908 6.34635 16.7541 6.22891 16.5745 6.22578C16.521 6.22484 16.4685 6.23437 16.4184 6.25409C16.29 6.30458 16.0902 6.3628 15.8416 6.36993C15.3459 5.99826 14.1437 5.10033 13.43 4.59587C13.43 4.59587 13.5261 4.88997 13.6563 5.43855C13.6563 5.43855 12.5253 4.77781 11.7735 4.27218C11.7735 4.27218 12.0476 4.85356 12.0679 5.04062C12.0679 5.04062 11.1662 4.86975 9.84887 4.56207C9.84887 4.56207 10.8229 5.12563 11.0594 5.45882C11.0594 5.45882 9.87761 5.35853 8.48542 5.25502C8.48542 5.25502 9.18557 5.62278 9.52515 5.91585C9.52515 5.91585 8.25868 6.0785 7.29555 6.10846C7.29555 6.10846 7.9996 6.67586 8.28296 6.94964C8.28296 6.94964 7.07315 7.40059 5.62374 8.20433C5.62374 8.20433 6.37923 8.25479 6.92139 8.43719C6.92139 8.43719 6.25376 9.00313 5.05577 10.3066C5.05577 10.3066 5.81072 10.2921 6.42087 10.2209C6.42087 10.2209 5.93138 10.9465 5.31564 12.2546C5.31564 12.2546 5.72669 12.0058 6.12204 11.9201C6.12204 11.9201 6.13845 13.4008 6.95325 13.6522L6.95395 13.6512C6.99385 13.6644 7.03206 13.6695 7.0653 13.6701C7.1053 13.6708 7.1472 13.6654 7.18989 13.6541C7.45104 13.5852 7.65213 13.3352 7.88497 13.0458L7.88504 13.0457C7.96123 12.951 8.0395 12.8538 8.12256 12.7591C8.21561 12.6336 8.33645 12.5031 8.48153 12.389C8.77511 12.1582 9.17881 11.9867 9.6656 12.0666C10.2142 12.122 10.5442 12.6689 10.8095 13.1086L10.8095 13.1086C11.01 13.4411 11.1684 13.7037 11.3955 13.7325C11.4114 13.7346 11.4273 13.7357 11.4428 13.736C11.7904 13.7421 11.9196 13.3431 12.0832 12.8381L12.0832 12.838C12.0941 12.8043 12.1052 12.7699 12.1167 12.7349C12.118 12.7377 12.1194 12.7406 12.1208 12.7434C12.2425 12.3347 12.4722 11.8958 12.7507 11.5011C13.1291 10.9648 13.613 10.4881 14.0734 10.2709L14.0745 10.2731C14.3249 10.1355 14.588 10.006 14.8475 9.87838L14.8478 9.87826C15.6519 9.48262 16.4115 9.10891 16.7993 8.52859C16.9934 8.23833 17.0933 7.87976 17.0963 7.46278C17.0991 7.08878 17.0224 6.74256 16.9576 6.51799ZM13.6013 10.8822C13.3699 11.0914 13.1429 11.3518 12.9422 11.6362C12.6112 12.1053 12.3645 12.6218 12.2869 13.0529C12.5049 13.4218 12.7034 13.6047 12.8917 13.6111L12.8976 13.6112C13.0707 13.6142 13.1869 13.5012 13.243 13.2754C13.2849 13.1067 13.2972 12.8743 13.3115 12.6051L13.3115 12.6051L13.3115 12.6051L13.3115 12.6051L13.3115 12.6051L13.3115 12.6051L13.3115 12.6051L13.3116 12.6047C13.3376 12.1141 13.3714 11.4819 13.6013 10.8822ZM8.24949 12.998L8.24692 12.9915C8.3298 12.8611 8.45751 12.706 8.62637 12.5732C8.86627 12.3846 9.17997 12.2481 9.55566 12.2882C9.51154 12.4 9.46082 12.5237 9.40649 12.6475C9.22121 13.0699 9.00076 13.5059 8.77062 13.5377C8.75697 13.5396 8.74308 13.5404 8.72938 13.5402C8.54958 13.5371 8.3926 13.3597 8.24949 12.998ZM12.8646 6.10913L11.8718 5.45569L13.5168 6.06764L12.8646 6.10913ZM10.0993 6.35106L11.6823 6.78089L12.3796 6.56549L10.0993 6.35106ZM12.9206 7.18844L13.2643 6.94028L11.9474 7.13559L12.9206 7.18844ZM10.6705 7.14915L10.1204 7.49978L8.61567 7.33158L10.6705 7.14915ZM12.3532 8.0787L12.9102 7.7833L10.8553 7.96576L12.3532 8.0787ZM10.8278 8.39079L10.4324 9.0086L8.49985 9.44022L10.8278 8.39079ZM8.41678 8.73331L6.91564 9.3554L8.76701 8.09112L8.41678 8.73331ZM7.58836 9.49625L7.51824 10.1436L6.64434 11.1889L7.58836 9.49625Z" fill="#9E66BF"/>
<rect x="148" y="5" width="20" height="8" rx="1" fill="#60D957" fill-opacity="0.25"/>
<defs>
<filter id="filter0_dd" x="0" y="0" width="173" height="20" filterUnits="userSpaceOnUse" color-interpolation-filters="sRGB">
<feFlood flood-opacity="0" result="BackgroundImageFix"/>
<feColorMatrix in="SourceAlpha" type="matrix" values="0 0 0 0 0 0 0 0 0 0 0 0 0 0 0 0 0 0 127 0"/>
<feOffset dy="2"/>
<feColorMatrix type="matrix" values="0 0 0 0 0.0588235 0 0 0 0 0.0588235 0 0 0 0 0.0627451 0 0 0 1 0"/>
<feBlend mode="normal" in2="BackgroundImageFix" result="effect1_dropShadow"/>
<feColorMatrix in="SourceAlpha" type="matrix" values="0 0 0 0 0 0 0 0 0 0 0 0 0 0 0 0 0 0 127 0"/>
<feOffset dy="1"/>
<feColorMatrix type="matrix" values="0 0 0 0 0.219608 0 0 0 0 0.219608 0 0 0 0 0.227451 0 0 0 1 0"/>
<feBlend mode="normal" in2="effect1_dropShadow" result="effect2_dropShadow"/>
<feBlend mode="normal" in="SourceGraphic" in2="effect2_dropShadow" result="shape"/>
</filter>
</defs>
</svg>
