<svg width="28" height="28" viewBox="0 0 28 28" fill="none" xmlns="http://www.w3.org/2000/svg">
<path d="M27.1043 13.4114C26.88 13.1041 21.1957 5.73999 14 5.73999C6.80426 5.73999 1.11998 13.1043 0.895704 13.4114C0.64414 13.7472 0.64414 14.223 0.895704 14.5599C1.11992 14.8957 6.80426 22.2599 14 22.2599C21.1957 22.2599 26.88 14.8956 27.1043 14.5884C27.3558 14.2242 27.3558 13.7758 27.1043 13.4116V13.4114ZM14 20.3283C8.84854 20.3283 4.33998 15.6525 2.91142 13.9997C4.33987 12.3197 8.81998 7.67115 14 7.67115C19.1514 7.67115 23.66 12.3469 25.0885 13.9997C23.6601 15.6797 19.18 20.3283 14 20.3283V20.3283Z" fill="#505053"/>
<path d="M13.9999 9.63141C11.5915 9.63141 9.63135 11.5914 9.63135 14C9.63135 16.4085 11.5913 18.3685 13.9999 18.3685C16.4085 18.3685 18.3685 16.4085 18.3685 14C18.3685 11.5914 16.4085 9.63141 13.9999 9.63141V9.63141ZM13.9999 16.4357C12.6557 16.4357 11.5641 15.3441 11.5641 13.9999C11.5641 12.6557 12.6557 11.5641 13.9999 11.5641C15.3441 11.5641 16.4357 12.6557 16.4357 13.9999C16.4357 15.3441 15.3441 16.4357 13.9999 16.4357Z" fill="#505053"/>
</svg>
