<svg width="16" height="16" viewBox="0 0 16 16" fill="none" xmlns="http://www.w3.org/2000/svg">
<path d="M16 8C16 12.4183 12.4183 16 8 16C3.58172 16 0 12.4183 0 8C0 3.58172 3.58172 0 8 0C12.4183 0 16 3.58172 16 8Z" fill="white"/>
<path fill-rule="evenodd" clip-rule="evenodd" d="M8 14.75C11.7279 14.75 14.75 11.7279 14.75 8C14.75 4.27208 11.7279 1.25 8 1.25C4.27208 1.25 1.25 4.27208 1.25 8C1.25 11.7279 4.27208 14.75 8 14.75ZM8 16C12.4183 16 16 12.4183 16 8C16 3.58172 12.4183 0 8 0C3.58172 0 0 3.58172 0 8C0 12.4183 3.58172 16 8 16Z" fill="#E24329"/>
<path fill-rule="evenodd" clip-rule="evenodd" d="M4.96967 4.96967C5.26256 4.67678 5.73744 4.67678 6.03033 4.96967L11.0303 9.96967C11.3232 10.2626 11.3232 10.7374 11.0303 11.0303C10.7374 11.3232 10.2626 11.3232 9.96967 11.0303L4.96967 6.03033C4.67678 5.73744 4.67678 5.26256 4.96967 4.96967Z" fill="#E24329"/>
<path fill-rule="evenodd" clip-rule="evenodd" d="M4.96967 11.0303C4.67678 10.7374 4.67678 10.2626 4.96967 9.96967L9.96967 4.96967C10.2626 4.67678 10.7374 4.67678 11.0303 4.96967C11.3232 5.26256 11.3232 5.73744 11.0303 6.03033L6.03033 11.0303C5.73744 11.3232 5.26256 11.3232 4.96967 11.0303Z" fill="#E24329"/>
</svg>
