<svg width="16" height="16" viewBox="0 0 16 16" fill="none" xmlns="http://www.w3.org/2000/svg">
<circle cx="8" cy="8" r="7.375" fill="white" stroke="#E24329" stroke-width="1.25"/>
<path d="M9.88161 5.10207L9.88195 5.10173C10.0181 4.96691 10.1995 4.9 10.3795 4.9C10.5593 4.9 10.74 4.9661 10.877 5.10172C10.877 5.10172 10.877 5.10172 10.877 5.10172L9.88161 5.10207ZM9.88161 5.10207L7.95114 7.03219M9.88161 5.10207L7.95114 7.03219M8.94827 7.9992L10.877 6.08953C11.0132 5.95471 11.0811 5.77468 11.0812 5.59572L8.94827 7.9992ZM8.94827 7.9992L10.8955 9.90996L10.8958 9.91027C11.0321 10.0451 11.1 10.2253 11.1 10.4043C11.1 10.5832 11.0329 10.7626 10.8959 10.8983C10.8959 10.8983 10.8958 10.8983 10.8958 10.8983L8.94827 7.9992ZM6.95502 8.01914L5.10416 6.18658C5.10415 6.18658 5.10415 6.18658 5.10415 6.18658C4.96793 6.05172 4.9 5.87159 4.9 5.69258C4.9 5.51365 4.96711 5.33426 5.10415 5.19858L6.95502 8.01914ZM6.95502 8.01914L5.10415 9.85169C4.96711 9.98738 4.9 10.1668 4.9 10.3457C4.9 10.5247 4.96793 10.7048 5.10415 10.8397C5.23352 10.9678 5.41614 11.0275 5.59457 11.0275C5.77324 11.0275 5.95854 10.9678 6.09613 10.8426L6.09619 10.8427L6.0992 10.8397L7.95214 9.00508L9.9008 10.8983C9.90092 10.8984 9.90104 10.8985 9.90115 10.8986L6.95502 8.01914ZM7.95114 7.03219L6.0992 5.19857C5.96222 5.06295 5.78152 4.99685 5.60168 4.99685C5.42175 4.99685 5.2403 5.06376 5.10415 5.19857L7.95114 7.03219Z" fill="#E24329" stroke="#E24329" stroke-width="0.2"/>
</svg>
