<svg width="13" height="14" viewBox="0 0 13 14" fill="none" xmlns="http://www.w3.org/2000/svg">
<path d="M6.39201 4.15844L1.99508 4.5389C1.44551 4.58645 1.03898 5.06562 1.08706 5.60915L1.6538 12.0158C1.70188 12.5594 2.18637 12.9614 2.73593 12.9139L7.13287 12.5334C7.68243 12.4859 8.08897 12.0067 8.04089 11.4632L7.47415 5.05649C7.42607 4.51296 6.94158 4.11089 6.39201 4.15844Z" fill="#A69FA8" fill-opacity="0.25" stroke="#A69FA8" stroke-width="1.25"/>
<path d="M5.54699 1.08612L10.5646 1.52027C11.1142 1.56783 11.5208 2.04708 11.4727 2.59069L10.8516 9.61231C10.8035 10.1559 10.3189 10.5581 9.76928 10.5105L4.75171 10.0763C4.20206 10.0288 3.79546 9.54953 3.84355 9.00592L4.46469 1.9843C4.51277 1.44069 4.99734 1.03856 5.54699 1.08612Z" fill="#A69FA8" fill-opacity="0.25" stroke="#A69FA8" stroke-width="1.25" stroke-miterlimit="16" stroke-linecap="round" stroke-dasharray="1 2"/>
</svg>
