<svg width="24" height="27" viewBox="0 0 24 27" fill="none" xmlns="http://www.w3.org/2000/svg">
<path d="M12.2333 7.5801L3.07308 8.37271C1.92815 8.47178 1.0812 9.47005 1.18137 10.6024L2.36207 23.9497C2.46224 25.082 3.47159 25.9197 4.61652 25.8206L13.7768 25.028C14.9217 24.9289 15.7687 23.9306 15.6685 22.7983L14.4878 9.45103C14.3876 8.31867 13.3783 7.48103 12.2333 7.5801Z" fill="#9C9CA1" fill-opacity="0.25" stroke="#9C9CA1" stroke-width="1.25"/>
<path d="M10.4733 1.17941L20.9266 2.0839C22.0717 2.18299 22.9187 3.18141 22.8186 4.31394L21.5245 18.9423C21.4243 20.0748 20.4148 20.9126 19.2697 20.8135L8.81648 19.909C7.67137 19.8099 6.82429 18.8115 6.92448 17.679L8.2185 3.05063C8.31869 1.9181 9.32819 1.08032 10.4733 1.17941Z" fill="#F94F45" fill-opacity="0.25" stroke="#F94F45" stroke-width="1.25" stroke-linecap="round" stroke-dasharray="0.12 0.12 2.23 2.82"/>
</svg>
