<svg width="11" height="3" viewBox="0 0 11 3" fill="#9E66BF" xmlns="http://www.w3.org/2000/svg">
<path fill-rule="evenodd" clip-rule="evenodd" d="M1.50002 2.59999C2.05883 2.59999 2.60002 2.07363 2.60002 1.47857C2.60002 0.915909 2.06993 0.399994 1.50002 0.399994C0.930123 0.399994 0.400024 0.915909 0.400024 1.47857C0.400024 2.07363 0.941216 2.59999 1.50002 2.59999ZM5.50002 2.59999C6.05883 2.59999 6.60002 2.07363 6.60002 1.47857C6.60002 0.915909 6.06993 0.399994 5.50002 0.399994C4.93012 0.399994 4.40002 0.915909 4.40002 1.47857C4.40002 2.07363 4.94122 2.59999 5.50002 2.59999ZM9.50002 2.59999C10.0588 2.59999 10.6 2.07363 10.6 1.47857C10.6 0.915909 10.0699 0.399994 9.50002 0.399994C8.93012 0.399994 8.40002 0.915909 8.40002 1.47857C8.40002 2.07363 8.94122 2.59999 9.50002 2.59999Z"/>
</svg>
