<svg width="18" height="18" viewBox="0 0 18 18" fill="none" xmlns="http://www.w3.org/2000/svg">
<path d="M7.88913 14.6447V9.16744C7.88913 9.04777 7.85088 8.93091 7.78086 8.83363C7.78085 8.83361 7.78084 8.83359 7.78082 8.83358L3.61129 3.03578H14.4409L10.5912 8.85204L10.5908 8.85264C10.5299 8.94574 10.496 9.05463 10.496 9.16739V13.4912L7.88913 14.6447ZM1.98379 2.78967L1.98383 2.78973L6.70339 9.35154V15.544C6.70339 15.9706 7.15268 16.2445 7.54038 16.073L11.3327 14.3949C11.5442 14.3018 11.6816 14.0955 11.6816 13.8658V9.33938L16.029 2.77125L16.029 2.77119C16.2877 2.37988 15.9954 1.875 15.5313 1.875H2.46898C1.99514 1.875 1.70358 2.39965 1.98379 2.78967Z" fill="#1E1E1E" stroke="#1E1E1E" stroke-width="0.25"/>
</svg>
