<svg width="76" height="76" viewBox="0 0 76 76" fill="none" xmlns="http://www.w3.org/2000/svg">
<path fill-rule="evenodd" clip-rule="evenodd" d="M38 1C17.005 1 0 18.005 0 39C0 55.815 10.8775 70.0175 25.9825 75.0525C27.8825 75.385 28.595 74.245 28.595 73.2475C28.595 72.345 28.5475 69.3525 28.5475 66.17C19 67.9275 16.53 63.8425 15.77 61.705C15.3425 60.6125 13.49 57.24 11.875 56.3375C10.545 55.625 8.645 53.8675 11.8275 53.82C14.82 53.7725 16.9575 56.575 17.67 57.715C21.09 63.4625 26.5525 61.8475 28.7375 60.85C29.07 58.38 30.0675 56.7175 31.16 55.7675C22.705 54.8175 13.87 51.54 13.87 37.005C13.87 32.8725 15.3425 29.4525 17.765 26.7925C17.385 25.8425 16.055 21.9475 18.145 16.7225C18.145 16.7225 21.3275 15.725 28.595 20.6175C31.635 19.7625 34.865 19.335 38.095 19.335C41.325 19.335 44.555 19.7625 47.595 20.6175C54.8625 15.6775 58.045 16.7225 58.045 16.7225C60.135 21.9475 58.805 25.8425 58.425 26.7925C60.8475 29.4525 62.32 32.825 62.32 37.005C62.32 51.5875 53.4375 54.8175 44.9825 55.7675C46.36 56.955 47.5475 59.235 47.5475 62.7975C47.5475 67.88 47.5 71.965 47.5 73.2475C47.5 74.245 48.2125 75.4325 50.1125 75.0525C57.6561 72.5059 64.2114 67.6577 68.8554 61.1901C73.4993 54.7228 75.9981 46.9619 76 39C76 18.005 58.995 1 38 1Z" fill="#333333"/>
</svg>
