<svg width="76" height="76" viewBox="0 0 76 76" fill="none" xmlns="http://www.w3.org/2000/svg">
<g clip-path="url(#clip0)">
<path d="M38.0005 73.5715L51.9942 30.1572H24.0068L38.0005 73.5715Z" fill="#E24329"/>
<path d="M37.9991 73.5715L24.0054 30.1572H4.39355L37.9991 73.5715Z" fill="#FC6D26"/>
<path d="M4.39444 30.1572L0.142014 43.3504C-0.245854 44.5537 0.178954 45.8719 1.19444 46.6156L37.9999 73.5715L4.39444 30.1572Z" fill="#FCA326"/>
<path d="M4.39355 30.1571H24.0054L15.5769 4.00909C15.1434 2.66345 13.2551 2.66382 12.8216 4.00909L4.39355 30.1571Z" fill="#E24329"/>
<path d="M38.001 73.5715L51.9947 30.1572H71.6065L38.001 73.5715Z" fill="#FC6D26"/>
<path d="M71.6065 30.1572L75.859 43.3504C76.2466 44.5537 75.822 45.8719 74.8064 46.6156L38.001 73.5715L71.6065 30.1572Z" fill="#FCA326"/>
<path d="M71.605 30.1571H51.9932L60.4216 4.00909C60.8551 2.66345 62.7434 2.66382 63.1769 4.00909L71.605 30.1571Z" fill="#E24329"/>
</g>
<defs>
<clipPath id="clip0">
<rect width="76" height="76" fill="white"/>
</clipPath>
</defs>
</svg>
