<svg width="18" height="8" viewBox="0 0 18 8" fill="none" xmlns="http://www.w3.org/2000/svg">
<path d="M9.67161 5.82211C10.3881 5.76401 11.1029 5.6279 11.7885 5.41367L12.0751 6.49272L12.0751 6.49272L12.0756 6.49455C12.1615 6.79476 12.4216 6.99104 12.7251 6.99104H12.7276C12.7821 6.99104 12.8312 6.99105 12.8998 6.9691C13.2666 6.88023 13.482 6.49304 13.3746 6.14418L13.0458 4.89713C13.6724 4.58501 14.2678 4.1959 14.8025 3.74307L15.3691 4.7092L15.3696 4.71001C15.4964 4.9215 15.7123 5.05392 15.9532 5.05392C16.0562 5.05392 16.1871 5.03385 16.3 4.96582C16.622 4.77247 16.7324 4.36212 16.5381 4.0366L15.8187 2.77241C16.2269 2.31984 16.5834 1.81718 16.8879 1.28036C17.1002 0.957472 16.9922 0.541756 16.6641 0.36643L16.6632 0.365941C16.337 0.17391 15.9283 0.304926 15.7551 0.608003C15.4275 1.17212 15.027 1.70044 14.5716 2.17408L14.532 2.21367L14.527 2.21867L14.5269 2.2187L14.5265 2.21909L14.5264 2.21924L14.5263 2.21933L14.5263 2.21934L14.5263 2.21938L14.5262 2.2194L14.5262 2.21942L14.5261 2.21951L14.5255 2.22014L14.5205 2.22518L14.4802 2.26548C13.7884 2.9572 12.9695 3.50349 12.0774 3.88535L12.0773 3.88518L12.0718 3.88796L11.9644 3.94196C11.0571 4.32276 10.0751 4.5046 9.07341 4.52275H8.96393C7.94568 4.52275 6.96407 4.32273 6.03618 3.94179L5.9292 3.88796L5.92929 3.88779L5.92366 3.88538C5.03141 3.50279 4.21175 2.95647 3.52083 2.26548L3.52083 2.26548L3.4294 2.17406C2.97299 1.69945 2.5727 1.18992 2.24568 0.625955L2.24569 0.625949L2.2449 0.624637C2.05213 0.303626 1.65991 0.191275 1.33294 0.387128L1.33284 0.387185C1.01197 0.579866 0.899577 0.971835 1.09508 1.29873C1.39943 1.81799 1.75547 2.32043 2.16474 2.77359L1.42676 4.05601C1.23236 4.38076 1.34181 4.79202 1.66467 4.98549C1.77651 5.0529 1.88785 5.07361 2.0115 5.07361C2.25296 5.07361 2.46835 4.94198 2.59517 4.72956L2.59518 4.72957L2.59595 4.72823L3.16292 3.74431C3.697 4.19602 4.29123 4.58476 4.91778 4.89726L4.56953 6.14486L4.56945 6.14484L4.56851 6.14883C4.48415 6.50715 4.67249 6.87911 5.04448 6.9691C5.11308 6.99105 5.16224 6.99104 5.21666 6.99104H5.21921C5.52266 6.99104 5.78283 6.79477 5.86871 6.49455L5.86873 6.49456L5.86931 6.49235L6.15584 5.39697C6.8592 5.62748 7.57894 5.76445 8.32832 5.82243V6.96485C8.32832 7.33368 8.63114 7.6365 8.99996 7.6365C9.36879 7.6365 9.67161 7.33368 9.67161 6.96485V5.82211Z" fill="white" stroke="white" stroke-width="0.2"/>
</svg>
