<svg width="18" height="18" viewBox="0 0 18 18" fill="none" xmlns="http://www.w3.org/2000/svg">
<path d="M9.67161 11.8221C10.3881 11.764 11.1029 11.6279 11.7885 11.4137L12.0751 12.4927L12.0751 12.4927L12.0756 12.4946C12.1615 12.7948 12.4216 12.991 12.7251 12.991H12.7276C12.7821 12.991 12.8312 12.991 12.8998 12.9691C13.2666 12.8802 13.482 12.493 13.3746 12.1442L13.0458 10.8971C13.6724 10.585 14.2678 10.1959 14.8025 9.74307L15.3691 10.7092L15.3696 10.71C15.4964 10.9215 15.7123 11.0539 15.9532 11.0539C16.0562 11.0539 16.1871 11.0339 16.3 10.9658C16.622 10.7725 16.7324 10.3621 16.5381 10.0366L15.8187 8.77241C16.2269 8.31984 16.5834 7.81718 16.8879 7.28036C17.1002 6.95747 16.9922 6.54176 16.6641 6.36643L16.6632 6.36594C16.337 6.17391 15.9283 6.30493 15.7551 6.608C15.4275 7.17212 15.027 7.70044 14.5716 8.17408L14.532 8.21367L14.527 8.21867L14.5269 8.2187L14.5265 8.21909L14.5264 8.21924L14.5263 8.21933L14.5263 8.21934L14.5263 8.21938L14.5262 8.2194L14.5262 8.21942L14.5261 8.21951L14.5255 8.22014L14.5205 8.22518L14.4802 8.26548C13.7884 8.9572 12.9695 9.50349 12.0774 9.88535L12.0773 9.88518L12.0718 9.88796L11.9644 9.94196C11.0571 10.3228 10.0751 10.5046 9.07341 10.5227H8.96393C7.94568 10.5227 6.96407 10.3227 6.03618 9.94179L5.9292 9.88796L5.92929 9.88779L5.92366 9.88538C5.03141 9.50279 4.21175 8.95647 3.52083 8.26548L3.52083 8.26548L3.4294 8.17406C2.97299 7.69945 2.5727 7.18992 2.24568 6.62595L2.24569 6.62595L2.2449 6.62464C2.05213 6.30363 1.65991 6.19128 1.33294 6.38713L1.33284 6.38719C1.01197 6.57987 0.899577 6.97184 1.09508 7.29873C1.39943 7.81799 1.75547 8.32043 2.16474 8.77359L1.42676 10.056C1.23236 10.3808 1.34181 10.792 1.66467 10.9855C1.77651 11.0529 1.88785 11.0736 2.0115 11.0736C2.25296 11.0736 2.46835 10.942 2.59517 10.7296L2.59518 10.7296L2.59595 10.7282L3.16292 9.74431C3.697 10.196 4.29123 10.5848 4.91778 10.8973L4.56953 12.1449L4.56945 12.1448L4.56851 12.1488C4.48415 12.5072 4.67249 12.8791 5.04448 12.9691C5.11308 12.991 5.16224 12.991 5.21666 12.991H5.21921C5.52266 12.991 5.78283 12.7948 5.86871 12.4945L5.86873 12.4946L5.86931 12.4924L6.15584 11.397C6.8592 11.6275 7.57894 11.7645 8.32832 11.8224V12.9649C8.32832 13.3337 8.63114 13.6365 8.99996 13.6365C9.36879 13.6365 9.67161 13.3337 9.67161 12.9649V11.8221Z" fill="white" stroke="#1E1E1E" stroke-width="0.2"/>
</svg>
