<svg width="14" height="4" viewBox="0 0 14 4" fill="none" xmlns="http://www.w3.org/2000/svg">
<path d="M3.11073 1.55588C3.11073 2.41539 2.41436 3.11176 1.55576 3.11176C0.696243 3.11176 -0.00012207 2.41539 -0.00012207 1.55588C-0.00012207 0.696365 0.696243 0 1.55576 0C2.41436 0 3.11073 0.696365 3.11073 1.55588Z" fill="#3F3A40"/>
<path d="M14 1.55588C14 2.41539 13.3036 3.11176 12.4441 3.11176C11.5855 3.11176 10.8891 2.41539 10.8891 1.55588C10.8891 0.696365 11.5855 0 12.4441 0C13.3036 0 14 0.696365 14 1.55588Z" fill="#3F3A40"/>
<path d="M8.55582 1.55588C8.55582 2.41539 7.85945 3.11176 6.99994 3.11176C6.14043 3.11176 5.44406 2.41539 5.44406 1.55588C5.44406 0.696365 6.14043 0 6.99994 0C7.85945 0 8.55582 0.696365 8.55582 1.55588Z" fill="#3F3A40"/>
</svg>
