<svg width="173" height="91" viewBox="0 0 173 91" fill="none" xmlns="http://www.w3.org/2000/svg">
<path d="M0.5 2C0.5 1.17157 1.17157 0.5 2 0.5H171C171.828 0.5 172.5 1.17157 172.5 2V17.5H0.5V2Z" fill="#FBFAFC" stroke="#F0EEF1"/>
<path fill-rule="evenodd" clip-rule="evenodd" d="M17.9576 6.51799C17.908 6.34635 17.7541 6.22891 17.5745 6.22578C17.521 6.22484 17.4685 6.23437 17.4184 6.25409C17.29 6.30458 17.0902 6.3628 16.8416 6.36993C16.3459 5.99826 15.1437 5.10033 14.43 4.59587C14.43 4.59587 14.5261 4.88997 14.6563 5.43855C14.6563 5.43855 13.5253 4.77781 12.7735 4.27218C12.7735 4.27218 13.0476 4.85356 13.0679 5.04062C13.0679 5.04062 12.1662 4.86975 10.8489 4.56207C10.8489 4.56207 11.8229 5.12563 12.0594 5.45882C12.0594 5.45882 10.8776 5.35853 9.48542 5.25502C9.48542 5.25502 10.1856 5.62278 10.5251 5.91585C10.5251 5.91585 9.25868 6.0785 8.29555 6.10846C8.29555 6.10846 8.9996 6.67586 9.28296 6.94964C9.28296 6.94964 8.07315 7.40059 6.62374 8.20433C6.62374 8.20433 7.37923 8.25479 7.92139 8.43719C7.92139 8.43719 7.25376 9.00313 6.05577 10.3066C6.05577 10.3066 6.81072 10.2921 7.42087 10.2209C7.42087 10.2209 6.93138 10.9465 6.31564 12.2546C6.31564 12.2546 6.72669 12.0058 7.12204 11.9201C7.12204 11.9201 7.13845 13.4008 7.95325 13.6522L7.95395 13.6512C7.99385 13.6644 8.03206 13.6695 8.0653 13.6701C8.1053 13.6708 8.1472 13.6654 8.18989 13.6541C8.45104 13.5852 8.65213 13.3352 8.88497 13.0458L8.88504 13.0457C8.96123 12.951 9.0395 12.8538 9.12256 12.7591C9.21561 12.6336 9.33645 12.5031 9.48153 12.389C9.77511 12.1582 10.1788 11.9867 10.6656 12.0666C11.2142 12.122 11.5442 12.6689 11.8095 13.1086L11.8095 13.1086C12.01 13.4411 12.1684 13.7037 12.3955 13.7325C12.4114 13.7346 12.4273 13.7357 12.4428 13.736C12.7904 13.7421 12.9196 13.3431 13.0832 12.8381L13.0832 12.838C13.0941 12.8043 13.1052 12.7699 13.1167 12.7349C13.118 12.7377 13.1194 12.7406 13.1208 12.7434C13.2425 12.3347 13.4722 11.8958 13.7507 11.5011C14.1291 10.9648 14.613 10.4881 15.0734 10.2709L15.0745 10.2731C15.3249 10.1355 15.588 10.006 15.8475 9.87838L15.8478 9.87826C16.6519 9.48262 17.4115 9.10891 17.7993 8.52859C17.9934 8.23833 18.0933 7.87976 18.0963 7.46278C18.0991 7.08878 18.0224 6.74256 17.9576 6.51799ZM14.6013 10.8822C14.3699 11.0914 14.1429 11.3518 13.9422 11.6362C13.6112 12.1053 13.3645 12.6218 13.2869 13.0529C13.5049 13.4218 13.7034 13.6047 13.8917 13.6111L13.8976 13.6112C14.0707 13.6142 14.1869 13.5012 14.243 13.2754C14.2849 13.1067 14.2972 12.8743 14.3115 12.6051L14.3115 12.6051L14.3115 12.6051L14.3115 12.6051L14.3115 12.6051L14.3115 12.6051L14.3115 12.6051L14.3116 12.6047C14.3376 12.1141 14.3714 11.4819 14.6013 10.8822ZM9.24949 12.998L9.24692 12.9915C9.3298 12.8611 9.45751 12.706 9.62637 12.5732C9.86627 12.3846 10.18 12.2481 10.5557 12.2882C10.5115 12.4 10.4608 12.5237 10.4065 12.6475C10.2212 13.0699 10.0008 13.5059 9.77062 13.5377C9.75697 13.5396 9.74308 13.5404 9.72938 13.5402C9.54958 13.5371 9.3926 13.3597 9.24949 12.998ZM13.8646 6.10913L12.8718 5.45569L14.5168 6.06764L13.8646 6.10913ZM11.0993 6.35106L12.6823 6.78089L13.3796 6.56549L11.0993 6.35106ZM13.9206 7.18844L14.2643 6.94028L12.9474 7.13559L13.9206 7.18844ZM11.6705 7.14915L11.1204 7.49978L9.61567 7.33158L11.6705 7.14915ZM13.3532 8.0787L13.9102 7.7833L11.8553 7.96576L13.3532 8.0787ZM11.8278 8.39079L11.4324 9.0086L9.49985 9.44022L11.8278 8.39079ZM9.41678 8.73331L7.91564 9.3554L9.76701 8.09112L9.41678 8.73331ZM8.58836 9.49625L8.51824 10.1436L7.64434 11.1889L8.58836 9.49625Z" fill="#9E66BF"/>
<path d="M0.5 17.5H172.5V89C172.5 89.8284 171.828 90.5 171 90.5H2C1.17157 90.5 0.5 89.8284 0.5 89V17.5Z" fill="white" stroke="#F0EEF1"/>
<rect x="148" y="5" width="20" height="8" rx="1" fill="#60D957"/>
<rect x="5" y="22" width="78" height="64" fill="#C4C4C4"/>
<rect x="5" y="22" width="79" height="64" fill="#FBFAFC"/>
<rect x="89.5" y="22.5" width="78" height="63" fill="white" stroke="#FBFAFC"/>
<rect x="93" y="30" width="33" height="24" fill="#F94F45" fill-opacity="0.8"/>
<rect x="131" y="46" width="33" height="8" fill="#F94F45" fill-opacity="0.8"/>
<rect x="111" y="58" width="33" height="20" fill="#F94F45" fill-opacity="0.8"/>
</svg>
