<svg width="24" height="24" viewBox="0 0 24 24" fill="none" xmlns="http://www.w3.org/2000/svg">
<path d="M4.53473 14.0352C3.03754 15.5324 3.03754 17.9736 4.52911 19.4652C6.0263 20.9624 8.46751 20.9624 9.96463 19.4652L13.3565 16.0733C14.7815 14.6483 14.8603 12.3691 13.5665 10.8598C13.3144 10.571 12.8325 10.5354 12.5447 10.7754C12.2559 11.0276 12.2203 11.5094 12.4603 11.7972C13.2778 12.7479 13.2478 14.1494 12.3394 15.0569L8.94744 18.4488C7.99776 19.3985 6.49392 19.3985 5.54424 18.4488C4.60018 17.5048 4.60018 16.0011 5.54987 15.0514L8.77307 11.8282C9.05055 11.5638 9.05055 11.0707 8.78619 10.8054C8.51525 10.5354 8.02213 10.5354 7.75774 10.812L4.53473 14.0352ZM10.6444 7.92551C9.21286 9.35706 9.13503 11.6352 10.4344 13.139C10.6753 13.4278 11.1685 13.4634 11.4507 13.2168C11.7394 12.9759 11.7816 12.4894 11.5285 12.2006C10.7166 11.2565 10.7532 9.84933 11.6607 8.94187L15.0526 5.54995C16.0023 4.60027 17.5003 4.60589 18.4445 5.54995C19.3942 6.49963 19.4008 7.99771 18.4501 8.94739L15.2269 12.1706C14.9504 12.435 14.9504 12.9281 15.2147 13.1925C15.4857 13.4634 15.9788 13.4634 16.2432 13.1868L19.4664 9.96364C20.9636 8.46644 20.9636 6.02524 19.4664 4.52812C17.9748 3.03657 15.5335 3.03657 14.0364 4.53374L10.6444 7.92551Z" fill="#43CD54"/>
</svg>
