<svg width="203" height="132" viewBox="0 0 203 132" fill="none" xmlns="http://www.w3.org/2000/svg">
<circle cx="142" cy="6" r="6" fill="#E74E3E" fill-opacity="0.16"/>
<circle cx="184" cy="43" r="11" fill="#FF7B2F" fill-opacity="0.16"/>
<circle cx="175.5" cy="94.5" r="8.5" fill="#60D957" fill-opacity="0.16"/>
<circle cx="32.5" cy="114.5" r="7.5" fill="#1D8DDB" fill-opacity="0.16"/>
<circle cx="22" cy="70" r="11" fill="#9E66BF" fill-opacity="0.16"/>
<circle cx="149" cy="10" r="6" fill="#E74E3E" fill-opacity="0.16"/>
<circle cx="178" cy="31" r="11" fill="#FF7B2F" fill-opacity="0.16"/>
<circle cx="192" cy="32" r="11" fill="#FF7B2F" fill-opacity="0.16"/>
<circle cx="171.5" cy="83.5" r="8.5" fill="#60D957" fill-opacity="0.16"/>
<circle cx="184.5" cy="97.5" r="8.5" fill="#60D957" fill-opacity="0.16"/>
<circle cx="28.5" cy="108.5" r="7.5" fill="#1D8DDB" fill-opacity="0.16"/>
<circle cx="18" cy="59" r="11" fill="#9E66BF" fill-opacity="0.16"/>
<circle cx="11" cy="73" r="11" fill="#9E66BF" fill-opacity="0.16"/>
<path d="M69.9716 78L74 64.0224L69.9716 64.3758C65.569 64.762 62.3122 68.6528 62.6973 73.0662L67.1423 124.009C67.5273 128.422 71.4085 131.687 75.811 131.301L110.686 128.241C115.089 127.855 118.346 123.964 117.961 119.551L116.5 102.811L109.5 106C80.5 115.5 69.9716 84.5 69.9716 78Z" fill="#1D8DDB" fill-opacity="0.1"/>
<path d="M111.302 106L111.961 113.551C112.346 117.964 109.089 121.855 104.687 122.241L69.811 125.301C65.4085 125.687 61.5274 122.422 61.1423 118.009L56.6974 67.0662C56.3123 62.6529 59.5691 58.7621 63.9716 58.3759L78 57.1453" stroke="#1D8DDB" stroke-width="5.04999"/>
<path d="M111.302 106L111.961 113.551C112.346 117.964 109.089 121.855 104.687 122.241L69.811 125.301C65.4085 125.687 61.5274 122.422 61.1423 118.009L56.6974 67.0662C56.3123 62.6529 59.5691 58.7621 63.9716 58.3759L78 57.1453" stroke="url(#paint032626_linear)" stroke-width="5.04999"/>
<path d="M142.028 41.1849L102.178 37.6976C97.7751 37.3123 93.893 40.5776 93.5068 44.9909L93.0796 49.8733L108 49.8733C135.735 56 142.028 104.5 95.8842 109.615L135.735 113.103C140.137 113.488 144.019 110.222 144.405 105.809L149.3 49.8733C149.687 45.4601 146.431 41.5702 142.028 41.1849Z" fill="#E74E3E" fill-opacity="0.1"/>
<path d="M78.4 54.4999C77.9 54.9999 75 57.9999 74 59.9999L66.5 60.6999C67.3 58.6999 69.5 56.0833 70.5 55.2499C73 54.9999 78.4 54.4999 78.4 54.4999Z" fill="#4B4898"/>
<path d="M86.6437 45.5L87.3008 37.9909C87.687 33.5777 91.5691 30.3123 95.9717 30.6976L135.822 34.1849C140.225 34.5702 143.481 38.4601 143.094 42.8734L138.199 98.8093C137.813 103.222 133.931 106.488 129.529 106.103L118 105.094L114.5 104.788" stroke="#E74E3E" stroke-width="5.04999" stroke-linecap="round" stroke-dasharray="0.44 0.44 8.69 10.99"/>
<path d="M86.6437 45.5L87.3008 37.9909C87.687 33.5777 91.5691 30.3123 95.9717 30.6976L135.822 34.1849C140.225 34.5702 143.481 38.4601 143.094 42.8734L138.199 98.8093C137.813 103.222 133.931 106.488 129.529 106.103L118 105.094L114.5 104.788" stroke="url(#paint235251_linear)" stroke-width="5.04999" stroke-linecap="round" stroke-dasharray="0.44 0.44 8.69 10.99"/>
<path d="M89.4 42.9999C88.2333 43.1666 85.8 43.6999 84.2 44.4999C84.2 44.8333 84 45.6999 84 46.4999C84 47.4999 84.5 48.9999 86.5 48.9999C88.5 48.9999 88.8218 48.0692 89 46.9999C89.1153 46.3082 89.4 43.3333 89.4 42.9999Z" fill="#DA4919"/>
<path d="M112.5 107C113.833 106.333 118 104.6 120 103C122.2 104.5 121.297 107.7 118.5 107.7C116.5 107.7 113.333 107.167 112.5 107Z" fill="#B52C0D"/>
<path d="M114 106.8C113 107.3 110.6 108.3 109 108.7C109 108.7 109.5 114 109.5 114.5C110.7 114.5 113.283 113.5 114.45 113L114 106.8Z" fill="#324F9D"/>
<path opacity="0.1" d="M110.837 108.146C106.709 110.336 101.999 111.576 97 111.576C80.6656 111.576 67.424 98.3343 67.424 81.9999C67.424 78.7944 67.934 75.7076 68.8775 72.8165C68.272 76.5982 68.0572 80.7939 68.9604 85.1149C70.6024 92.9707 75.8253 100.838 87.8073 107.61L87.9488 107.69L88.0998 107.751C94.4848 110.305 102.921 111.062 110.837 108.146Z" fill="url(#paint22352_linear)" stroke="url(#paint3d2452_linear)" stroke-width="4.84799"/>
<circle cx="100" cy="78" r="29.576" stroke="url(#paint424352_linear)" stroke-width="4.84799"/>
<g opacity="0.16">
<mask id="path-24-inside-1" fill="white">
<path fill-rule="evenodd" clip-rule="evenodd" d="M105.424 71.0002C105.424 69.6615 104.339 68.5762 103 68.5762C101.662 68.5762 100.576 69.6615 100.576 71.0002V78.5762H93.0003C91.6616 78.5762 90.5763 79.6615 90.5763 81.0002C90.5763 82.3389 91.6616 83.4242 93.0003 83.4242H100.576V91.0002C100.576 92.3389 101.662 93.4242 103 93.4242C104.339 93.4242 105.424 92.3389 105.424 91.0002V83.4242H113C114.339 83.4242 115.424 82.3389 115.424 81.0002C115.424 79.6615 114.339 78.5762 113 78.5762H105.424V71.0002Z"/>
</mask>
<path fill-rule="evenodd" clip-rule="evenodd" d="M105.424 71.0002C105.424 69.6615 104.339 68.5762 103 68.5762C101.662 68.5762 100.576 69.6615 100.576 71.0002V78.5762H93.0003C91.6616 78.5762 90.5763 79.6615 90.5763 81.0002C90.5763 82.3389 91.6616 83.4242 93.0003 83.4242H100.576V91.0002C100.576 92.3389 101.662 93.4242 103 93.4242C104.339 93.4242 105.424 92.3389 105.424 91.0002V83.4242H113C114.339 83.4242 115.424 82.3389 115.424 81.0002C115.424 79.6615 114.339 78.5762 113 78.5762H105.424V71.0002Z" fill="url(#paint52452_linear)"/>
<path d="M100.576 78.5762V83.4242H105.424V78.5762H100.576ZM100.576 83.4242H105.424V78.5762H100.576V83.4242ZM105.424 83.4242V78.5762H100.576V83.4242H105.424ZM105.424 78.5762H100.576V83.4242H105.424V78.5762ZM103 73.4242C101.662 73.4242 100.576 72.339 100.576 71.0002H110.272C110.272 66.984 107.016 63.7282 103 63.7282V73.4242ZM105.424 71.0002C105.424 72.339 104.339 73.4242 103 73.4242V63.7282C98.9841 63.7282 95.7283 66.984 95.7283 71.0002H105.424ZM105.424 78.5762V71.0002H95.7283V78.5762H105.424ZM93.0003 83.4242H100.576V73.7282H93.0003V83.4242ZM95.4243 81.0002C95.4243 82.3389 94.339 83.4242 93.0003 83.4242V73.7282C88.9841 73.7282 85.7283 76.984 85.7283 81.0002H95.4243ZM93.0003 78.5762C94.339 78.5762 95.4243 79.6615 95.4243 81.0002H85.7283C85.7283 85.0164 88.9841 88.2722 93.0003 88.2722V78.5762ZM100.576 78.5762H93.0003V88.2722H100.576V78.5762ZM105.424 91.0002V83.4242H95.7283V91.0002H105.424ZM103 88.5762C104.339 88.5762 105.424 89.6615 105.424 91.0002H95.7283C95.7283 95.0164 98.9841 98.2722 103 98.2722V88.5762ZM100.576 91.0002C100.576 89.6615 101.662 88.5762 103 88.5762V98.2722C107.016 98.2722 110.272 95.0164 110.272 91.0002H100.576ZM100.576 83.4242V91.0002H110.272V83.4242H100.576ZM113 78.5762H105.424V88.2722H113V78.5762ZM110.576 81.0002C110.576 79.6615 111.662 78.5762 113 78.5762V88.2722C117.016 88.2722 120.272 85.0164 120.272 81.0002H110.576ZM113 83.4242C111.662 83.4242 110.576 82.3389 110.576 81.0002H120.272C120.272 76.984 117.016 73.7282 113 73.7282V83.4242ZM105.424 83.4242H113V73.7282H105.424V83.4242ZM100.576 71.0002V78.5762H110.272V71.0002H100.576Z" fill="url(#paint624352_linear)" mask="url(#path-24-inside-1)"/>
</g>
<mask id="path-26-inside-2" fill="white">
<path fill-rule="evenodd" clip-rule="evenodd" d="M102.424 67.0002C102.424 65.6615 101.339 64.5762 100 64.5762C98.6615 64.5762 97.5763 65.6615 97.5763 67.0002V74.5762H90.0003C88.6616 74.5762 87.5763 75.6615 87.5763 77.0002C87.5763 78.3389 88.6616 79.4242 90.0003 79.4242H97.5763V87.0002C97.5763 88.3389 98.6615 89.4242 100 89.4242C101.339 89.4242 102.424 88.3389 102.424 87.0002V79.4242H110C111.339 79.4242 112.424 78.3389 112.424 77.0002C112.424 75.6615 111.339 74.5762 110 74.5762H102.424V67.0002Z"/>
</mask>
<path fill-rule="evenodd" clip-rule="evenodd" d="M102.424 67.0002C102.424 65.6615 101.339 64.5762 100 64.5762C98.6615 64.5762 97.5763 65.6615 97.5763 67.0002V74.5762H90.0003C88.6616 74.5762 87.5763 75.6615 87.5763 77.0002C87.5763 78.3389 88.6616 79.4242 90.0003 79.4242H97.5763V87.0002C97.5763 88.3389 98.6615 89.4242 100 89.4242C101.339 89.4242 102.424 88.3389 102.424 87.0002V79.4242H110C111.339 79.4242 112.424 78.3389 112.424 77.0002C112.424 75.6615 111.339 74.5762 110 74.5762H102.424V67.0002Z" fill="url(#paint77456_linear)"/>
<path d="M97.5763 74.5762V79.4242H102.424V74.5762H97.5763ZM97.5763 79.4242H102.424V74.5762H97.5763V79.4242ZM102.424 79.4242V74.5762H97.5763V79.4242H102.424ZM102.424 74.5762H97.5763V79.4242H102.424V74.5762ZM100 69.4242C98.6615 69.4242 97.5763 68.339 97.5763 67.0002H107.272C107.272 62.984 104.016 59.7282 100 59.7282V69.4242ZM102.424 67.0002C102.424 68.339 101.339 69.4242 100 69.4242V59.7282C95.9841 59.7282 92.7283 62.984 92.7283 67.0002H102.424ZM102.424 74.5762V67.0002H92.7283V74.5762H102.424ZM90.0003 79.4242H97.5763V69.7282H90.0003V79.4242ZM92.4243 77.0002C92.4243 78.3389 91.339 79.4242 90.0003 79.4242V69.7282C85.9841 69.7282 82.7283 72.984 82.7283 77.0002H92.4243ZM90.0003 74.5762C91.339 74.5762 92.4243 75.6615 92.4243 77.0002H82.7283C82.7283 81.0164 85.9841 84.2722 90.0003 84.2722V74.5762ZM97.5763 74.5762H90.0003V84.2722H97.5763V74.5762ZM102.424 87.0002V79.4242H92.7283V87.0002H102.424ZM100 84.5762C101.339 84.5762 102.424 85.6615 102.424 87.0002H92.7283C92.7283 91.0164 95.9841 94.2722 100 94.2722V84.5762ZM97.5763 87.0002C97.5763 85.6615 98.6615 84.5762 100 84.5762V94.2722C104.016 94.2722 107.272 91.0164 107.272 87.0002H97.5763ZM97.5763 79.4242V87.0002H107.272V79.4242H97.5763ZM110 74.5762H102.424V84.2722H110V74.5762ZM107.576 77.0002C107.576 75.6615 108.662 74.5762 110 74.5762V84.2722C114.016 84.2722 117.272 81.0164 117.272 77.0002H107.576ZM110 79.4242C108.662 79.4242 107.576 78.3389 107.576 77.0002H117.272C117.272 72.984 114.016 69.7282 110 69.7282V79.4242ZM102.424 79.4242H110V69.7282H102.424V79.4242ZM97.5763 67.0002V74.5762H107.272V67.0002H97.5763Z" fill="url(#paint8234234_linear)" mask="url(#path-26-inside-2)"/>
<defs>
<linearGradient id="paint032626_linear" x1="56.0001" y1="130.5" x2="112.965" y2="54.9733" gradientUnits="userSpaceOnUse">
<stop stop-color="#1D8DDB"/>
<stop offset="1" stop-color="#9E66BF"/>
</linearGradient>
<linearGradient id="paint235251_linear" x1="84.5001" y1="107" x2="147" y2="29.9999" gradientUnits="userSpaceOnUse">
<stop stop-color="#E74E3E"/>
<stop offset="1" stop-color="#FF7B2F"/>
</linearGradient>
<linearGradient id="paint22352_linear" x1="65" y1="114" x2="129" y2="49.9999" gradientUnits="userSpaceOnUse">
<stop stop-color="#E8F4FB"/>
<stop offset="1" stop-color="#FDEDEC"/>
</linearGradient>
<linearGradient id="paint3d2452_linear" x1="60" y1="130" x2="145" y2="34.9999" gradientUnits="userSpaceOnUse">
<stop stop-color="#1D8DDB"/>
<stop offset="0.303846" stop-color="#9E66BF"/>
<stop offset="0.64" stop-color="#E74E3E"/>
<stop offset="1" stop-color="#FF7B2F"/>
</linearGradient>
<linearGradient id="paint424352_linear" x1="63.0001" y1="126" x2="148" y2="30.9999" gradientUnits="userSpaceOnUse">
<stop stop-color="#1D8DDB"/>
<stop offset="0.303846" stop-color="#9E66BF"/>
<stop offset="0.64" stop-color="#E74E3E"/>
<stop offset="1" stop-color="#FF7B2F"/>
</linearGradient>
<linearGradient id="paint52452_linear" x1="90.5763" y1="93.4242" x2="115.424" y2="68.5762" gradientUnits="userSpaceOnUse">
<stop stop-color="#E8F4FB"/>
<stop offset="1" stop-color="#FDEDEC"/>
</linearGradient>
<linearGradient id="paint624352_linear" x1="88.635" y1="99.6362" x2="121.636" y2="62.7525" gradientUnits="userSpaceOnUse">
<stop stop-color="#1D8DDB"/>
<stop offset="0.303846" stop-color="#9E66BF"/>
<stop offset="0.64" stop-color="#E74E3E"/>
<stop offset="1" stop-color="#FF7B2F"/>
</linearGradient>
<linearGradient id="paint77456_linear" x1="87.5763" y1="89.4242" x2="112.424" y2="64.5762" gradientUnits="userSpaceOnUse">
<stop stop-color="#E8F4FB"/>
<stop offset="1" stop-color="#FDEDEC"/>
</linearGradient>
<linearGradient id="paint8234234_linear" x1="85.635" y1="95.6362" x2="118.636" y2="58.7525" gradientUnits="userSpaceOnUse">
<stop stop-color="#1D8DDB"/>
<stop offset="0.303846" stop-color="#9E66BF"/>
<stop offset="0.64" stop-color="#E74E3E"/>
<stop offset="1" stop-color="#FF7B2F"/>
</linearGradient>
</defs>
</svg>
