<svg width="96" height="105" viewBox="0 0 96 105" fill="none" xmlns="http://www.w3.org/2000/svg">
<path d="M50.847 34.3164L15.9715 37.3758C11.569 37.762 8.31217 41.6528 8.69725 46.0662L13.1422 97.0091C13.5273 101.422 17.4084 104.687 21.8109 104.301L56.6864 101.241C61.0887 100.855 64.3456 96.9644 63.9606 92.5511L59.5156 41.6082C59.1305 37.1948 55.2493 33.9302 50.847 34.3164Z" fill="#1D8DDB" fill-opacity="0.1"/>
<path d="M44.847 28.3165L9.97149 31.3759C5.56896 31.7621 2.31217 35.6529 2.69725 40.0662L7.1422 91.0092C7.52727 95.4224 11.4084 98.687 15.8109 98.3007L50.6864 95.2413C55.0887 94.8551 58.3456 90.9644 57.9606 86.5512L53.5156 35.6082C53.1305 31.1949 49.2493 27.9303 44.847 28.3165Z" stroke="#1D8DDB" stroke-width="5.04999"/>
<path d="M88.028 14.1849L48.1777 10.6976C43.7751 10.3123 39.893 13.5776 39.5068 17.9909L34.6118 73.9268C34.2256 78.3399 37.4816 82.2302 41.8842 82.6155L81.7345 86.1028C86.1373 86.488 90.0191 83.2224 90.4053 78.8093L95.3003 22.8733C95.6865 18.4601 92.4308 14.5702 88.028 14.1849Z" fill="#1D8DDB" fill-opacity="0.1"/>
<path d="M81.822 7.1849L41.9716 3.6976C37.569 3.31233 33.6869 6.57763 33.3007 10.9909L28.4058 66.9268C28.0196 71.3399 31.2755 75.2302 35.6781 75.6155L75.5285 79.1028C79.9312 79.488 83.8131 76.2224 84.1993 71.8093L89.0942 15.8733C89.4804 11.4601 86.2247 7.57018 81.822 7.1849Z" stroke="#1D8DDB" stroke-width="5.04999" stroke-linecap="round" stroke-dasharray="0.44 0.44 8.69 10.99"/>
</svg>
