<svg width="19" height="15" viewBox="0 0 19 15" fill="none" xmlns="http://www.w3.org/2000/svg">
<path fill-rule="evenodd" clip-rule="evenodd" d="M18.3918 3.73616C18.3129 3.47981 18.0788 3.30755 17.8091 3.30755C17.7288 3.30755 17.6502 3.32323 17.5755 3.35415C17.3842 3.4333 17.0858 3.52593 16.7128 3.54315C15.9589 2.99822 14.1307 1.68184 13.0461 0.943288C13.0461 0.943288 13.1981 1.38224 13.4079 2.20232C13.4079 2.20232 11.6929 1.24011 10.5511 0.500809C10.5511 0.500809 10.9777 1.36634 11.0131 1.6466C11.0131 1.6466 9.65514 1.41374 7.66954 0.986408C7.66954 0.986408 9.14649 1.80684 9.51024 2.30081C9.51024 2.30081 7.73356 2.18122 5.64101 2.06235C5.64101 2.06235 6.70165 2.59604 7.21907 3.02707C7.21907 3.02707 5.32223 3.30442 3.87724 3.37463C3.87724 3.37463 4.94896 4.20793 5.3815 4.61147C5.3815 4.61147 3.57726 5.32011 1.42257 6.56461C1.42257 6.56461 2.55799 6.62055 3.37661 6.88015C3.37661 6.88015 2.38925 7.74718 0.625085 9.73521C0.625085 9.73521 1.75797 9.69372 2.67202 9.57079C2.67202 9.57079 1.95625 10.6729 1.06625 12.6527C1.06625 12.6527 1.67675 12.2684 2.26797 12.1293C2.26797 12.1293 2.33142 14.3516 3.56112 14.7076L3.56214 14.7061C3.62238 14.7249 3.67987 14.7316 3.72978 14.7316C3.78984 14.7316 3.85261 14.7224 3.91639 14.7043C4.3066 14.594 4.60192 14.2135 4.94384 13.773L4.94395 13.7728C5.05583 13.6287 5.17078 13.4808 5.29299 13.3363C5.42937 13.1456 5.60734 12.9464 5.82214 12.7714C6.25679 12.4172 6.8583 12.1492 7.59111 12.2564C8.41615 12.3252 8.92577 13.1375 9.33551 13.7906L9.33552 13.7906C9.64528 14.2844 9.88996 14.6745 10.2315 14.7118C10.2555 14.7144 10.2794 14.7158 10.3027 14.7158C10.8247 14.7158 11.0081 14.1135 11.2404 13.3511L11.2405 13.3509C11.2559 13.3002 11.2717 13.2483 11.288 13.1954C11.2901 13.1996 11.2923 13.2038 11.2944 13.208C11.4663 12.5912 11.7997 11.9264 12.2075 11.3266C12.7614 10.5117 13.4753 9.78349 14.1608 9.44527L14.1624 9.44864C14.5347 9.2355 14.9263 9.03422 15.3124 8.83581L15.3128 8.83562C16.5095 8.22064 17.6399 7.63976 18.207 6.75846C18.4906 6.31765 18.6312 5.77677 18.6248 5.15076C18.6192 4.58927 18.495 4.07156 18.3918 3.73616ZM13.468 10.3753C13.1262 10.6954 12.7922 11.0923 12.4984 11.5244C12.0138 12.2373 11.657 13.0191 11.5518 13.6682C11.8887 14.2163 12.1915 14.4857 12.4743 14.4903L12.4832 14.4903C12.7432 14.4903 12.9146 14.3176 12.9929 13.9771C13.0513 13.7229 13.0638 13.3736 13.0782 12.9692L13.0782 12.9692L13.0782 12.9692L13.0782 12.9692L13.0782 12.9691L13.0782 12.9691L13.0782 12.9691L13.0782 12.9685C13.1045 12.2314 13.1386 11.2816 13.468 10.3753ZM5.48978 13.6917L5.48574 13.6819C5.60675 13.4841 5.79438 13.2479 6.04439 13.0442C6.39956 12.7547 6.86689 12.5416 7.43189 12.5919C7.36859 12.7609 7.2957 12.948 7.21739 13.1352C6.95033 13.7741 6.63084 14.4344 6.2862 14.4882C6.26577 14.4914 6.24493 14.493 6.22436 14.493C5.95437 14.493 5.71408 14.2309 5.48978 13.6917ZM12.2371 3.22968L10.7297 2.27482L13.215 3.15031L12.2371 3.22968ZM8.0923 3.66533L10.4798 4.26906L11.521 3.92745L8.0923 3.66533ZM12.3494 4.84839L12.8588 4.46687L10.8871 4.79456L12.3494 4.84839ZM8.97077 4.84839L8.15415 5.38913L5.89095 5.17608L8.97077 4.84839ZM11.521 6.19965L12.3494 5.74163L9.26954 6.06937L11.521 6.19965ZM9.23936 6.70811L8.66197 7.64588L5.77236 8.34444L9.23936 6.70811ZM5.62913 7.28546L3.39204 8.25864L6.13803 6.31228L5.62913 7.28546ZM4.40556 8.45244L4.31727 9.42601L3.03285 11.018L4.40556 8.45244Z" fill="#5C007B"/>
</svg>
