<svg width="96" height="104" viewBox="0 0 96 104" fill="none" xmlns="http://www.w3.org/2000/svg">
<path d="M15.9715 50L19.9999 36.0224L15.9715 36.3758C11.569 36.762 8.31217 40.6528 8.69725 45.0662L13.1422 96.0091C13.5273 100.422 17.4084 103.687 21.8109 103.301L56.6864 100.241C61.0887 99.8551 64.3456 95.9644 63.9606 91.5511L62.4999 74.8112L55.4999 78C26.4999 87.5 15.9715 56.5 15.9715 50Z" fill="#1D8DDB" fill-opacity="0.1"/>
<path d="M57.3019 78L57.9607 85.5512C58.3458 89.9644 55.0889 93.8551 50.6866 94.2413L15.8111 97.3007C11.4086 97.687 7.52745 94.4224 7.14238 90.0092L2.69742 39.0662C2.31234 34.6529 5.56914 30.7621 9.97167 30.3759L24.0001 29.1453" stroke="#1D8DDB" stroke-width="5.04999"/>
<path d="M57.3019 78L57.9607 85.5512C58.3458 89.9644 55.0889 93.8551 50.6866 94.2413L15.8111 97.3007C11.4086 97.687 7.52745 94.4224 7.14238 90.0092L2.69742 39.0662C2.31234 34.6529 5.56914 30.7621 9.97167 30.3759L24.0001 29.1453" stroke="url(#paint0623451_linear)" stroke-width="5.04999"/>
<path d="M88.028 13.1849L48.1777 9.6976C43.7751 9.31233 39.893 12.5776 39.5068 16.9909L39.0795 21.8733L53.9999 21.8733C81.7345 28 88.028 76.5 41.8842 81.6155L81.7345 85.1028C86.1373 85.488 90.0191 82.2224 90.4053 77.8093L95.3003 21.8733C95.6865 17.4601 92.4308 13.5702 88.028 13.1849Z" fill="#E74E3E" fill-opacity="0.1"/>
<path d="M24.4 26.4999C23.9 26.9999 21 29.9999 20 31.9999L12.5 32.6999C13.3 30.6999 15.5 28.0833 16.5 27.2499C19 26.9999 24.4 26.4999 24.4 26.4999Z" fill="#4B4898"/>
<path d="M32.6436 17.5L33.3007 9.99088C33.6869 5.57765 37.569 2.31235 41.9716 2.69762L81.8219 6.18492C86.2247 6.57021 89.4804 10.4601 89.0942 14.8734L84.1992 70.8093C83.813 75.2225 79.9312 78.4881 75.5284 78.1028L63.9999 77.0939L60.4999 76.7876" stroke="#E74E3E" stroke-width="5.04999" stroke-linecap="round" stroke-dasharray="0.44 0.44 8.69 10.99"/>
<path d="M32.6436 17.5L33.3007 9.99088C33.6869 5.57765 37.569 2.31235 41.9716 2.69762L81.8219 6.18492C86.2247 6.57021 89.4804 10.4601 89.0942 14.8734L84.1992 70.8093C83.813 75.2225 79.9312 78.4881 75.5284 78.1028L63.9999 77.0939L60.4999 76.7876" stroke="url(#paint164562_linear)" stroke-width="5.04999" stroke-linecap="round" stroke-dasharray="0.44 0.44 8.69 10.99"/>
<path d="M35.4 14.9999C34.2333 15.1666 31.8 15.6999 30.2 16.4999C30.2 16.8333 30 17.6999 30 18.4999C30 19.4999 30.5 20.9999 32.5 20.9999C34.5 20.9999 34.8218 20.0692 35 18.9999C35.1153 18.3082 35.4 15.3333 35.4 14.9999Z" fill="#DA4919"/>
<path d="M58.5 78.9999C59.8333 78.3333 64 76.5999 66 74.9999C68.2 76.4999 67.2969 79.6999 64.5 79.6999C62.5 79.6999 59.3333 79.1666 58.5 78.9999Z" fill="#B52C0D"/>
<path d="M60 78.7999C59 79.2999 56.6 80.2999 55 80.6999C55 80.6999 55.5 85.9999 55.5 86.4999C56.7 86.4999 59.2833 85.4999 60.45 84.9999L60 78.7999Z" fill="#324F9D"/>
<path opacity="0.1" d="M56.8374 80.1459C52.7086 82.3356 47.9991 83.5759 43 83.5759C26.6656 83.5759 13.424 70.3343 13.424 53.9999C13.424 50.7944 13.934 47.7076 14.8775 44.8165C14.272 48.5982 14.0572 52.7939 14.9604 57.1149C16.6024 64.9707 21.8253 72.8378 33.8073 79.6102L33.9488 79.6902L34.0998 79.7506C40.4848 82.3046 48.9208 83.0615 56.8374 80.1459Z" fill="url(#paint265542_linear)" stroke="url(#paint3256245_linear)" stroke-width="4.84799"/>
<circle cx="46" cy="50" r="29.576" stroke="url(#paint45262635_linear)" stroke-width="4.84799"/>
<g opacity="0.16">
<mask id="path-11-outside-1" maskUnits="userSpaceOnUse" x="34.77" y="40.096" width="28" height="28" fill="black">
<rect fill="white" x="34.77" y="40.096" width="28" height="28"/>
<path fill-rule="evenodd" clip-rule="evenodd" d="M52.6525 48.2013L50.588 44.6549C50.2098 44.0155 49.5126 43.6084 48.7562 43.6936C47.9999 43.6936 47.3027 44.0718 46.9245 44.7407L45.5113 46.8982C45.2785 47.3047 44.6675 47.3922 44.3189 47.0435C44.0872 46.7824 44.0282 46.4042 44.2031 46.1135L45.6163 43.9278C46.2557 42.7649 47.448 42.096 48.7563 42.096C50.0646 42.096 51.2274 42.7944 51.8963 43.9278L54.0188 47.5914L55.5019 46.893C55.9084 46.6897 56.3445 47.0962 56.1991 47.5323L55.1237 50.4691C55.0067 50.7598 54.716 50.8768 54.4548 50.7894L51.5192 49.7128C51.0831 49.5379 51.0831 48.9565 51.4897 48.7532L52.6525 48.2013ZM43.7037 62.3603H40.3833C39.6269 62.3603 38.9297 61.9538 38.5515 61.3133C38.1734 60.6444 38.1734 59.8597 38.5515 59.1908L40.9352 55.063L42.2434 55.8477C42.6499 56.0805 43.1155 55.7318 43.0281 55.2958L42.3013 52.2432C42.2434 51.9525 41.9527 51.8072 41.6903 51.8651L38.6378 52.5919C38.2017 52.7077 38.0859 53.2891 38.4925 53.5219L39.6849 54.2487L37.2717 58.4062C36.6028 59.5396 36.6028 60.9069 37.2717 62.0699C37.9122 63.2032 39.1625 63.8721 40.4707 63.8721H43.7036C44.1101 63.8721 44.4599 63.5234 44.4599 63.1157C44.4883 62.6797 44.1397 62.3603 43.7037 62.3603ZM60.2691 58.406L58.4494 55.5217C58.1882 55.0857 57.6068 54.9982 57.257 55.3764C57.0242 55.6092 56.9663 55.9873 57.1412 56.3064L58.9609 59.1907C59.339 59.8596 59.339 60.6443 58.9609 61.2837C58.5827 61.9525 57.8275 62.3591 57.0417 62.3591L52.7684 62.3602V60.9362C52.7684 60.4706 52.2165 60.2389 51.8963 60.558L49.6864 62.7679C49.4831 62.9712 49.4831 63.2914 49.6864 63.4947L51.8963 65.7046C52.2165 66.0249 52.7684 65.7921 52.7684 65.3265V63.8433H57.1292C58.4374 63.8433 59.6298 63.1745 60.2692 62.0116C60.9369 60.9066 60.9368 59.5404 60.2691 58.406Z"/>
</mask>
<path fill-rule="evenodd" clip-rule="evenodd" d="M52.6525 48.2013L50.588 44.6549C50.2098 44.0155 49.5126 43.6084 48.7562 43.6936C47.9999 43.6936 47.3027 44.0718 46.9245 44.7407L45.5113 46.8982C45.2785 47.3047 44.6675 47.3922 44.3189 47.0435C44.0872 46.7824 44.0282 46.4042 44.2031 46.1135L45.6163 43.9278C46.2557 42.7649 47.448 42.096 48.7563 42.096C50.0646 42.096 51.2274 42.7944 51.8963 43.9278L54.0188 47.5914L55.5019 46.893C55.9084 46.6897 56.3445 47.0962 56.1991 47.5323L55.1237 50.4691C55.0067 50.7598 54.716 50.8768 54.4548 50.7894L51.5192 49.7128C51.0831 49.5379 51.0831 48.9565 51.4897 48.7532L52.6525 48.2013ZM43.7037 62.3603H40.3833C39.6269 62.3603 38.9297 61.9538 38.5515 61.3133C38.1734 60.6444 38.1734 59.8597 38.5515 59.1908L40.9352 55.063L42.2434 55.8477C42.6499 56.0805 43.1155 55.7318 43.0281 55.2958L42.3013 52.2432C42.2434 51.9525 41.9527 51.8072 41.6903 51.8651L38.6378 52.5919C38.2017 52.7077 38.0859 53.2891 38.4925 53.5219L39.6849 54.2487L37.2717 58.4062C36.6028 59.5396 36.6028 60.9069 37.2717 62.0699C37.9122 63.2032 39.1625 63.8721 40.4707 63.8721H43.7036C44.1101 63.8721 44.4599 63.5234 44.4599 63.1157C44.4883 62.6797 44.1397 62.3603 43.7037 62.3603ZM60.2691 58.406L58.4494 55.5217C58.1882 55.0857 57.6068 54.9982 57.257 55.3764C57.0242 55.6092 56.9663 55.9873 57.1412 56.3064L58.9609 59.1907C59.339 59.8596 59.339 60.6443 58.9609 61.2837C58.5827 61.9525 57.8275 62.3591 57.0417 62.3591L52.7684 62.3602V60.9362C52.7684 60.4706 52.2165 60.2389 51.8963 60.558L49.6864 62.7679C49.4831 62.9712 49.4831 63.2914 49.6864 63.4947L51.8963 65.7046C52.2165 66.0249 52.7684 65.7921 52.7684 65.3265V63.8433H57.1292C58.4374 63.8433 59.6298 63.1745 60.2692 62.0116C60.9369 60.9066 60.9368 59.5404 60.2691 58.406Z" fill="url(#paint525626_linear)"/>
<path d="M50.588 44.6549L51.8843 43.9002L51.879 43.8912L50.588 44.6549ZM52.6525 48.2013L53.2957 49.5565L54.7698 48.8568L53.9489 47.4467L52.6525 48.2013ZM48.7562 43.6936V45.1936H48.8404L48.9241 45.1842L48.7562 43.6936ZM46.9245 44.7407L48.1793 45.5625L48.2061 45.5215L48.2302 45.4789L46.9245 44.7407ZM45.5113 46.8982L44.2565 46.0763L44.2319 46.1138L44.2096 46.1528L45.5113 46.8982ZM44.3189 47.0435L43.1967 48.0389L43.2265 48.0725L43.2583 48.1042L44.3189 47.0435ZM44.2031 46.1135L42.9434 45.2991L42.9302 45.3194L42.9177 45.3403L44.2031 46.1135ZM45.6163 43.9278L46.8759 44.7422L46.9049 44.6973L46.9307 44.6505L45.6163 43.9278ZM51.8963 43.9278L53.1943 43.1758L53.1881 43.1653L51.8963 43.9278ZM54.0188 47.5914L52.7208 48.3433L53.4114 49.5353L54.6578 48.9484L54.0188 47.5914ZM55.5019 46.893L56.1409 48.25L56.1569 48.2425L56.1727 48.2346L55.5019 46.893ZM56.1991 47.5323L57.6077 48.0481L57.6152 48.0275L57.6221 48.0067L56.1991 47.5323ZM55.1237 50.4691L56.5153 51.0291L56.5241 51.0071L56.5322 50.9849L55.1237 50.4691ZM54.4548 50.7894L53.9384 52.1977L53.9584 52.205L53.9786 52.2118L54.4548 50.7894ZM51.5192 49.7128L50.9608 51.105L50.9816 51.1134L51.0027 51.1211L51.5192 49.7128ZM51.4897 48.7532L50.8465 47.3981L50.8326 47.4047L50.8188 47.4116L51.4897 48.7532ZM38.5515 61.3133L37.2458 62.0515L37.2527 62.0638L37.2599 62.0759L38.5515 61.3133ZM38.5515 59.1908L37.2525 58.4407L37.2458 58.4526L38.5515 59.1908ZM40.9352 55.063L41.7067 53.7766L40.3988 52.9921L39.6362 54.3129L40.9352 55.063ZM42.2434 55.8477L41.4718 57.134L41.4848 57.1418L41.498 57.1493L42.2434 55.8477ZM43.0281 55.2958L44.4988 55.0008L44.4935 54.9745L44.4873 54.9483L43.0281 55.2958ZM42.3013 52.2432L40.8302 52.5363L40.8356 52.5636L40.8421 52.5907L42.3013 52.2432ZM41.6903 51.8651L41.367 50.4003L41.3549 50.403L41.3429 50.4059L41.6903 51.8651ZM38.6378 52.5919L38.2904 51.1327L38.2715 51.1372L38.2527 51.1421L38.6378 52.5919ZM38.4925 53.5219L39.2731 52.2411L39.2556 52.2304L39.2379 52.2203L38.4925 53.5219ZM39.6849 54.2487L40.9822 55.0017L41.7192 53.732L40.4655 52.9679L39.6849 54.2487ZM37.2717 58.4062L38.5635 59.1687L38.569 59.1592L37.2717 58.4062ZM37.2717 62.0699L38.5776 61.3318L38.572 61.322L37.2717 62.0699ZM44.4599 63.1157L42.9631 63.0183L42.9599 63.067V63.1157H44.4599ZM58.4494 55.5217L57.1626 56.2925L57.1715 56.3074L57.1808 56.3221L58.4494 55.5217ZM60.2691 58.406L61.5618 57.6451L61.55 57.6252L61.5377 57.6057L60.2691 58.406ZM57.257 55.3764L58.3176 56.437L58.3383 56.4164L58.3582 56.3949L57.257 55.3764ZM57.1412 56.3064L55.8258 57.0274L55.8479 57.0678L55.8725 57.1068L57.1412 56.3064ZM58.9609 59.1907L60.2666 58.4525L60.2488 58.421L60.2295 58.3904L58.9609 59.1907ZM58.9609 61.2837L57.6698 60.52L57.6623 60.5327L57.6551 60.5454L58.9609 61.2837ZM57.0417 62.3591L57.0417 60.8591L57.0413 60.8591L57.0417 62.3591ZM52.7684 62.3602H51.2684V63.8606L52.7688 63.8602L52.7684 62.3602ZM51.8963 60.558L50.8376 59.4954L50.8356 59.4974L51.8963 60.558ZM49.6864 62.7679L48.6257 61.7073L48.6257 61.7073L49.6864 62.7679ZM49.6864 63.4947L50.7471 62.434L50.747 62.434L49.6864 63.4947ZM51.8963 65.7046L52.957 64.644L52.957 64.644L51.8963 65.7046ZM52.7684 63.8433V62.3433H51.2684V63.8433H52.7684ZM60.2692 62.0116L58.9854 61.2358L58.9696 61.262L58.9548 61.2889L60.2692 62.0116ZM49.2916 45.4095L51.3562 48.956L53.9489 47.4467L51.8843 43.9002L49.2916 45.4095ZM48.9241 45.1842C49.0157 45.1739 49.1775 45.2167 49.2969 45.4185L51.879 43.8912C51.2421 42.8144 50.0094 42.043 48.5884 42.203L48.9241 45.1842ZM48.2302 45.4789C48.3255 45.3104 48.5056 45.1936 48.7562 45.1936V42.1936C47.4942 42.1936 46.2798 42.8331 45.6187 44.0024L48.2302 45.4789ZM46.7661 47.7201L48.1793 45.5625L45.6697 43.9188L44.2565 46.0763L46.7661 47.7201ZM43.2583 48.1042C44.2958 49.1418 46.082 48.9202 46.813 47.6436L44.2096 46.1528C44.3578 45.894 44.5924 45.7889 44.7665 45.7664C44.9465 45.7432 45.1872 45.7905 45.3796 45.9829L43.2583 48.1042ZM42.9177 45.3403C42.354 46.2773 42.5992 47.3652 43.1967 48.0389L45.4411 46.0482C45.5753 46.1995 45.7024 46.5311 45.4884 46.8867L42.9177 45.3403ZM44.3566 43.1133L42.9434 45.2991L45.4627 46.9279L46.8759 44.7422L44.3566 43.1133ZM48.7563 40.596C46.9256 40.596 45.2166 41.5415 44.3018 43.205L46.9307 44.6505C47.2948 43.9883 47.9704 43.596 48.7563 43.596V40.596ZM53.1881 43.1653C52.2645 41.6005 50.6244 40.596 48.7563 40.596V43.596C49.5048 43.596 50.1903 43.9884 50.6045 44.6902L53.1881 43.1653ZM55.3167 46.8394L53.1942 43.1758L50.5984 44.6797L52.7208 48.3433L55.3167 46.8394ZM54.8628 45.5359L53.3797 46.2343L54.6578 48.9484L56.1409 48.25L54.8628 45.5359ZM57.6221 48.0067C58.1388 46.4567 56.5761 44.6788 54.831 45.5513L56.1727 48.2346C55.7582 48.4418 55.3054 48.32 55.0402 48.0752C54.7831 47.838 54.6477 47.4431 54.7761 47.058L57.6221 48.0067ZM56.5322 50.9849L57.6077 48.0481L54.7906 47.0165L53.7152 49.9533L56.5322 50.9849ZM53.9786 52.2118C54.9793 52.5468 56.0968 52.0691 56.5153 51.0291L53.7321 49.9092C53.8134 49.7073 53.9814 49.5154 54.2214 49.4061C54.4538 49.3002 54.7086 49.2925 54.931 49.367L53.9786 52.2118ZM51.0027 51.1211L53.9384 52.1977L54.9713 49.3811L52.0356 48.3045L51.0027 51.1211ZM50.8188 47.4116C49.3515 48.1453 49.2252 50.4089 50.9608 51.105L52.0776 48.3206C52.4523 48.4709 52.681 48.8424 52.6882 49.2149C52.6949 49.5687 52.5027 49.9237 52.1605 50.0949L50.8188 47.4116ZM52.0094 46.8462L50.8465 47.3981L52.1328 50.1084L53.2957 49.5565L52.0094 46.8462ZM40.3833 63.8603H43.7037V60.8603H40.3833V63.8603ZM37.2599 62.0759C37.9044 63.1676 39.0895 63.8603 40.3833 63.8603V60.8603C40.1644 60.8603 39.955 60.74 39.8432 60.5507L37.2599 62.0759ZM37.2458 58.4526C36.6086 59.5796 36.6086 60.9246 37.2458 62.0515L39.8573 60.5751C39.7381 60.3643 39.7381 60.1399 39.8573 59.9291L37.2458 58.4526ZM39.6362 54.3129L37.2525 58.4407L39.8505 59.9409L42.2341 55.8131L39.6362 54.3129ZM43.015 54.5613L41.7067 53.7766L40.1636 56.3493L41.4718 57.134L43.015 54.5613ZM41.5574 55.5907C41.3914 54.7631 42.2781 54.139 42.9888 54.546L41.498 57.1493C43.0218 58.0219 44.8397 56.7006 44.4988 55.0008L41.5574 55.5907ZM40.8421 52.5907L41.5689 55.6432L44.4873 54.9483L43.7605 51.8958L40.8421 52.5907ZM42.0137 53.3298C41.6052 53.42 40.965 53.213 40.8302 52.5363L43.7724 51.9502C43.5217 50.6921 42.3002 50.1944 41.367 50.4003L42.0137 53.3298ZM38.9852 54.0511L42.0378 53.3243L41.3429 50.4059L38.2904 51.1327L38.9852 54.0511ZM39.2379 52.2203C39.6285 52.444 39.7925 52.8906 39.7272 53.2685C39.6671 53.6166 39.4098 53.9388 39.0229 54.0416L38.2527 51.1421C37.4298 51.3607 36.8965 52.0316 36.7711 52.7576C36.6405 53.5133 36.9499 54.3671 37.747 54.8236L39.2379 52.2203ZM40.4655 52.9679L39.2731 52.2411L37.7118 54.8028L38.9042 55.5296L40.4655 52.9679ZM38.569 59.1592L40.9822 55.0017L38.3876 53.4957L35.9744 57.6533L38.569 59.1592ZM38.572 61.322C38.1659 60.6159 38.1757 59.8257 38.5635 59.1687L35.9799 57.6438C35.0299 59.2535 35.0397 61.1978 35.9714 62.8177L38.572 61.322ZM40.4707 62.3721C39.6532 62.3721 38.9282 61.9523 38.5776 61.3319L35.9658 62.8079C36.8961 64.4541 38.6717 65.3721 40.4707 65.3721V62.3721ZM43.7036 62.3721H40.4707V65.3721H43.7036V62.3721ZM42.9599 63.1157C42.9599 62.885 43.0577 62.7019 43.1741 62.5856C43.2903 62.4695 43.473 62.3721 43.7036 62.3721V65.3721C44.9371 65.3721 45.9599 64.3533 45.9599 63.1157H42.9599ZM43.7037 63.8603C43.5562 63.8603 43.3695 63.8048 43.2101 63.6497C43.0397 63.484 42.9482 63.2468 42.9631 63.0183L45.9568 63.2132C46.0501 61.7799 44.8681 60.8603 43.7037 60.8603V63.8603ZM57.1808 56.3221L59.0005 59.2064L61.5377 57.6057L59.718 54.7214L57.1808 56.3221ZM58.3582 56.3949C58.1926 56.5739 57.9373 56.6632 57.6912 56.631C57.4565 56.6002 57.2662 56.4655 57.1626 56.2925L59.7362 54.751C59.0078 53.5349 57.2458 53.1794 56.1558 54.3578L58.3582 56.3949ZM58.4566 55.5855C58.5899 55.8289 58.5737 56.181 58.3176 56.437L56.1963 54.3157C55.4747 55.0373 55.3426 56.1458 55.8258 57.0274L58.4566 55.5855ZM60.2295 58.3904L58.4098 55.5061L55.8725 57.1068L57.6922 59.9911L60.2295 58.3904ZM60.2519 62.0473C60.9147 60.9267 60.8977 59.5687 60.2666 58.4525L57.6551 59.929C57.7803 60.1505 57.7633 60.3619 57.6698 60.52L60.2519 62.0473ZM57.0417 63.8591C58.3161 63.8591 59.5976 63.2052 60.2666 62.0219L57.6551 60.5454C57.5678 60.6999 57.3389 60.8591 57.0417 60.8591V63.8591ZM52.7688 63.8602L57.0421 63.8591L57.0413 60.8591L52.768 60.8602L52.7688 63.8602ZM51.2684 60.9362V62.3602H54.2684V60.9362H51.2684ZM52.955 61.6206C52.289 62.2842 51.2684 61.7482 51.2684 60.9362H54.2684C54.2684 59.193 52.1441 58.1937 50.8376 59.4954L52.955 61.6206ZM50.7471 63.8286L52.957 61.6187L50.8356 59.4974L48.6257 61.7073L50.7471 63.8286ZM50.747 62.434C51.1296 62.8166 51.1296 63.4461 50.7471 63.8286L48.6257 61.7073C47.8367 62.4963 47.8367 63.7663 48.6257 64.5554L50.747 62.434ZM52.957 64.644L50.7471 62.434L48.6257 64.5554L50.8356 66.7653L52.957 64.644ZM51.2684 65.3265C51.2684 64.5217 52.2859 63.9729 52.957 64.644L50.8356 66.7653C52.1472 68.0769 54.2684 67.0624 54.2684 65.3265H51.2684ZM51.2684 63.8433V65.3265H54.2684V63.8433H51.2684ZM57.1292 62.3433H52.7684V65.3433H57.1292V62.3433ZM58.9548 61.2889C58.5907 61.951 57.9151 62.3433 57.1292 62.3433V65.3433C58.9598 65.3433 60.6689 64.3979 61.5836 62.7343L58.9548 61.2889ZM58.9764 59.167C59.3715 59.8381 59.3611 60.6141 58.9854 61.2358L61.553 62.7874C62.5128 61.1992 62.5022 59.2427 61.5618 57.6451L58.9764 59.167Z" fill="url(#paint67356_linear)" mask="url(#path-11-outside-1)"/>
</g>
<mask id="path-13-outside-2" maskUnits="userSpaceOnUse" x="31.77" y="36.096" width="28" height="28" fill="black">
<rect fill="white" x="31.77" y="36.096" width="28" height="28"/>
<path fill-rule="evenodd" clip-rule="evenodd" d="M49.6525 44.2013L47.588 40.6549C47.2098 40.0155 46.5126 39.6084 45.7562 39.6936C44.9999 39.6936 44.3027 40.0718 43.9245 40.7407L42.5113 42.8982C42.2785 43.3047 41.6675 43.3922 41.3189 43.0435C41.0872 42.7824 41.0282 42.4042 41.2031 42.1135L42.6163 39.9278C43.2557 38.7649 44.448 38.096 45.7563 38.096C47.0646 38.096 48.2274 38.7944 48.8963 39.9278L51.0188 43.5914L52.5019 42.893C52.9084 42.6897 53.3445 43.0962 53.1991 43.5323L52.1237 46.4691C52.0067 46.7598 51.716 46.8768 51.4548 46.7894L48.5192 45.7128C48.0831 45.5379 48.0831 44.9565 48.4897 44.7532L49.6525 44.2013ZM40.7037 58.3603H37.3833C36.6269 58.3603 35.9297 57.9538 35.5515 57.3133C35.1734 56.6444 35.1734 55.8597 35.5515 55.1908L37.9352 51.063L39.2434 51.8477C39.6499 52.0805 40.1155 51.7318 40.0281 51.2958L39.3013 48.2432C39.2434 47.9525 38.9527 47.8072 38.6903 47.8651L35.6378 48.5919C35.2017 48.7077 35.0859 49.2891 35.4925 49.5219L36.6849 50.2487L34.2717 54.4062C33.6028 55.5396 33.6028 56.9069 34.2717 58.0699C34.9122 59.2032 36.1625 59.8721 37.4707 59.8721H40.7036C41.1101 59.8721 41.4599 59.5234 41.4599 59.1157C41.4883 58.6797 41.1397 58.3603 40.7037 58.3603ZM57.2691 54.406L55.4494 51.5217C55.1882 51.0857 54.6068 50.9982 54.257 51.3764C54.0242 51.6092 53.9663 51.9873 54.1412 52.3064L55.9609 55.1907C56.339 55.8596 56.339 56.6443 55.9609 57.2837C55.5827 57.9525 54.8275 58.3591 54.0417 58.3591L49.7684 58.3602V56.9362C49.7684 56.4706 49.2165 56.2389 48.8963 56.558L46.6864 58.7679C46.4831 58.9712 46.4831 59.2914 46.6864 59.4947L48.8963 61.7046C49.2165 62.0249 49.7684 61.7921 49.7684 61.3265V59.8433H54.1292C55.4374 59.8433 56.6298 59.1745 57.2692 58.0116C57.9369 56.9066 57.9368 55.5404 57.2691 54.406Z"/>
</mask>
<path fill-rule="evenodd" clip-rule="evenodd" d="M49.6525 44.2013L47.588 40.6549C47.2098 40.0155 46.5126 39.6084 45.7562 39.6936C44.9999 39.6936 44.3027 40.0718 43.9245 40.7407L42.5113 42.8982C42.2785 43.3047 41.6675 43.3922 41.3189 43.0435C41.0872 42.7824 41.0282 42.4042 41.2031 42.1135L42.6163 39.9278C43.2557 38.7649 44.448 38.096 45.7563 38.096C47.0646 38.096 48.2274 38.7944 48.8963 39.9278L51.0188 43.5914L52.5019 42.893C52.9084 42.6897 53.3445 43.0962 53.1991 43.5323L52.1237 46.4691C52.0067 46.7598 51.716 46.8768 51.4548 46.7894L48.5192 45.7128C48.0831 45.5379 48.0831 44.9565 48.4897 44.7532L49.6525 44.2013ZM40.7037 58.3603H37.3833C36.6269 58.3603 35.9297 57.9538 35.5515 57.3133C35.1734 56.6444 35.1734 55.8597 35.5515 55.1908L37.9352 51.063L39.2434 51.8477C39.6499 52.0805 40.1155 51.7318 40.0281 51.2958L39.3013 48.2432C39.2434 47.9525 38.9527 47.8072 38.6903 47.8651L35.6378 48.5919C35.2017 48.7077 35.0859 49.2891 35.4925 49.5219L36.6849 50.2487L34.2717 54.4062C33.6028 55.5396 33.6028 56.9069 34.2717 58.0699C34.9122 59.2032 36.1625 59.8721 37.4707 59.8721H40.7036C41.1101 59.8721 41.4599 59.5234 41.4599 59.1157C41.4883 58.6797 41.1397 58.3603 40.7037 58.3603ZM57.2691 54.406L55.4494 51.5217C55.1882 51.0857 54.6068 50.9982 54.257 51.3764C54.0242 51.6092 53.9663 51.9873 54.1412 52.3064L55.9609 55.1907C56.339 55.8596 56.339 56.6443 55.9609 57.2837C55.5827 57.9525 54.8275 58.3591 54.0417 58.3591L49.7684 58.3602V56.9362C49.7684 56.4706 49.2165 56.2389 48.8963 56.558L46.6864 58.7679C46.4831 58.9712 46.4831 59.2914 46.6864 59.4947L48.8963 61.7046C49.2165 62.0249 49.7684 61.7921 49.7684 61.3265V59.8433H54.1292C55.4374 59.8433 56.6298 59.1745 57.2692 58.0116C57.9369 56.9066 57.9368 55.5404 57.2691 54.406Z" fill="url(#paint7236_linear)"/>
<path d="M47.588 40.6549L48.8843 39.9002L48.879 39.8912L47.588 40.6549ZM49.6525 44.2013L50.2957 45.5565L51.7698 44.8568L50.9489 43.4467L49.6525 44.2013ZM45.7562 39.6936V41.1936H45.8404L45.9241 41.1842L45.7562 39.6936ZM43.9245 40.7407L45.1793 41.5625L45.2061 41.5215L45.2302 41.4789L43.9245 40.7407ZM42.5113 42.8982L41.2565 42.0763L41.2319 42.1138L41.2096 42.1528L42.5113 42.8982ZM41.3189 43.0435L40.1967 44.0389L40.2265 44.0725L40.2583 44.1042L41.3189 43.0435ZM41.2031 42.1135L39.9434 41.2991L39.9302 41.3194L39.9177 41.3403L41.2031 42.1135ZM42.6163 39.9278L43.8759 40.7422L43.9049 40.6973L43.9307 40.6505L42.6163 39.9278ZM48.8963 39.9278L50.1943 39.1758L50.1881 39.1653L48.8963 39.9278ZM51.0188 43.5914L49.7208 44.3433L50.4114 45.5353L51.6578 44.9484L51.0188 43.5914ZM52.5019 42.893L53.1409 44.25L53.1569 44.2425L53.1727 44.2346L52.5019 42.893ZM53.1991 43.5323L54.6077 44.0481L54.6152 44.0275L54.6221 44.0067L53.1991 43.5323ZM52.1237 46.4691L53.5153 47.0291L53.5241 47.0071L53.5322 46.9849L52.1237 46.4691ZM51.4548 46.7894L50.9384 48.1977L50.9584 48.205L50.9786 48.2118L51.4548 46.7894ZM48.5192 45.7128L47.9608 47.105L47.9816 47.1134L48.0027 47.1211L48.5192 45.7128ZM48.4897 44.7532L47.8465 43.3981L47.8326 43.4047L47.8188 43.4116L48.4897 44.7532ZM35.5515 57.3133L34.2458 58.0515L34.2527 58.0638L34.2599 58.0759L35.5515 57.3133ZM35.5515 55.1908L34.2525 54.4407L34.2458 54.4526L35.5515 55.1908ZM37.9352 51.063L38.7067 49.7766L37.3988 48.9921L36.6362 50.3129L37.9352 51.063ZM39.2434 51.8477L38.4718 53.134L38.4848 53.1418L38.498 53.1493L39.2434 51.8477ZM40.0281 51.2958L41.4988 51.0008L41.4935 50.9745L41.4873 50.9483L40.0281 51.2958ZM39.3013 48.2432L37.8302 48.5363L37.8356 48.5636L37.8421 48.5907L39.3013 48.2432ZM38.6903 47.8651L38.367 46.4003L38.3549 46.403L38.3429 46.4059L38.6903 47.8651ZM35.6378 48.5919L35.2904 47.1327L35.2715 47.1372L35.2527 47.1421L35.6378 48.5919ZM35.4925 49.5219L36.2731 48.2411L36.2556 48.2304L36.2379 48.2203L35.4925 49.5219ZM36.6849 50.2487L37.9822 51.0017L38.7192 49.732L37.4655 48.9679L36.6849 50.2487ZM34.2717 54.4062L35.5635 55.1687L35.569 55.1592L34.2717 54.4062ZM34.2717 58.0699L35.5776 57.3318L35.572 57.322L34.2717 58.0699ZM41.4599 59.1157L39.9631 59.0183L39.9599 59.067V59.1157H41.4599ZM55.4494 51.5217L54.1626 52.2925L54.1715 52.3074L54.1808 52.3221L55.4494 51.5217ZM57.2691 54.406L58.5618 53.6451L58.55 53.6252L58.5377 53.6057L57.2691 54.406ZM54.257 51.3764L55.3176 52.437L55.3383 52.4164L55.3582 52.3949L54.257 51.3764ZM54.1412 52.3064L52.8258 53.0274L52.8479 53.0678L52.8725 53.1068L54.1412 52.3064ZM55.9609 55.1907L57.2666 54.4525L57.2488 54.421L57.2295 54.3904L55.9609 55.1907ZM55.9609 57.2837L54.6698 56.52L54.6623 56.5327L54.6551 56.5454L55.9609 57.2837ZM54.0417 58.3591L54.0417 56.8591L54.0413 56.8591L54.0417 58.3591ZM49.7684 58.3602H48.2684V59.8606L49.7688 59.8602L49.7684 58.3602ZM48.8963 56.558L47.8376 55.4954L47.8356 55.4974L48.8963 56.558ZM46.6864 58.7679L45.6257 57.7073L45.6257 57.7073L46.6864 58.7679ZM46.6864 59.4947L47.7471 58.434L47.747 58.434L46.6864 59.4947ZM48.8963 61.7046L49.957 60.644L49.957 60.644L48.8963 61.7046ZM49.7684 59.8433V58.3433H48.2684V59.8433H49.7684ZM57.2692 58.0116L55.9854 57.2358L55.9696 57.262L55.9548 57.2889L57.2692 58.0116ZM46.2916 41.4095L48.3562 44.956L50.9489 43.4467L48.8843 39.9002L46.2916 41.4095ZM45.9241 41.1842C46.0157 41.1739 46.1775 41.2167 46.2969 41.4185L48.879 39.8912C48.2421 38.8144 47.0094 38.043 45.5884 38.203L45.9241 41.1842ZM45.2302 41.4789C45.3255 41.3104 45.5056 41.1936 45.7562 41.1936V38.1936C44.4942 38.1936 43.2798 38.8331 42.6187 40.0024L45.2302 41.4789ZM43.7661 43.7201L45.1793 41.5625L42.6697 39.9188L41.2565 42.0763L43.7661 43.7201ZM40.2583 44.1042C41.2958 45.1418 43.082 44.9202 43.813 43.6436L41.2096 42.1528C41.3578 41.894 41.5924 41.7889 41.7665 41.7664C41.9465 41.7432 42.1872 41.7905 42.3796 41.9829L40.2583 44.1042ZM39.9177 41.3403C39.354 42.2773 39.5992 43.3652 40.1967 44.0389L42.4411 42.0482C42.5753 42.1995 42.7024 42.5311 42.4884 42.8867L39.9177 41.3403ZM41.3566 39.1133L39.9434 41.2991L42.4627 42.9279L43.8759 40.7422L41.3566 39.1133ZM45.7563 36.596C43.9256 36.596 42.2166 37.5415 41.3018 39.205L43.9307 40.6505C44.2948 39.9883 44.9704 39.596 45.7563 39.596V36.596ZM50.1881 39.1653C49.2645 37.6005 47.6244 36.596 45.7563 36.596V39.596C46.5048 39.596 47.1903 39.9884 47.6045 40.6902L50.1881 39.1653ZM52.3167 42.8394L50.1942 39.1758L47.5984 40.6797L49.7208 44.3433L52.3167 42.8394ZM51.8628 41.5359L50.3797 42.2343L51.6578 44.9484L53.1409 44.25L51.8628 41.5359ZM54.6221 44.0067C55.1388 42.4567 53.5761 40.6788 51.831 41.5513L53.1727 44.2346C52.7582 44.4418 52.3054 44.32 52.0402 44.0752C51.7831 43.838 51.6477 43.4431 51.7761 43.058L54.6221 44.0067ZM53.5322 46.9849L54.6077 44.0481L51.7906 43.0165L50.7152 45.9533L53.5322 46.9849ZM50.9786 48.2118C51.9793 48.5468 53.0968 48.0691 53.5153 47.0291L50.7321 45.9092C50.8134 45.7073 50.9814 45.5154 51.2214 45.4061C51.4538 45.3002 51.7086 45.2925 51.931 45.367L50.9786 48.2118ZM48.0027 47.1211L50.9384 48.1977L51.9713 45.3811L49.0356 44.3045L48.0027 47.1211ZM47.8188 43.4116C46.3515 44.1453 46.2252 46.4089 47.9608 47.105L49.0776 44.3206C49.4523 44.4709 49.681 44.8424 49.6882 45.2149C49.6949 45.5687 49.5027 45.9237 49.1605 46.0949L47.8188 43.4116ZM49.0094 42.8462L47.8465 43.3981L49.1328 46.1084L50.2957 45.5565L49.0094 42.8462ZM37.3833 59.8603H40.7037V56.8603H37.3833V59.8603ZM34.2599 58.0759C34.9044 59.1676 36.0895 59.8603 37.3833 59.8603V56.8603C37.1644 56.8603 36.955 56.74 36.8432 56.5507L34.2599 58.0759ZM34.2458 54.4526C33.6086 55.5796 33.6086 56.9246 34.2458 58.0515L36.8573 56.5751C36.7381 56.3643 36.7381 56.1399 36.8573 55.9291L34.2458 54.4526ZM36.6362 50.3129L34.2525 54.4407L36.8505 55.9409L39.2341 51.8131L36.6362 50.3129ZM40.015 50.5613L38.7067 49.7766L37.1636 52.3493L38.4718 53.134L40.015 50.5613ZM38.5574 51.5907C38.3914 50.7631 39.2781 50.139 39.9888 50.546L38.498 53.1493C40.0218 54.0219 41.8397 52.7006 41.4988 51.0008L38.5574 51.5907ZM37.8421 48.5907L38.5689 51.6432L41.4873 50.9483L40.7605 47.8958L37.8421 48.5907ZM39.0137 49.3298C38.6052 49.42 37.965 49.213 37.8302 48.5363L40.7724 47.9502C40.5217 46.6921 39.3002 46.1944 38.367 46.4003L39.0137 49.3298ZM35.9852 50.0511L39.0378 49.3243L38.3429 46.4059L35.2904 47.1327L35.9852 50.0511ZM36.2379 48.2203C36.6285 48.444 36.7925 48.8906 36.7272 49.2685C36.6671 49.6166 36.4098 49.9388 36.0229 50.0416L35.2527 47.1421C34.4298 47.3607 33.8965 48.0316 33.7711 48.7576C33.6405 49.5133 33.9499 50.3671 34.747 50.8236L36.2379 48.2203ZM37.4655 48.9679L36.2731 48.2411L34.7118 50.8028L35.9042 51.5296L37.4655 48.9679ZM35.569 55.1592L37.9822 51.0017L35.3876 49.4957L32.9744 53.6533L35.569 55.1592ZM35.572 57.322C35.1659 56.6159 35.1757 55.8257 35.5635 55.1687L32.9799 53.6438C32.0299 55.2535 32.0397 57.1978 32.9714 58.8177L35.572 57.322ZM37.4707 58.3721C36.6532 58.3721 35.9282 57.9523 35.5776 57.3319L32.9658 58.8079C33.8961 60.4541 35.6717 61.3721 37.4707 61.3721V58.3721ZM40.7036 58.3721H37.4707V61.3721H40.7036V58.3721ZM39.9599 59.1157C39.9599 58.885 40.0577 58.7019 40.1741 58.5856C40.2903 58.4695 40.473 58.3721 40.7036 58.3721V61.3721C41.9371 61.3721 42.9599 60.3533 42.9599 59.1157H39.9599ZM40.7037 59.8603C40.5562 59.8603 40.3695 59.8048 40.2101 59.6497C40.0397 59.484 39.9482 59.2468 39.9631 59.0183L42.9568 59.2132C43.0501 57.7799 41.8681 56.8603 40.7037 56.8603V59.8603ZM54.1808 52.3221L56.0005 55.2064L58.5377 53.6057L56.718 50.7214L54.1808 52.3221ZM55.3582 52.3949C55.1926 52.5739 54.9373 52.6632 54.6912 52.631C54.4565 52.6002 54.2662 52.4655 54.1626 52.2925L56.7362 50.751C56.0078 49.5349 54.2458 49.1794 53.1558 50.3578L55.3582 52.3949ZM55.4566 51.5855C55.5899 51.8289 55.5737 52.181 55.3176 52.437L53.1963 50.3157C52.4747 51.0373 52.3426 52.1458 52.8258 53.0274L55.4566 51.5855ZM57.2295 54.3904L55.4098 51.5061L52.8725 53.1068L54.6922 55.9911L57.2295 54.3904ZM57.2519 58.0473C57.9147 56.9267 57.8977 55.5687 57.2666 54.4525L54.6551 55.929C54.7803 56.1505 54.7633 56.3619 54.6698 56.52L57.2519 58.0473ZM54.0417 59.8591C55.3161 59.8591 56.5976 59.2052 57.2666 58.0219L54.6551 56.5454C54.5678 56.6999 54.3389 56.8591 54.0417 56.8591V59.8591ZM49.7688 59.8602L54.0421 59.8591L54.0413 56.8591L49.768 56.8602L49.7688 59.8602ZM48.2684 56.9362V58.3602H51.2684V56.9362H48.2684ZM49.955 57.6206C49.289 58.2842 48.2684 57.7482 48.2684 56.9362H51.2684C51.2684 55.193 49.1441 54.1937 47.8376 55.4954L49.955 57.6206ZM47.7471 59.8286L49.957 57.6187L47.8356 55.4974L45.6257 57.7073L47.7471 59.8286ZM47.747 58.434C48.1296 58.8166 48.1296 59.4461 47.7471 59.8286L45.6257 57.7073C44.8367 58.4963 44.8367 59.7663 45.6257 60.5554L47.747 58.434ZM49.957 60.644L47.7471 58.434L45.6257 60.5554L47.8356 62.7653L49.957 60.644ZM48.2684 61.3265C48.2684 60.5217 49.2859 59.9729 49.957 60.644L47.8356 62.7653C49.1472 64.0769 51.2684 63.0624 51.2684 61.3265H48.2684ZM48.2684 59.8433V61.3265H51.2684V59.8433H48.2684ZM54.1292 58.3433H49.7684V61.3433H54.1292V58.3433ZM55.9548 57.2889C55.5907 57.951 54.9151 58.3433 54.1292 58.3433V61.3433C55.9598 61.3433 57.6689 60.3979 58.5836 58.7343L55.9548 57.2889ZM55.9764 55.167C56.3715 55.8381 56.3611 56.6141 55.9854 57.2358L58.553 58.7874C59.5128 57.1992 59.5022 55.2427 58.5618 53.6451L55.9764 55.167Z" fill="url(#paint8234562_linear)" mask="url(#path-13-outside-2)"/>
<defs>
<linearGradient id="paint0623451_linear" x1="2.00012" y1="102.5" x2="58.9648" y2="26.9733" gradientUnits="userSpaceOnUse">
<stop stop-color="#1D8DDB"/>
<stop offset="1" stop-color="#9E66BF"/>
</linearGradient>
<linearGradient id="paint164562_linear" x1="30.4999" y1="78.9999" x2="92.9999" y2="1.99994" gradientUnits="userSpaceOnUse">
<stop stop-color="#E74E3E"/>
<stop offset="1" stop-color="#FF7B2F"/>
</linearGradient>
<linearGradient id="paint265542_linear" x1="11" y1="85.9999" x2="75" y2="21.9999" gradientUnits="userSpaceOnUse">
<stop stop-color="#E8F4FB"/>
<stop offset="1" stop-color="#FDEDEC"/>
</linearGradient>
<linearGradient id="paint3256245_linear" x1="6" y1="102" x2="91" y2="6.99995" gradientUnits="userSpaceOnUse">
<stop stop-color="#1D8DDB"/>
<stop offset="0.303846" stop-color="#9E66BF"/>
<stop offset="0.64" stop-color="#E74E3E"/>
<stop offset="1" stop-color="#FF7B2F"/>
</linearGradient>
<linearGradient id="paint45262635_linear" x1="9" y1="97.9999" x2="94" y2="2.99994" gradientUnits="userSpaceOnUse">
<stop stop-color="#1D8DDB"/>
<stop offset="0.303846" stop-color="#9E66BF"/>
<stop offset="0.64" stop-color="#E74E3E"/>
<stop offset="1" stop-color="#FF7B2F"/>
</linearGradient>
<linearGradient id="paint525626_linear" x1="36.77" y1="65.8527" x2="55.3162" y2="47.811" gradientUnits="userSpaceOnUse">
<stop offset="0.0941354" stop-color="#6578CC"/>
<stop offset="0.306108" stop-color="#946AC2"/>
<stop offset="0.584796" stop-color="#BA5E8F"/>
<stop offset="1" stop-color="#EA533D"/>
</linearGradient>
<linearGradient id="paint67356_linear" x1="34.895" y1="71.7918" x2="66.4096" y2="36.2089" gradientUnits="userSpaceOnUse">
<stop stop-color="#1D8DDB"/>
<stop offset="0.303846" stop-color="#9E66BF"/>
<stop offset="0.64" stop-color="#E74E3E"/>
<stop offset="1" stop-color="#FF7B2F"/>
</linearGradient>
<linearGradient id="paint7236_linear" x1="33.77" y1="61.8527" x2="52.3162" y2="43.811" gradientUnits="userSpaceOnUse">
<stop offset="0.0941354" stop-color="#6578CC"/>
<stop offset="0.306108" stop-color="#946AC2"/>
<stop offset="0.584796" stop-color="#BA5E8F"/>
<stop offset="1" stop-color="#EA533D"/>
</linearGradient>
<linearGradient id="paint8234562_linear" x1="31.895" y1="67.7918" x2="63.4096" y2="32.2089" gradientUnits="userSpaceOnUse">
<stop stop-color="#1D8DDB"/>
<stop offset="0.303846" stop-color="#9E66BF"/>
<stop offset="0.64" stop-color="#E74E3E"/>
<stop offset="1" stop-color="#FF7B2F"/>
</linearGradient>
</defs>
</svg>
