<svg width="18" height="18" viewBox="0 0 18 18" fill="none" xmlns="http://www.w3.org/2000/svg">
<path d="M7.65495 1.11024C4.05495 1.11024 1.10889 4.04928 1.10889 7.64928C1.10889 11.2493 4.05423 14.1953 7.65495 14.1953C9.0394 14.1953 10.3211 13.7524 11.3781 13.0155L14.9169 16.5473C15.3669 17.0043 16.103 17.0043 16.5537 16.5473C17.0037 16.0973 17.0037 15.3681 16.5537 14.9174L13.015 11.3786C13.7582 10.3148 14.1948 9.03305 14.1948 7.64921C14.1941 4.04849 11.2487 1.11017 7.65504 1.11017L7.65495 1.11024ZM7.65495 3.41442C10.0005 3.41442 11.8828 5.29668 11.8828 7.64856C11.8828 10.0004 10.0012 11.8827 7.65495 11.8827C5.30235 11.8827 3.42081 10.0004 3.42081 7.64856C3.42081 5.29668 5.30235 3.41442 7.65495 3.41442V3.41442Z" fill="#1E1E1E"/>
</svg>
