<svg width="16" height="16" viewBox="0 0 16 16" fill="none" xmlns="http://www.w3.org/2000/svg">
<g clip-path="url(#clip0)">
<path fill-rule="evenodd" clip-rule="evenodd" d="M0.000273549 11.6734L2.94084e-05 11.6733C-0.00422459 10.5241 0.453195 9.42328 1.26852 8.61502L2.39633 7.48715C2.68465 7.23999 3.11505 7.25701 3.38351 7.52548C3.65197 7.79392 3.669 8.22437 3.42184 8.51272L2.29404 9.64059C1.25711 10.7756 1.29548 12.5256 2.38211 13.6137C3.47027 14.7018 5.2202 14.743 6.35654 13.706V13.7046L8.61075 11.4503C9.73003 10.3266 9.73003 8.50988 8.61075 7.38486C8.46302 7.25133 8.37783 7.06242 8.37356 6.86355C8.36788 6.6647 8.44602 6.47293 8.58664 6.3323C8.72725 6.19168 8.92037 6.11496 9.11923 6.12064C9.31809 6.1249 9.50701 6.21155 9.64053 6.35928C10.4516 7.17038 10.9076 8.27127 10.9076 9.41757C10.9076 10.5653 10.4516 11.6648 9.64053 12.4759L7.38492 14.7315C6.57668 15.5469 5.47589 16.0043 4.32675 16C1.93917 15.996 0.00453555 14.0612 0.000273549 11.6734ZM12.5782 7.48721L13.7061 6.35934C14.7643 5.2273 14.7344 3.4588 13.6379 2.36221C12.5414 1.26562 10.773 1.23577 9.6409 2.29404L7.38528 4.54971C6.266 5.67343 6.266 7.49018 7.38528 8.6152C7.66795 8.89786 7.66795 9.35668 7.38528 9.64078C7.10264 9.92203 6.64386 9.92203 6.35977 9.64078C5.5487 8.82968 5.09128 7.72879 5.09128 6.58249C5.09128 5.43473 5.5487 4.33388 6.35977 3.5242L8.61539 1.26852C9.42362 0.453172 10.5244 -0.00423248 11.6736 2.95196e-05C14.0611 0.00402952 15.9958 1.93883 16 4.32663C16.0043 5.4758 15.5469 6.57666 14.7315 7.38492L13.6037 8.51279C13.3154 8.75995 12.885 8.74286 12.6165 8.47439C12.3481 8.20596 12.3311 7.77557 12.5782 7.48721Z" fill="#1E1E1E"/>
</g>
<defs>
<clipPath id="clip0">
<rect width="16" height="16" fill="white"/>
</clipPath>
</defs>
</svg>
